<?xml version="1.0" standalone="no"?>
<!DOCTYPE svg PUBLIC "-//W3C//DTD SVG 1.1//EN" "http://www.w3.org/Graphics/SVG/1.1/DTD/svg11.dtd" >
<svg>
<metadata>
Created by FontForge 20110222 at Tue Oct  7 07:15:11 2014
 By deploy user
Copyright (c) 2007 Linotype GmbH, www.linotype.com. All rights reserved. This font software may not be reproduced, modified, disclosed or transferred without the express written approval of Linotype GmbH. Frutiger Next is a trademark of Linotype GmbH and may be registered in certain jurisdictions. This typeface is original artwork of Adrian Frutiger and Linotype Design Studio. The design may be protected in certain jurisdictions. 
</metadata>
<defs>
<font id="FrutigerNextPro-Regular" horiz-adv-x="542" >
  <font-face 
    font-family="Frutiger Next Pro"
    font-weight="400"
    font-stretch="normal"
    units-per-em="1000"
    panose-1="2 11 5 3 4 2 4 2 2 3"
    ascent="721"
    descent="-279"
    x-height="498"
    cap-height="667"
    bbox="-157 -240 1186 905"
    underline-thickness="50"
    underline-position="-50"
    unicode-range="U+000D-FB02"
  />
<missing-glyph horiz-adv-x="512" 
d="M269 117h-59v64h59v-64zM263 241h-47v9q0 34 11.5 61t28 45.5t33 36t28 41t11.5 52.5q0 34 -22 55.5t-60 21.5q-46 0 -98 -21l-4 47q51 20 102 20q61 0 97.5 -32.5t36.5 -91.5q0 -38 -18.5 -70t-40 -50.5t-40 -48t-18.5 -64.5v-11zM512 0h-512v718h512v-718zM50 667v-617
h412v617h-412z" />
    <glyph glyph-name="IJ" unicode="IJ" horiz-adv-x="556" 
d="M164 0h-79v667h79v-667zM241 2l6 65q21 -9 57 -9q51 0 74 34t23 85v490h79v-492q0 -85 -40 -135.5t-122 -50.5q-42 0 -77 13z" />
    <glyph glyph-name="ij" unicode="ij" horiz-adv-x="435" 
d="M146 609h-73v87h73v-87zM146 0h-73v498h73v-498zM362 609h-72v87h72v-87zM185 -221l6 63q17 -6 34 -6q22 0 35.5 7t19.5 22t8 29t2 35v569h72v-580q0 -145 -115 -145q-38 0 -62 6z" />
    <glyph glyph-name="napostrophe" unicode="&#x22;n" horiz-adv-x="580" 
d="M187 0h-73v381q0 68 -5 117h67l3 -86q53 96 161 96q167 0 167 -199v-309h-72v295q0 70 -23 110.5t-89 40.5q-72 0 -104 -51t-32 -127v-268zM11 504h-59l58 217h84z" />
    <glyph glyph-name="fi" unicode="fi" horiz-adv-x="524" 
d="M191 0h-73v440h-97v58h97v64q0 25 2 45t10 44.5t22 41t39.5 27.5t60.5 11q45 0 64 -10l-6 -60q-19 9 -48 9q-42 0 -57 -28t-15 -77v-67h112v-58h-111v-440zM451 609h-73v87h73v-87zM451 0h-73v498h73v-498z" />
    <glyph glyph-name="fl" unicode="fl" horiz-adv-x="524" 
d="M191 0h-73v440h-97v58h97v64q0 25 2 45t10 44.5t22 41t39.5 27.5t60.5 11q45 0 64 -10l-6 -60q-19 9 -48 9q-42 0 -57 -28t-15 -77v-67h112v-58h-111v-440zM451 0h-73v721h73v-721z" />
    <glyph glyph-name=".notdef" horiz-adv-x="512" 
d="M269 117h-59v64h59v-64zM263 241h-47v9q0 34 11.5 61t28 45.5t33 36t28 41t11.5 52.5q0 34 -22 55.5t-60 21.5q-46 0 -98 -21l-4 47q51 20 102 20q61 0 97.5 -32.5t36.5 -91.5q0 -38 -18.5 -70t-40 -50.5t-40 -48t-18.5 -64.5v-11zM512 0h-512v718h512v-718zM50 667v-617
h412v617h-412z" />
    <glyph glyph-name=".null" horiz-adv-x="1000" 
 />
    <glyph glyph-name=".null" horiz-adv-x="1000" 
 />
    <glyph glyph-name="nonmarkingreturn" horiz-adv-x="333" 
 />
    <glyph glyph-name="CR" unicode="&#xd;" horiz-adv-x="0" 
 />
    <glyph glyph-name="space" unicode=" " horiz-adv-x="271" 
 />
    <glyph glyph-name="exclam" unicode="!" horiz-adv-x="268" 
d="M166 169h-64l-13 498h90zM177 0h-86v89h86v-89z" />
    <glyph glyph-name="quotedbl" unicode="&#x22;" horiz-adv-x="415" 
d="M313 459h-67v208h67v-208zM169 459h-67v208h67v-208z" />
    <glyph glyph-name="numbersign" unicode="#" 
d="M138 0h-54l31 209h-82v53h90l23 143h-82v53h90l32 209h55l-32 -209h164l32 209h55l-32 -209h82v-53h-90l-23 -143h82v-53h-90l-31 -209h-55l31 209h-164zM201 405l-23 -143h164l23 143h-164z" />
    <glyph glyph-name="dollar" unicode="$" 
d="M291 -108h-55v97q-85 0 -152 28l5 77q63 -39 153 -39q65 0 105.5 30.5t40.5 93.5q0 21 -8.5 39t-29.5 35t-35 26t-46 27l-69 37q-56 30 -88.5 67t-32.5 92q0 71 48 116t121 55v101h55v-97q73 0 130 -21l-6 -71q-48 26 -127 26q-59 0 -100.5 -25.5t-41.5 -80.5
q0 -60 100 -111l70 -37q66 -36 103 -75t37 -102q0 -78 -49 -126t-128 -61v-101z" />
    <glyph glyph-name="percent" unicode="%" horiz-adv-x="900" 
d="M604 8q-77 49 -77 187q0 37 7.5 71t24 65.5t48 50.5t74.5 19q44 0 75.5 -19t48 -50.5t23.5 -65t7 -71.5t-7 -72t-23.5 -65.5t-48 -50t-75.5 -18.5q-48 0 -77 19zM269 -24h-59l424 715h59zM142 284q-77 49 -77 187q0 51 12.5 94.5t49 77.5t93.5 34q44 0 75.5 -19t48 -50.5
t23.5 -65t7 -71.5t-7 -72t-23.5 -65.5t-48 -50t-75.5 -18.5q-47 0 -78 19zM605 96q21 -54 76 -54q89 0 89 153q0 30 -2.5 51.5t-10.5 47.5t-27 40t-49 14q-89 0 -89 -153q0 -65 13 -99zM144 372q21 -54 76 -54q89 0 89 153q0 30 -2.5 51.5t-10.5 47.5t-27 40t-49 14
q-89 0 -89 -153q0 -65 13 -99z" />
    <glyph glyph-name="ampersand" unicode="&#x26;" horiz-adv-x="643" 
d="M519 315v-297q-93 -29 -210 -29q-52 0 -95 9.5t-80 30.5t-58 59t-21 90q0 70 47 116.5t117 50.5q-148 14 -148 152q0 84 70 132t165 48q81 0 156 -28l-4 -69q-75 35 -153 35q-64 0 -111.5 -31.5t-47.5 -86.5q0 -36 12.5 -61t36.5 -37t51 -17t63 -5h135v79h75v-79h104v-62
h-104zM444 315h-135q-78 0 -127.5 -32t-49.5 -105q0 -126 177 -126q75 0 135 20v243z" />
    <glyph glyph-name="quotesingle" unicode="'" horiz-adv-x="271" 
d="M169 459h-67v208h67v-208z" />
    <glyph glyph-name="parenleft" unicode="(" horiz-adv-x="269" 
d="M263 -128h-55q-73 114 -114.5 215.5t-41.5 209.5q0 107 41.5 208.5t114.5 215.5h55q-44 -85 -68.5 -138.5t-47 -133.5t-22.5 -152q0 -73 22.5 -153t47 -133.5t68.5 -138.5z" />
    <glyph glyph-name="parenright" unicode=")" horiz-adv-x="269" 
d="M62 -128h-55q35 67 52.5 104.5t41.5 97t34.5 114t10.5 109.5q0 71 -23 152t-47 133t-69 139h55q73 -114 114.5 -215.5t41.5 -208.5q0 -108 -41.5 -209.5t-114.5 -215.5z" />
    <glyph glyph-name="asterisk" unicode="*" horiz-adv-x="401" 
d="M143 353l-54 32l73 110l-116 37l20 61l111 -51l-8 125h65l-9 -125l110 51l20 -61l-114 -37l72 -110l-54 -32l-58 112z" />
    <glyph glyph-name="plus" unicode="+" 
d="M238 215h-218v60h218v215h66v-215h219v-60h-219v-215h-66v215z" />
    <glyph glyph-name="comma" unicode="," horiz-adv-x="271" 
d="M97 -128h-59l58 217h84z" />
    <glyph glyph-name="hyphen" unicode="-" horiz-adv-x="320" 
d="M281 277h-242v66h242v-66z" />
    <glyph glyph-name="period" unicode="." horiz-adv-x="271" 
d="M179 0h-86v89h86v-89z" />
    <glyph glyph-name="slash" unicode="/" horiz-adv-x="290" 
d="M50 0h-71l262 667h70z" />
    <glyph glyph-name="zero" unicode="0" 
d="M155 21q-110 76 -110 312q0 62 10 117.5t33.5 109t70.5 85.5t112 32q66 0 113 -32t70.5 -86t33.5 -109t10 -117q0 -49 -5.5 -93t-21 -91.5t-40 -81.5t-65.5 -56t-95 -22q-70 0 -116 32zM147 153q35 -99 124 -99q146 0 146 279t-146 279q-145 0 -145 -279q0 -117 21 -180z
" />
    <glyph glyph-name="one" unicode="1" 
d="M340 0h-78v581l-111 -95l-38 52l158 129h69v-667z" />
    <glyph glyph-name="two" unicode="2" 
d="M463 0h-412v63l149 162q96 105 132 159t36 113q0 50 -36 81.5t-88 31.5q-80 0 -162 -45l-6 69q91 43 170 43q89 0 146 -45t57 -131q0 -32 -10 -64t-22 -55.5t-43 -62t-49.5 -59.5t-64.5 -72l-112 -123h315v-65z" />
    <glyph glyph-name="three" unicode="3" 
d="M48 15l6 69q64 -30 156 -30q72 0 123.5 34.5t51.5 105.5q0 63 -47 94.5t-112 31.5h-91v63h78q161 0 161 122q0 55 -43 81t-105 26q-79 0 -153 -33l-6 68q84 30 169 30q89 0 153.5 -41t64.5 -125q0 -61 -40.5 -102.5t-98.5 -54.5q66 -9 109 -50t43 -107
q0 -101 -72.5 -154.5t-181.5 -53.5q-93 0 -165 26z" />
    <glyph glyph-name="four" unicode="4" 
d="M345 151h-319v73l301 443h95v-451h96v-65h-96v-151h-77v151zM345 594l-254 -378h254v378z" />
    <glyph glyph-name="five" unicode="5" 
d="M69 13l6 73q59 -31 142 -31q73 0 124 39.5t51 111.5q0 71 -46 106t-120 35q-64 0 -141 -26l7 346h349v-64h-276l-6 -208q37 13 95 13q95 0 157 -52t62 -145q0 -104 -72 -163t-179 -59q-94 0 -153 24z" />
    <glyph glyph-name="six" unicode="6" 
d="M178 103q39 -50 106 -50q63 0 100 43.5t37 111.5q0 66 -34 107t-98 41q-62 0 -105 -39t-43 -101q0 -65 37 -113zM466 662l-6 -69q-45 19 -108 19q-74 0 -125.5 -42t-73 -102t-24.5 -134q26 38 70 62t98 24q93 0 148 -56.5t55 -150.5q0 -101 -60.5 -162.5t-156.5 -61.5
q-53 0 -94 18.5t-65.5 47.5t-40.5 71t-22 84t-6 90q0 78 17 144t52 119.5t95 83.5t139 30q57 0 108 -15z" />
    <glyph glyph-name="seven" unicode="7" 
d="M215 0h-88l267 600h-341v67h419v-65z" />
    <glyph glyph-name="eight" unicode="8" 
d="M386 259q-38 33 -115 60q-151 -45 -151 -147q0 -59 43.5 -89t107.5 -30q63 0 107.5 31.5t44.5 90.5q0 53 -37 84zM224 396l48 -21q130 52 130 132q0 53 -38 80t-93 27q-54 0 -92 -27.5t-38 -79.5q0 -67 83 -111zM132 320q30 16 61 27q-65 30 -98 67t-33 94q0 80 65 124.5
t144 44.5q85 0 147.5 -42t62.5 -125q0 -99 -137 -161q78 -27 119 -67t41 -112q0 -88 -70.5 -134.5t-162.5 -46.5q-94 0 -163 44.5t-69 130.5q0 105 93 156z" />
    <glyph glyph-name="nine" unicode="9" 
d="M155 352q33 -42 100 -42q62 0 105 39t43 101q0 67 -38.5 115t-104.5 48q-63 0 -100 -43.5t-37 -111.5q0 -62 32 -106zM78 4l6 69q50 -19 108 -19q74 0 125.5 42t73 102t24.5 134q-23 -37 -68.5 -61.5t-99.5 -24.5q-93 0 -148 56.5t-55 150.5q0 101 60.5 162.5t156.5 61.5
q66 0 112.5 -27t70.5 -73.5t34.5 -98t10.5 -112.5q0 -78 -17 -144t-52 -119.5t-95 -83.5t-139 -30q-60 0 -108 15z" />
    <glyph glyph-name="colon" unicode=":" horiz-adv-x="271" 
d="M179 409h-86v89h86v-89zM179 0h-86v89h86v-89z" />
    <glyph glyph-name="semicolon" unicode=";" horiz-adv-x="271" 
d="M178 409h-86v89h86v-89zM97 -128h-59l58 217h84z" />
    <glyph glyph-name="less" unicode="&#x3c;" 
d="M523 11l-503 200v65l503 202v-66l-428 -169l428 -167v-65z" />
    <glyph glyph-name="equal" unicode="=" 
d="M523 309h-503v60h503v-60zM523 119h-503v60h503v-60z" />
    <glyph glyph-name="greater" unicode="&#x3e;" 
d="M522 211l-503 -200v65l428 167l-428 169v66l503 -202v-65z" />
    <glyph glyph-name="question" unicode="?" horiz-adv-x="406" 
d="M202 169h-71v13q0 47 16 84.5t39 62.5t46 48.5t39 55.5t16 71q0 50 -33 78t-85 28q-60 0 -135 -26l-6 68q78 25 148 25q84 0 138 -44t54 -125q0 -43 -17 -78.5t-41.5 -61t-49 -50t-41.5 -59t-17 -75.5v-15zM210 0h-87v89h87v-89z" />
    <glyph glyph-name="at" unicode="@" horiz-adv-x="1040" 
d="M620 244l43 199q-35 7 -66 7q-107 0 -175 -87.5t-68 -200.5q0 -54 25 -84.5t70 -30.5q59 0 105.5 56.5t65.5 140.5zM829 -108l9 -62q-135 -57 -303 -57q-210 0 -338 122t-128 326q0 225 140 367.5t355 142.5q179 0 292.5 -108t113.5 -298q0 -145 -72 -240.5t-175 -95.5
q-51 0 -82.5 30t-32.5 89q-68 -119 -175 -119q-67 0 -108 44.5t-41 124.5q0 147 90.5 248.5t234.5 101.5q66 0 132 -20l-69 -321q-6 -25 -6 -48q0 -76 67 -76q70 0 121 79.5t51 201.5q0 167 -97.5 257.5t-250.5 90.5q-182 0 -301.5 -126t-119.5 -325q0 -180 110.5 -284.5
t298.5 -104.5q150 0 284 60z" />
    <glyph glyph-name="A" unicode="A" horiz-adv-x="634" 
d="M81 0h-77l266 667h93l267 -667h-82l-69 181h-327zM316 603l-141 -358h280z" />
    <glyph glyph-name="B" unicode="B" horiz-adv-x="549" 
d="M236 0h-151v667h177q93 0 153.5 -39t60.5 -126q0 -122 -128 -153q65 -10 106 -52.5t41 -106.5q0 -190 -259 -190zM163 605v-229h75q157 0 157 121q0 58 -40 83t-101 25h-91zM163 317v-255h71q179 0 179 125q0 130 -190 130h-60z" />
    <glyph glyph-name="C" unicode="C" horiz-adv-x="589" 
d="M547 86l6 -67q-57 -30 -159 -30q-158 0 -250.5 93.5t-92.5 250.5q0 150 96 247t247 97q97 0 157 -26l-6 -71q-62 29 -147 29q-121 0 -192.5 -77.5t-71.5 -198.5q0 -125 69.5 -200.5t193.5 -75.5q91 0 150 29z" />
    <glyph glyph-name="D" unicode="D" horiz-adv-x="651" 
d="M164 602v-537h56q301 0 301 278q0 125 -69 192t-196 67h-92zM222 0h-137v667h174q163 0 254 -82t91 -242q0 -170 -104 -256.5t-278 -86.5z" />
    <glyph glyph-name="E" unicode="E" horiz-adv-x="486" 
d="M440 0h-355v667h344v-65h-265v-228h252v-63h-252v-246h276v-65z" />
    <glyph glyph-name="F" unicode="F" horiz-adv-x="456" 
d="M164 0h-79v667h335v-65h-256v-230h245v-63h-245v-309z" />
    <glyph glyph-name="G" unicode="G" horiz-adv-x="669" 
d="M596 359v-337q-94 -33 -187 -33q-162 0 -260 91t-98 253q0 158 101 251t257 93q107 0 182 -33l-6 -72q-68 38 -171 38q-126 0 -203 -73t-77 -204q0 -129 74 -203t202 -74q60 0 110 14v226h-150v63h226z" />
    <glyph glyph-name="H" unicode="H" horiz-adv-x="653" 
d="M164 0h-79v667h79v-289h325v289h80v-667h-80v309h-325v-309z" />
    <glyph glyph-name="I" unicode="I" horiz-adv-x="248" 
d="M164 0h-79v667h79v-667z" />
    <glyph glyph-name="J" unicode="J" horiz-adv-x="319" 
d="M4 2l6 65q21 -9 57 -9q51 0 74 34t23 85v490h79v-492q0 -85 -40 -135.5t-122 -50.5q-42 0 -77 13z" />
    <glyph glyph-name="K" unicode="K" horiz-adv-x="586" 
d="M164 0h-79v667h79v-301l292 301h98l-315 -313l343 -354h-106l-312 333v-333z" />
    <glyph glyph-name="L" unicode="L" horiz-adv-x="452" 
d="M434 0h-349v667h79v-599h270v-68z" />
    <glyph glyph-name="M" unicode="M" horiz-adv-x="869" 
d="M159 0h-74v667h122l229 -579l227 579h122v-667h-77v602l-236 -602h-77l-236 602v-602z" />
    <glyph glyph-name="N" unicode="N" horiz-adv-x="676" 
d="M159 0h-74v667h111l321 -585v585h74v-667h-111l-321 585v-585z" />
    <glyph glyph-name="O" unicode="O" horiz-adv-x="701" 
d="M217 16q-82 40 -124 123t-42 194q0 95 32 171t101.5 124.5t166.5 48.5q147 0 223.5 -97t76.5 -247q0 -147 -78 -245.5t-222 -98.5q-77 0 -134 27zM185 144q60 -89 166 -89q74 0 124.5 42.5t71 103t20.5 132.5t-20.5 132.5t-71 103t-124.5 42.5q-55 0 -98 -24.5t-68 -65
t-38 -88.5t-13 -100q0 -112 51 -189z" />
    <glyph glyph-name="P" unicode="P" horiz-adv-x="508" 
d="M163 603v-258h51q87 0 135.5 28.5t48.5 106.5q0 123 -171 123h-64zM164 0h-79v667h156q108 0 173.5 -45t65.5 -141q0 -104 -69.5 -152t-181.5 -48h-65v-281z" />
    <glyph glyph-name="Q" unicode="Q" horiz-adv-x="701" 
d="M621 -128h-103l-118 121q-21 -4 -49 -4q-147 0 -223.5 96.5t-76.5 247.5q0 95 32 171t101.5 124.5t166.5 48.5q147 0 223.5 -97t76.5 -247q0 -109 -44 -195t-127 -123zM185 144q60 -89 166 -89q74 0 124.5 42.5t71 103t20.5 132.5t-20.5 132.5t-71 103t-124.5 42.5
q-55 0 -98 -24.5t-68 -65t-38 -88.5t-13 -100q0 -112 51 -189z" />
    <glyph glyph-name="R" unicode="R" horiz-adv-x="548" 
d="M163 603v-231h68q67 0 115 29.5t48 94.5q0 33 -13.5 55.5t-39 33t-52 14.5t-62.5 4h-64zM164 0h-79v667h164q227 0 227 -164q0 -65 -43.5 -111t-107.5 -54q60 -12 91 -85l109 -253h-89l-92 220q-22 53 -47 70.5t-83 17.5h-50v-308z" />
    <glyph glyph-name="S" unicode="S" horiz-adv-x="484" 
d="M48 20l9 74q63 -39 154 -39q61 0 98.5 29.5t37.5 91.5q0 48 -29 77t-86 58l-54 29q-56 31 -85.5 67t-29.5 97q0 85 63 129t152 44q71 0 129 -24l-9 -71q-52 29 -119 29q-135 0 -135 -104q0 -38 24 -64t69 -50l54 -29q69 -37 103.5 -75.5t34.5 -107.5q0 -90 -63 -141
t-154 -51q-95 0 -164 31z" />
    <glyph glyph-name="T" unicode="T" horiz-adv-x="496" 
d="M288 0h-80v599h-198v68h477v-68h-199v-599z" />
    <glyph glyph-name="U" unicode="U" horiz-adv-x="650" 
d="M156 667v-431q0 -82 44 -130.5t125 -48.5q82 0 126 48.5t44 130.5v431h79v-431q0 -114 -67.5 -180.5t-181.5 -66.5q-115 0 -181.5 65.5t-66.5 180.5v432h79z" />
    <glyph glyph-name="V" unicode="V" horiz-adv-x="598" 
d="M342 0h-87l-249 667h84l210 -591l213 591h79z" />
    <glyph glyph-name="W" unicode="W" horiz-adv-x="922" 
d="M297 0h-95l-191 667h81l161 -588l166 588h92l165 -588l161 588h75l-190 -667h-94l-165 589z" />
    <glyph glyph-name="X" unicode="X" horiz-adv-x="602" 
d="M96 0h-88l247 350l-223 317h92l182 -268l181 268h86l-221 -317l243 -350h-95l-198 303z" />
    <glyph glyph-name="Y" unicode="Y" horiz-adv-x="576" 
d="M327 0h-79v278l-246 389h88l200 -325l200 325h85l-248 -389v-278z" />
    <glyph glyph-name="Z" unicode="Z" horiz-adv-x="494" 
d="M468 0h-442v66l348 535h-336v66h422v-66l-345 -535h353v-66z" />
    <glyph glyph-name="bracketleft" unicode="[" horiz-adv-x="270" 
d="M256 -128h-165v849h165v-52h-96v-745h96v-52z" />
    <glyph glyph-name="backslash" unicode="\" horiz-adv-x="290" 
d="M311 0h-70l-262 667h71z" />
    <glyph glyph-name="bracketright" unicode="]" horiz-adv-x="270" 
d="M181 -128h-166v52h97v745h-97v52h166v-849z" />
    <glyph glyph-name="asciicircum" unicode="^" horiz-adv-x="600" 
d="M169 249h-70l170 418h63l169 -418h-69l-133 342z" />
    <glyph glyph-name="underscore" unicode="_" horiz-adv-x="500" 
d="M500 -125h-500v50h500v-50z" />
    <glyph glyph-name="grave" unicode="`" horiz-adv-x="218" 
d="M154 585h-59l-97 136h85z" />
    <glyph glyph-name="a" unicode="a" horiz-adv-x="493" 
d="M348 250h-37q-42 0 -72 -3.5t-62.5 -13.5t-50 -33.5t-17.5 -59.5q0 -47 27.5 -69.5t68.5 -22.5q74 0 108.5 48t34.5 124v30zM426 0h-71l-3 80q-21 -46 -62.5 -68.5t-92.5 -22.5q-71 0 -117 38t-46 110q0 166 258 166h56v24q0 123 -112 123q-76 0 -141 -42l-6 65
q72 35 150 35q93 0 137 -46t44 -140v-216q0 -64 6 -106z" />
    <glyph glyph-name="b" unicode="b" horiz-adv-x="543" 
d="M140 0h-67v721h73v-307q18 43 61 68.5t92 25.5q55 0 95.5 -21t63 -58.5t33 -81.5t10.5 -96q0 -50 -11.5 -95t-34.5 -83.5t-63.5 -61t-93.5 -22.5q-109 0 -156 94zM173 118q40 -67 111 -67q40 0 68 18t42.5 48.5t21 63t6.5 70.5q0 195 -138 195q-71 0 -106 -59t-35 -136
q0 -76 30 -133z" />
    <glyph glyph-name="c" unicode="c" horiz-adv-x="443" 
d="M405 73l5 -65q-54 -19 -129 -19q-111 0 -174.5 74.5t-63.5 187.5t66.5 185t178.5 72q59 0 122 -21l-6 -65q-53 25 -104 25q-87 0 -133 -54t-46 -142q0 -84 46 -142.5t128 -58.5q56 0 110 23z" />
    <glyph glyph-name="d" unicode="d" horiz-adv-x="543" 
d="M476 0h-68l-6 83q-47 -94 -156 -94q-53 0 -93.5 22.5t-63.5 61t-34.5 83.5t-11.5 95q0 110 50.5 183.5t154.5 73.5q48 0 90 -25.5t60 -68.5v307h73v-563q0 -71 5 -158zM149 116q37 -65 111 -65q72 0 106 60.5t34 138.5q0 77 -35 136.5t-106 59.5q-138 0 -138 -196
q0 -82 28 -134z" />
    <glyph glyph-name="e" unicode="e" horiz-adv-x="491" 
d="M117 294h274q-2 29 -8.5 53.5t-20 49.5t-38.5 39t-60 14q-66 0 -105 -48t-42 -108zM462 240h-345q0 -80 44 -136t132 -56q78 0 137 38l3 -65q-66 -32 -140 -32q-124 0 -188 72.5t-64 189.5q0 104 58.5 180.5t163.5 76.5q56 0 96 -21t62 -58t31.5 -80.5t9.5 -96.5v-12z
" />
    <glyph glyph-name="f" unicode="f" horiz-adv-x="316" 
d="M191 0h-73v440h-97v58h97v64q0 25 2 45t10 44.5t22 41t39.5 27.5t60.5 11q45 0 64 -10l-6 -60q-19 9 -48 9q-42 0 -57 -28t-15 -77v-67h112v-58h-111v-440z" />
    <glyph glyph-name="g" unicode="g" horiz-adv-x="543" 
d="M83 -201l6 71q69 -36 144 -36q85 0 125 51.5t40 138.5v64q-23 -41 -64.5 -64.5t-89.5 -23.5q-53 0 -93.5 21.5t-63 58t-33.5 80t-11 91.5q0 110 50 183.5t153 73.5q109 0 156 -94v84h69v-473q0 -120 -57 -186t-176 -66q-72 0 -155 26zM148 124q36 -62 111 -62
q73 0 107 56.5t34 131.5q0 35 -7.5 68t-23.5 62.5t-44 47.5t-65 18q-40 0 -68.5 -17t-43 -47t-21 -62t-6.5 -70q0 -77 27 -126z" />
    <glyph glyph-name="h" unicode="h" horiz-adv-x="539" 
d="M146 0h-73v721h73v-307q48 94 154 94q166 0 166 -199v-309h-72v296q0 70 -23 110t-89 40q-71 0 -103.5 -51t-32.5 -126v-269z" />
    <glyph glyph-name="i" unicode="i" horiz-adv-x="218" 
d="M146 609h-73v87h73v-87zM146 0h-73v498h73v-498z" />
    <glyph glyph-name="j" unicode="j" horiz-adv-x="224" 
d="M151 609h-72v87h72v-87zM-26 -221l6 63q16 -6 34 -6q22 0 35.5 7t19.5 22t8 29t2 35v569h72v-580q0 -145 -115 -145q-38 0 -62 6z" />
    <glyph glyph-name="k" unicode="k" horiz-adv-x="479" 
d="M146 0h-73v721h73v-429l211 206h91l-229 -220l256 -278h-96l-233 260v-260z" />
    <glyph glyph-name="l" unicode="l" horiz-adv-x="218" 
d="M146 0h-73v721h73v-721z" />
    <glyph glyph-name="m" unicode="m" horiz-adv-x="810" 
d="M146 0h-73v381q0 68 -5 117h67l3 -86q50 96 149 96q58 0 95.5 -30.5t49.5 -73.5q18 46 60.5 75t90.5 29q73 0 114 -47t41 -122v-339h-73v326q0 120 -99 120q-63 0 -93.5 -51.5t-30.5 -125.5v-269h-73v326q0 120 -98 120q-64 0 -94.5 -51.5t-30.5 -125.5v-269z" />
    <glyph glyph-name="n" unicode="n" horiz-adv-x="539" 
d="M146 0h-73v381q0 68 -5 117h67l3 -86q52 96 161 96q167 0 167 -199v-309h-72v295q0 70 -23 110.5t-89 40.5q-72 0 -104 -51t-32 -127v-268z" />
    <glyph glyph-name="o" unicode="o" horiz-adv-x="551" 
d="M174 9q-64 31 -97.5 94.5t-33.5 147.5q0 111 62.5 184t170.5 73q113 0 173 -71t60 -186q0 -113 -61 -187.5t-172 -74.5q-57 0 -102 20zM157 114q43 -64 119 -64t115.5 60t39.5 141q0 83 -38.5 139.5t-116.5 56.5q-77 0 -116 -58t-39 -138q0 -81 36 -137z" />
    <glyph glyph-name="p" unicode="p" horiz-adv-x="543" 
d="M146 -216h-73v547q0 74 -5 167h69l4 -87q20 44 64 70.5t94 26.5q55 0 95.5 -21t63 -58.5t33 -81.5t10.5 -96q0 -50 -11.5 -95t-34.5 -83.5t-63.5 -61t-93.5 -22.5q-50 0 -92 24.5t-60 67.5v-297zM173 118q40 -67 111 -67q40 0 68 18t42.5 48.5t21 63t6.5 70.5
q0 195 -138 195q-71 0 -106 -59t-35 -136q0 -76 30 -133z" />
    <glyph glyph-name="q" unicode="q" horiz-adv-x="543" 
d="M471 -216h-73v299q-18 -43 -60.5 -68.5t-91.5 -25.5q-53 0 -93.5 22.5t-63.5 61t-34.5 83.5t-11.5 95q0 52 11 96.5t34.5 81.5t63.5 58t93 21q111 0 158 -94v84h68v-714zM149 117q36 -66 111 -66q72 0 106 61t34 139q0 77 -35 136t-106 59q-138 0 -138 -195
q0 -82 28 -134z" />
    <glyph glyph-name="r" unicode="r" horiz-adv-x="328" 
d="M146 0h-73v381q0 68 -5 117h67l4 -94q15 41 52 72.5t80 31.5q27 0 42 -4l-4 -73q-19 6 -40 6q-36 0 -61.5 -18t-38 -48.5t-18 -60.5t-5.5 -63v-247z" />
    <glyph glyph-name="s" unicode="s" horiz-adv-x="389" 
d="M42 12l9 68q59 -31 122 -31q44 0 69.5 21t25.5 62q0 33 -22 56t-54 37t-63.5 29.5t-53.5 44.5t-22 71q0 70 47.5 104t113.5 34q56 0 113 -21l-10 -63q-52 25 -102 25q-36 0 -62.5 -17t-26.5 -58q0 -27 22.5 -46t54 -32.5t63.5 -30t54.5 -49t22.5 -78.5q0 -69 -49.5 -109
t-119.5 -40q-78 0 -132 23z" />
    <glyph glyph-name="t" unicode="t" horiz-adv-x="328" 
d="M303 65l4 -61q-34 -15 -81 -15q-30 0 -51 9t-33.5 22.5t-19.5 36.5t-9 44.5t-2 52.5v287h-94v57h94v112l72 25v-137h113v-57h-113v-306q0 -83 64 -83q25 0 56 13z" />
    <glyph glyph-name="u" unicode="u" horiz-adv-x="535" 
d="M144 498v-295q0 -33 4 -57.5t15 -47t34 -34.5t57 -12q72 0 104 51t32 127v268h72v-381q0 -68 5 -117h-67l-2 86q-53 -97 -161 -97q-166 0 -166 201v308h73z" />
    <glyph glyph-name="v" unicode="v" horiz-adv-x="443" 
d="M264 0h-86l-167 498h79l133 -434l134 434h76z" />
    <glyph glyph-name="w" unicode="w" horiz-adv-x="771" 
d="M259 0h-88l-158 498h78l127 -430l129 430h87l129 -430l126 430h70l-155 -498h-89l-127 429z" />
    <glyph glyph-name="x" unicode="x" horiz-adv-x="452" 
d="M94 0h-81l172 261l-155 237h85l116 -191l113 191h81l-153 -237l168 -261h-86l-126 215z" />
    <glyph glyph-name="y" unicode="y" horiz-adv-x="444" 
d="M31 -219l6 63q27 -9 45 -9q57 0 93 115l10 33l-173 515h79l134 -429l133 429h76l-200 -585q-49 -140 -143 -140q-23 0 -60 8z" />
    <glyph glyph-name="z" unicode="z" horiz-adv-x="424" 
d="M395 0h-365v59l281 381h-270v58h352v-59l-281 -381h283v-58z" />
    <glyph glyph-name="braceleft" unicode="{" horiz-adv-x="272" 
d="M264 -128h-60q-47 0 -72.5 34.5t-25.5 83.5v160q0 28 -5.5 53.5t-23.5 47t-46 21.5v50q28 0 46 22t23.5 47.5t5.5 54.5v158q0 49 25.5 83t73.5 34h59v-50h-46q-25 0 -34.5 -27.5t-9.5 -58.5v-155q0 -43 -22.5 -82.5t-61.5 -50.5q39 -11 61.5 -51t22.5 -83v-153
q0 -88 44 -88h46v-50z" />
    <glyph glyph-name="bar" unicode="|" horiz-adv-x="216" 
d="M145 -216h-73v991h73v-991z" />
    <glyph glyph-name="braceright" unicode="}" horiz-adv-x="272" 
d="M68 -128h-60v50h46q44 0 44 88v153q0 44 22 83.5t62 50.5q-40 11 -62 50t-22 83v155q0 18 -2.5 35.5t-13.5 34t-28 16.5h-46v50h59q47 0 73.5 -34.5t26.5 -82.5v-158q0 -29 5 -54.5t23 -47.5t46 -22v-50q-28 0 -46 -21.5t-23 -46.5t-5 -54v-160q0 -49 -26 -83.5
t-73 -34.5z" />
    <glyph glyph-name="asciitilde" unicode="~" 
d="M53 172h-45q22 140 124 140q47 0 145 -37t135 -37q62 0 79 79h43q-4 -57 -35 -97.5t-86 -40.5q-49 0 -145.5 36t-135.5 36q-33 0 -53 -22t-26 -57z" />
    <glyph glyph-name="uni00A0" unicode="&#xa0;" horiz-adv-x="271" 
 />
    <glyph glyph-name="exclamdown" unicode="&#xa1;" horiz-adv-x="268" 
d="M177 409h-86v89h86v-89zM179 -169h-90l13 499h64z" />
    <glyph glyph-name="cent" unicode="&#xa2;" 
d="M326 0h-50v92q-90 12 -140.5 80.5t-50.5 163.5q0 93 52 159.5t139 80.5v91h50v-89q45 0 106 -21l-6 -64q-53 25 -97 25q-80 0 -123.5 -51t-43.5 -131q0 -77 43 -131.5t118 -54.5q50 0 104 23l6 -64q-51 -19 -107 -19v-90z" />
    <glyph glyph-name="sterling" unicode="&#xa3;" 
d="M478 0h-397v63h80v266h-76v63h76v57q0 106 51.5 167t162.5 61q69 0 112 -20l-9 -67q-38 22 -99 22q-45 0 -74 -13.5t-43 -39t-19 -52t-5 -64.5v-51h168v-63h-168v-266h240v-63z" />
    <glyph glyph-name="currency" unicode="&#xa4;" 
d="M81 101l-41 40l63 64q-43 58 -43 128t43 128l-64 64l41 40l63 -64q55 43 128 43q69 0 129 -42l63 62l41 -40l-64 -63q43 -62 43 -129q0 -71 -43 -126l64 -66l-41 -40l-64 65q-55 -45 -127 -45q-68 0 -128 44zM133 273q18 -40 55 -65.5t83 -25.5q62 0 106.5 44t44.5 106
t-44.5 106.5t-106.5 44.5q-63 0 -106.5 -44t-43.5 -107q0 -30 12 -59z" />
    <glyph glyph-name="yen" unicode="&#xa5;" 
d="M308 0h-78v148h-146v56h146v71h-146v56h119l-174 336h82l161 -323l160 323h82l-180 -336h124v-56h-150v-71h150v-56h-150v-148z" />
    <glyph glyph-name="brokenbar" unicode="&#xa6;" horiz-adv-x="216" 
d="M145 379h-73v396h73v-396zM145 -216h-73v397h73v-397z" />
    <glyph glyph-name="section" unicode="&#xa7;" 
d="M225 219l108 -48q54 56 54 102q0 22 -14 39.5t-29 26.5t-39 19l-83 36q-27 -15 -45 -42t-18 -56q0 -47 66 -77zM88 -96l6 63q66 -31 154 -31q49 0 88.5 25t39.5 71q0 20 -14.5 37.5t-29 26t-38.5 19.5l-115 50q-91 40 -91 126q0 64 84 131q-68 36 -68 112q0 69 53 106
t126 37q75 0 142 -21l-6 -64q-55 25 -121 25q-45 0 -82 -19.5t-37 -60.5q0 -19 5 -31.5t20 -24t25.5 -17t39.5 -19.5l95 -43q48 -23 71 -49.5t23 -73.5q0 -29 -11.5 -54t-22 -36.5t-38.5 -39.5q65 -42 65 -118q0 -73 -59.5 -114t-137.5 -41q-85 0 -166 28z" />
    <glyph glyph-name="dieresis" unicode="&#xa8;" horiz-adv-x="218" 
d="M220 609h-66v87h66v-87zM65 609h-66v87h66v-87z" />
    <glyph glyph-name="copyright" unicode="&#xa9;" horiz-adv-x="791" 
d="M262 16q-94 40 -152 126t-58 192q0 142 101 242.5t243 100.5t243 -100.5t101 -242.5q0 -143 -101 -244t-243 -101q-71 0 -134 27zM194 129q84 -86 202 -86q119 0 201.5 85.5t82.5 205.5q0 119 -83 204t-201 85t-201 -85t-83 -204q0 -120 82 -205zM522 206l4 -54
q-45 -19 -96 -19q-101 0 -160.5 54.5t-59.5 146.5q0 90 61.5 145.5t158.5 55.5q51 0 96 -17l-4 -54q-47 19 -88 19q-76 0 -119 -41t-43 -108q0 -68 42.5 -108.5t119.5 -40.5q37 0 88 21z" />
    <glyph glyph-name="ordfeminine" unicode="&#xaa;" horiz-adv-x="370" 
d="M242 513h-24q-121 0 -121 -58q0 -25 16.5 -37t41.5 -12q43 0 65 26.5t22 66.5v14zM303 366h-57l-3 49q-32 -56 -102 -56q-45 0 -73.5 23t-28.5 69q0 105 161 105h42v9q0 65 -75 65q-47 0 -90 -22l-4 50q43 19 99 19q127 0 127 -116v-126q0 -42 4 -69z" />
    <glyph glyph-name="guillemotleft" unicode="&#xab;" horiz-adv-x="438" 
d="M399 55h-66l-131 200l131 198h66l-126 -198zM227 55h-66l-131 200l131 198h66l-126 -198z" />
    <glyph glyph-name="logicalnot" unicode="&#xac;" horiz-adv-x="600" 
d="M489 309h-440v60h503v-250h-63v190z" />
    <glyph glyph-name="uni00AD" unicode="&#xad;" horiz-adv-x="320" 
d="M281 277h-242v66h242v-66z" />
    <glyph glyph-name="registered" unicode="&#xae;" horiz-adv-x="789" 
d="M261 16q-94 40 -152 126t-58 192q0 142 101 242.5t243 100.5t243 -100.5t101 -242.5q0 -143 -101 -244t-243 -101q-71 0 -134 27zM193 129q86 -86 202 -86q118 0 201 86t83 205t-83 204t-201 85t-201 -85t-83 -204q0 -120 82 -205zM322 145h-59v391h130q59 0 96.5 -25
t37.5 -78q0 -37 -28.5 -63t-69.5 -32q42 -9 61 -51l64 -142h-63l-54 122q-12 30 -28.5 40.5t-51.5 10.5h-35v-173zM322 488v-122h44q99 0 99 65q0 57 -100 57h-43z" />
    <glyph glyph-name="macron" unicode="&#xaf;" horiz-adv-x="218" 
d="M232 628h-245v51h245v-51z" />
    <glyph glyph-name="degree" unicode="&#xb0;" horiz-adv-x="400" 
d="M96 430q-44 41 -44 103t43.5 103t104.5 41t104.5 -41t43.5 -103t-43.5 -102t-104.5 -40q-60 0 -104 39zM110 496q12 -26 36.5 -41t53.5 -15q40 0 69 27t29 66q0 43 -27.5 69t-70.5 26t-70.5 -26t-27.5 -69q0 -19 8 -37z" />
    <glyph glyph-name="plusminus" unicode="&#xb1;" horiz-adv-x="600" 
d="M268 266h-219v60h219v175h65v-175h219v-60h-219v-174h-65v174zM552 -13h-503v60h503v-60z" />
    <glyph glyph-name="twosuperior" unicode="&#xb2;" horiz-adv-x="400" 
d="M328 369h-273v52l73 67q69 62 98 101.5t29 74.5q0 29 -23 45.5t-57 16.5q-50 0 -102 -25l-3 54q58 25 112 25q59 0 98.5 -28.5t39.5 -85.5q0 -47 -30.5 -90t-87.5 -95l-66 -60h192v-52z" />
    <glyph glyph-name="threesuperior" unicode="&#xb3;" horiz-adv-x="400" 
d="M55 377l3 53q42 -16 100 -16q46 0 77 19.5t31 56.5q0 35 -29.5 50.5t-73.5 15.5h-54v49h45q106 0 106 66q0 30 -28 44t-67 14q-54 0 -96 -18l-3 52q53 17 108 17q62 0 105.5 -24.5t43.5 -79.5q0 -73 -75 -93q36 -9 59.5 -33t23.5 -59q0 -64 -49.5 -96.5t-119.5 -32.5
q-59 0 -107 15z" />
    <glyph glyph-name="acute" unicode="&#xb4;" horiz-adv-x="218" 
d="M123 585h-61l72 136h85z" />
    <glyph glyph-name="mu" unicode="&#xb5;" 
d="M145 -216h-73v714h73v-296q0 -33 4 -57.5t15 -47t34 -34.5t57 -12q72 0 104 51t32 127v269h72v-381q0 -68 5 -117h-66l-4 86q-55 -96 -153 -96q-61 0 -100 39v-245z" />
    <glyph glyph-name="paragraph" unicode="&#xb6;" horiz-adv-x="541" 
d="M306 -108h-65v430q-82 0 -141.5 47t-59.5 126q0 94 61 137.5t159 43.5h238v-784h-66v729h-126v-729z" />
    <glyph glyph-name="periodcentered" unicode="&#xb7;" horiz-adv-x="271" 
d="M179 266h-86v88h86v-88z" />
    <glyph glyph-name="cedilla" unicode="&#xb8;" horiz-adv-x="218" 
d="M16 -161l13 35q39 -17 74 -17q22 0 36 9t14 25q0 29 -39 29q-19 0 -39 -7l-15 18l49 69h37l-39 -53q20 4 32 4q30 0 48 -15t18 -42q0 -34 -27.5 -54t-73.5 -20t-88 19z" />
    <glyph glyph-name="onesuperior" unicode="&#xb9;" horiz-adv-x="400" 
d="M258 369h-63v335l-85 -62l-29 45l123 87h54v-405z" />
    <glyph glyph-name="ordmasculine" unicode="&#xba;" horiz-adv-x="370" 
d="M116 444q25 -35 69 -35q46 0 68.5 31.5t22.5 77.5q0 44 -22.5 76.5t-66.5 32.5q-46 0 -68.5 -32t-22.5 -77q0 -42 20 -74zM185 359q-73 0 -113 44t-40 115q0 70 41.5 114.5t113.5 44.5t112 -43.5t40 -115.5q0 -70 -41 -114.5t-113 -44.5z" />
    <glyph glyph-name="guillemotright" unicode="&#xbb;" horiz-adv-x="438" 
d="M277 55h-65l125 199l-125 199h65l132 -199zM105 55h-65l125 199l-125 199h65l132 -199z" />
    <glyph glyph-name="onequarter" unicode="&#xbc;" horiz-adv-x="900" 
d="M671 343l-146 -203h146v203zM670 88h-199v59l189 258h71v-265h61v-52h-61v-88h-61v88zM248 265h-63v335l-85 -62l-29 45l123 87h54v-405zM226 -24h-59l424 715h59z" />
    <glyph glyph-name="onehalf" unicode="&#xbd;" horiz-adv-x="900" 
d="M226 265h-63v335l-85 -62l-29 45l123 87h54v-405zM796 0h-273v52l73 67q69 62 98 101.5t29 74.5q0 29 -23 45.5t-57 16.5q-50 0 -102 -25l-3 54q58 25 112 25q59 0 98.5 -28.5t39.5 -85.5q0 -47 -30.5 -90t-87.5 -95l-66 -60h192v-52zM206 -24h-59l424 715h59z" />
    <glyph glyph-name="threequarters" unicode="&#xbe;" horiz-adv-x="900" 
d="M744 343l-146 -203h146v203zM743 88h-199v59l189 258h71v-265h61v-52h-61v-88h-61v88zM60 273l3 53q42 -16 100 -16q46 0 77 19.5t31 56.5q0 35 -29.5 50.5t-73.5 15.5h-54v49h45q106 0 106 66q0 30 -28 44t-67 14q-54 0 -96 -18l-3 52q53 17 108 17q62 0 105.5 -24.5
t43.5 -79.5q0 -73 -75 -93q36 -9 59.5 -33t23.5 -59q0 -64 -49.5 -96.5t-119.5 -32.5q-59 0 -107 15zM299 -24h-59l424 715h59z" />
    <glyph glyph-name="questiondown" unicode="&#xbf;" horiz-adv-x="406" 
d="M283 409h-86v89h86v-89zM372 -86l6 -68q-78 -25 -148 -25q-84 0 -138 44t-54 125q0 43 17 78.5t42 61t49.5 51t41.5 59.5t17 75v15h70v-13q0 -47 -16 -85t-39 -62.5t-46 -48t-39 -56t-16 -71.5q0 -50 33 -78t85 -28q60 0 135 26z" />
    <glyph glyph-name="Agrave" unicode="&#xc0;" horiz-adv-x="634" 
d="M81 0h-77l266 667h93l267 -667h-82l-69 181h-327zM316 603l-141 -358h280zM359 724h-59l-97 136h85z" />
    <glyph glyph-name="Aacute" unicode="&#xc1;" horiz-adv-x="634" 
d="M81 0h-77l266 667h93l267 -667h-82l-69 181h-327zM316 603l-141 -358h280zM336 724h-61l72 136h85z" />
    <glyph glyph-name="Acircumflex" unicode="&#xc2;" horiz-adv-x="634" 
d="M81 0h-77l266 667h93l267 -667h-82l-69 181h-327zM316 603l-141 -358h280zM242 724h-65l103 136h74l103 -136h-65l-75 96z" />
    <glyph glyph-name="Atilde" unicode="&#xc3;" horiz-adv-x="634" 
d="M81 0h-77l266 667h93l267 -667h-82l-69 181h-327zM316 603l-141 -358h280zM219 738h-48q0 38 24.5 69t64.5 31q26 0 64.5 -20.5t52.5 -20.5q17 0 28 14.5t11 30.5h47q0 -35 -24 -67t-61 -32q-26 0 -62 20t-54 20q-17 0 -30 -14.5t-13 -30.5z" />
    <glyph glyph-name="Adieresis" unicode="&#xc4;" horiz-adv-x="634" 
d="M81 0h-77l266 667h93l267 -667h-82l-69 181h-327zM316 603l-141 -358h280zM273 748h-66v87h66v-87zM428 748h-66v87h66v-87z" />
    <glyph glyph-name="Aring" unicode="&#xc5;" horiz-adv-x="634" 
d="M81 0h-77l266 667h93l267 -667h-82l-69 181h-327zM316 603l-141 -358h280zM256 792q0 -25 17.5 -42t41.5 -17q25 0 42.5 17t17.5 42q0 24 -17.5 41t-42.5 17t-42 -17t-17 -41zM278 706q-26 11 -42 34t-16 52q0 39 28 65.5t67 26.5t67.5 -26.5t28.5 -65.5t-28.5 -66
t-67.5 -27q-22 0 -37 7z" />
    <glyph glyph-name="AE" unicode="&#xc6;" horiz-adv-x="854" 
d="M82 0h-86l418 667h382v-65h-261v-229h247v-62h-247v-246h273v-65h-351v181h-264zM457 612l-227 -367h227v367z" />
    <glyph glyph-name="Ccedilla" unicode="&#xc7;" horiz-adv-x="589" 
d="M259 -161l13 35q39 -17 74 -17q22 0 36 9t14 25q0 29 -39 29q-19 0 -39 -7l-15 18l43 61q-137 14 -216 105.5t-79 235.5q0 150 96 247t247 97q97 0 157 -26l-6 -71q-62 29 -147 29q-121 0 -192.5 -77.5t-71.5 -198.5q0 -125 69.5 -200.5t193.5 -75.5q91 0 150 29l6 -67
q-57 -30 -159 -30h-13l-31 -42q20 4 32 4q30 0 48 -15t18 -42q0 -34 -27.5 -54t-73.5 -20t-88 19z" />
    <glyph glyph-name="Egrave" unicode="&#xc8;" horiz-adv-x="486" 
d="M440 0h-355v667h344v-65h-265v-228h252v-63h-252v-246h276v-65zM306 724h-59l-97 136h85z" />
    <glyph glyph-name="Eacute" unicode="&#xc9;" horiz-adv-x="486" 
d="M440 0h-355v667h344v-65h-265v-228h252v-63h-252v-246h276v-65zM269 724h-61l72 136h85z" />
    <glyph glyph-name="Ecircumflex" unicode="&#xca;" horiz-adv-x="486" 
d="M440 0h-355v667h344v-65h-265v-228h252v-63h-252v-246h276v-65zM180 724h-65l103 136h74l103 -136h-65l-75 96z" />
    <glyph glyph-name="Edieresis" unicode="&#xcb;" horiz-adv-x="486" 
d="M440 0h-355v667h344v-65h-265v-228h252v-63h-252v-246h276v-65zM214 748h-66v87h66v-87zM369 748h-66v87h66v-87z" />
    <glyph glyph-name="Igrave" unicode="&#xcc;" horiz-adv-x="248" 
d="M164 0h-79v667h79v-667zM169 724h-59l-97 136h85z" />
    <glyph glyph-name="Iacute" unicode="&#xcd;" horiz-adv-x="248" 
d="M164 0h-79v667h79v-667zM141 724h-61l72 136h85z" />
    <glyph glyph-name="Icircumflex" unicode="&#xce;" horiz-adv-x="248" 
d="M164 0h-79v667h79v-667zM49 724h-65l103 136h74l103 -136h-65l-75 96z" />
    <glyph glyph-name="Idieresis" unicode="&#xcf;" horiz-adv-x="248" 
d="M164 0h-79v667h79v-667zM80 748h-66v87h66v-87zM235 748h-66v87h66v-87z" />
    <glyph glyph-name="Eth" unicode="&#xd0;" horiz-adv-x="651" 
d="M164 305v-240h56q301 0 301 278q0 125 -69 192t-196 67h-92v-237h176v-60h-176zM222 0h-137v305h-74v60h74v302h174q163 0 254 -82t91 -242q0 -170 -104 -256.5t-278 -86.5z" />
    <glyph glyph-name="Ntilde" unicode="&#xd1;" horiz-adv-x="676" 
d="M159 0h-74v667h111l321 -585v585h74v-667h-111l-321 585v-585zM249 738h-48q0 38 24.5 69t64.5 31q26 0 64.5 -20.5t52.5 -20.5q17 0 28 14.5t11 30.5h47q0 -35 -24 -67t-61 -32q-26 0 -62 20t-54 20q-17 0 -30 -14.5t-13 -30.5z" />
    <glyph glyph-name="Ograve" unicode="&#xd2;" horiz-adv-x="701" 
d="M217 16q-82 40 -124 123t-42 194q0 95 32 171t101.5 124.5t166.5 48.5q147 0 223.5 -97t76.5 -247q0 -147 -78 -245.5t-222 -98.5q-77 0 -134 27zM185 144q60 -89 166 -89q74 0 124.5 42.5t71 103t20.5 132.5t-20.5 132.5t-71 103t-124.5 42.5q-55 0 -98 -24.5t-68 -65
t-38 -88.5t-13 -100q0 -112 51 -189zM387 724h-59l-97 136h85z" />
    <glyph glyph-name="Oacute" unicode="&#xd3;" horiz-adv-x="701" 
d="M217 16q-82 40 -124 123t-42 194q0 95 32 171t101.5 124.5t166.5 48.5q147 0 223.5 -97t76.5 -247q0 -147 -78 -245.5t-222 -98.5q-77 0 -134 27zM185 144q60 -89 166 -89q74 0 124.5 42.5t71 103t20.5 132.5t-20.5 132.5t-71 103t-124.5 42.5q-55 0 -98 -24.5t-68 -65
t-38 -88.5t-13 -100q0 -112 51 -189zM374 724h-61l72 136h85z" />
    <glyph glyph-name="Ocircumflex" unicode="&#xd4;" horiz-adv-x="701" 
d="M217 16q-82 40 -124 123t-42 194q0 95 32 171t101.5 124.5t166.5 48.5q147 0 223.5 -97t76.5 -247q0 -147 -78 -245.5t-222 -98.5q-77 0 -134 27zM185 144q60 -89 166 -89q74 0 124.5 42.5t71 103t20.5 132.5t-20.5 132.5t-71 103t-124.5 42.5q-55 0 -98 -24.5t-68 -65
t-38 -88.5t-13 -100q0 -112 51 -189zM275 724h-65l103 136h74l103 -136h-65l-75 96z" />
    <glyph glyph-name="Otilde" unicode="&#xd5;" horiz-adv-x="701" 
d="M217 16q-82 40 -124 123t-42 194q0 95 32 171t101.5 124.5t166.5 48.5q147 0 223.5 -97t76.5 -247q0 -147 -78 -245.5t-222 -98.5q-77 0 -134 27zM185 144q60 -89 166 -89q74 0 124.5 42.5t71 103t20.5 132.5t-20.5 132.5t-71 103t-124.5 42.5q-55 0 -98 -24.5t-68 -65
t-38 -88.5t-13 -100q0 -112 51 -189zM252 738h-48q0 38 24.5 69t64.5 31q26 0 64.5 -20.5t52.5 -20.5q17 0 28 14.5t11 30.5h47q0 -35 -24 -67t-61 -32q-27 0 -63 20t-53 20t-30 -14.5t-13 -30.5z" />
    <glyph glyph-name="Odieresis" unicode="&#xd6;" horiz-adv-x="701" 
d="M217 16q-82 40 -124 123t-42 194q0 95 32 171t101.5 124.5t166.5 48.5q147 0 223.5 -97t76.5 -247q0 -147 -78 -245.5t-222 -98.5q-77 0 -134 27zM185 144q60 -89 166 -89q74 0 124.5 42.5t71 103t20.5 132.5t-20.5 132.5t-71 103t-124.5 42.5q-55 0 -98 -24.5t-68 -65
t-38 -88.5t-13 -100q0 -112 51 -189zM306 748h-66v87h66v-87zM461 748h-66v87h66v-87z" />
    <glyph glyph-name="multiply" unicode="&#xd7;" 
d="M79 8l-45 44l193 192l-193 193l44 45l193 -194l193 193l45 -44l-193 -193l193 -192l-45 -45l-192 194z" />
    <glyph glyph-name="Oslash" unicode="&#xd8;" horiz-adv-x="701" 
d="M74 -25l-39 35l80 93q-62 88 -62 230q0 95 32 171t101.5 124.5t166.5 48.5q123 0 200 -72l74 86l40 -35l-78 -90q64 -89 64 -233q0 -147 -78 -245.5t-222 -98.5q-127 0 -203 74zM176 169l325 378q-57 64 -148 64q-55 0 -98 -24.5t-68 -65t-38 -88.5t-13 -100
q0 -93 40 -164zM529 500l-325 -377q60 -68 149 -68q74 0 124.5 42.5t71 103t20.5 132.5q0 98 -40 167z" />
    <glyph glyph-name="Ugrave" unicode="&#xd9;" horiz-adv-x="650" 
d="M156 667v-431q0 -82 44 -130.5t125 -48.5q82 0 126 48.5t44 130.5v431h79v-431q0 -114 -67.5 -180.5t-181.5 -66.5q-115 0 -181.5 65.5t-66.5 180.5v432h79zM374 724h-59l-97 136h85z" />
    <glyph glyph-name="Uacute" unicode="&#xda;" horiz-adv-x="650" 
d="M156 667v-431q0 -82 44 -130.5t125 -48.5q82 0 126 48.5t44 130.5v431h79v-431q0 -114 -67.5 -180.5t-181.5 -66.5q-115 0 -181.5 65.5t-66.5 180.5v432h79zM336 724h-61l72 136h85z" />
    <glyph glyph-name="Ucircumflex" unicode="&#xdb;" horiz-adv-x="650" 
d="M156 667v-431q0 -82 44 -130.5t125 -48.5q82 0 126 48.5t44 130.5v431h79v-431q0 -114 -67.5 -180.5t-181.5 -66.5q-115 0 -181.5 65.5t-66.5 180.5v432h79zM250 724h-65l103 136h74l103 -136h-65l-75 96z" />
    <glyph glyph-name="Udieresis" unicode="&#xdc;" horiz-adv-x="650" 
d="M156 667v-431q0 -82 44 -130.5t125 -48.5q82 0 126 48.5t44 130.5v431h79v-431q0 -114 -67.5 -180.5t-181.5 -66.5q-115 0 -181.5 65.5t-66.5 180.5v432h79zM281 748h-66v87h66v-87zM436 748h-66v87h66v-87z" />
    <glyph glyph-name="Yacute" unicode="&#xdd;" horiz-adv-x="576" 
d="M327 0h-79v278l-246 389h88l200 -325l200 325h85l-248 -389v-278zM308 724h-61l72 136h85z" />
    <glyph glyph-name="Thorn" unicode="&#xde;" horiz-adv-x="508" 
d="M164 0h-79v667h79v-135h103q94 0 153.5 -50t59.5 -141q0 -95 -63.5 -145t-155.5 -50h-97v-146zM163 468v-258h51q41 0 69.5 4.5t57 17t43 39.5t14.5 69q0 62 -37.5 95t-99.5 33h-98z" />
    <glyph glyph-name="germandbls" unicode="&#xdf;" horiz-adv-x="550" 
d="M146 0h-73v487q0 103 56.5 173.5t166.5 70.5q188 0 188 -194q0 -39 -6 -73q-37 0 -62 -2.5t-50 -10.5t-38 -26t-13 -45q0 -25 21 -45.5t50.5 -37t59.5 -36t51 -52.5t21 -76q0 -73 -48.5 -108.5t-118.5 -35.5q-58 0 -115 20l6 65q54 -26 109 -26q41 0 66.5 21t25.5 62
q0 33 -20.5 57t-50 40t-59 33.5t-50 46.5t-20.5 69q0 129 167 138q3 9 3 34q0 56 -28.5 89t-88.5 33q-43 0 -74 -16.5t-46.5 -44.5t-22.5 -58t-7 -65v-487z" />
    <glyph glyph-name="agrave" unicode="&#xe0;" horiz-adv-x="493" 
d="M348 250h-37q-42 0 -72 -3.5t-62.5 -13.5t-50 -33.5t-17.5 -59.5q0 -47 27.5 -69.5t68.5 -22.5q74 0 108.5 48t34.5 124v30zM426 0h-71l-3 80q-21 -46 -62.5 -68.5t-92.5 -22.5q-71 0 -117 38t-46 110q0 166 258 166h56v24q0 123 -112 123q-76 0 -141 -42l-6 65
q72 35 150 35q93 0 137 -46t44 -140v-216q0 -64 6 -106zM284 585h-59l-97 136h85z" />
    <glyph glyph-name="aacute" unicode="&#xe1;" horiz-adv-x="493" 
d="M348 250h-37q-42 0 -72 -3.5t-62.5 -13.5t-50 -33.5t-17.5 -59.5q0 -47 27.5 -69.5t68.5 -22.5q74 0 108.5 48t34.5 124v30zM426 0h-71l-3 80q-21 -46 -62.5 -68.5t-92.5 -22.5q-71 0 -117 38t-46 110q0 166 258 166h56v24q0 123 -112 123q-76 0 -141 -42l-6 65
q72 35 150 35q93 0 137 -46t44 -140v-216q0 -64 6 -106zM257 586h-61l72 136h85z" />
    <glyph glyph-name="acircumflex" unicode="&#xe2;" horiz-adv-x="493" 
d="M348 250h-37q-42 0 -72 -3.5t-62.5 -13.5t-50 -33.5t-17.5 -59.5q0 -47 27.5 -69.5t68.5 -22.5q74 0 108.5 48t34.5 124v30zM426 0h-71l-3 80q-21 -46 -62.5 -68.5t-92.5 -22.5q-71 0 -117 38t-46 110q0 166 258 166h56v24q0 123 -112 123q-76 0 -141 -42l-6 65
q72 35 150 35q93 0 137 -46t44 -140v-216q0 -64 6 -106zM168 585h-65l103 136h74l103 -136h-65l-75 96z" />
    <glyph glyph-name="atilde" unicode="&#xe3;" horiz-adv-x="493" 
d="M348 250h-37q-42 0 -72 -3.5t-62.5 -13.5t-50 -33.5t-17.5 -59.5q0 -47 27.5 -69.5t68.5 -22.5q74 0 108.5 48t34.5 124v30zM426 0h-71l-3 80q-21 -46 -62.5 -68.5t-92.5 -22.5q-71 0 -117 38t-46 110q0 166 258 166h56v24q0 123 -112 123q-76 0 -141 -42l-6 65
q72 35 150 35q93 0 137 -46t44 -140v-216q0 -64 6 -106zM150 599h-48q0 38 24.5 69t64.5 31q26 0 64.5 -20.5t52.5 -20.5q17 0 28 14.5t11 30.5h47q0 -35 -24 -67t-61 -32q-27 0 -63 20t-53 20t-30 -14.5t-13 -30.5z" />
    <glyph glyph-name="adieresis" unicode="&#xe4;" horiz-adv-x="493" 
d="M348 250h-37q-42 0 -72 -3.5t-62.5 -13.5t-50 -33.5t-17.5 -59.5q0 -47 27.5 -69.5t68.5 -22.5q74 0 108.5 48t34.5 124v30zM426 0h-71l-3 80q-21 -46 -62.5 -68.5t-92.5 -22.5q-71 0 -117 38t-46 110q0 166 258 166h56v24q0 123 -112 123q-76 0 -141 -42l-6 65
q72 35 150 35q93 0 137 -46t44 -140v-216q0 -64 6 -106zM353 609h-66v87h66v-87zM198 609h-66v87h66v-87z" />
    <glyph glyph-name="aring" unicode="&#xe5;" horiz-adv-x="493" 
d="M348 250h-37q-42 0 -72 -3.5t-62.5 -13.5t-50 -33.5t-17.5 -59.5q0 -47 27.5 -69.5t68.5 -22.5q74 0 108.5 48t34.5 124v30zM426 0h-71l-3 80q-21 -46 -62.5 -68.5t-92.5 -22.5q-71 0 -117 38t-46 110q0 166 258 166h56v24q0 123 -112 123q-76 0 -141 -42l-6 65
q72 35 150 35q93 0 137 -46t44 -140v-216q0 -64 6 -106zM202 567q-26 11 -42 34t-16 52q0 39 28 65.5t67 26.5t67.5 -26.5t28.5 -65.5t-28.5 -66t-67.5 -27q-22 0 -37 7zM180 653q0 -25 17.5 -42t41.5 -17q25 0 42.5 17t17.5 42q0 24 -17.5 41t-42.5 17t-42 -17t-17 -41z
" />
    <glyph glyph-name="ae" unicode="&#xe6;" horiz-adv-x="790" 
d="M415 294h265q-11 156 -123 156q-66 0 -102.5 -47.5t-39.5 -108.5zM94 408l-6 65q75 35 150 35q121 0 157 -87q27 41 69.5 64t91.5 23q195 0 195 -256v-12h-336q0 -81 41.5 -136.5t129.5 -55.5q74 0 133 38l3 -65q-67 -32 -136 -32q-70 0 -125 27.5t-80 80.5
q-27 -51 -75 -79.5t-110 -28.5q-67 0 -114.5 34.5t-47.5 107.5q0 163 272 163h41v33q0 123 -111 123q-78 0 -142 -42zM347 240h-16q-50 0 -85.5 -3.5t-69 -14t-50.5 -32.5t-17 -56q0 -47 29 -66.5t66 -19.5q72 0 107.5 45.5t35.5 118.5v28z" />
    <glyph glyph-name="ccedilla" unicode="&#xe7;" horiz-adv-x="443" 
d="M171 -161l13 35q39 -17 74 -17q22 0 36 9t14 25q0 29 -39 29q-19 0 -39 -7l-15 18l42 59q-101 8 -157.5 81t-56.5 180q0 113 66.5 185t178.5 72q59 0 122 -21l-6 -65q-53 25 -104 25q-87 0 -133 -54t-46 -142q0 -84 46 -142.5t128 -58.5q56 0 110 23l5 -65
q-59 -18 -117 -19l-31 -42q20 4 32 4q30 0 48 -15t18 -42q0 -34 -27.5 -54t-73.5 -20t-88 19z" />
    <glyph glyph-name="egrave" unicode="&#xe8;" horiz-adv-x="491" 
d="M117 294h274q-2 29 -8.5 53.5t-20 49.5t-38.5 39t-60 14q-66 0 -105 -48t-42 -108zM462 240h-345q0 -80 44 -136t132 -56q78 0 137 38l3 -65q-66 -32 -140 -32q-124 0 -188 72.5t-64 189.5q0 104 58.5 180.5t163.5 76.5q56 0 96 -21t62 -58t31.5 -80.5t9.5 -96.5v-12z
M297 585h-59l-97 136h85z" />
    <glyph glyph-name="eacute" unicode="&#xe9;" horiz-adv-x="491" 
d="M117 294h274q-2 29 -8.5 53.5t-20 49.5t-38.5 39t-60 14q-66 0 -105 -48t-42 -108zM462 240h-345q0 -80 44 -136t132 -56q78 0 137 38l3 -65q-66 -32 -140 -32q-124 0 -188 72.5t-64 189.5q0 104 58.5 180.5t163.5 76.5q56 0 96 -21t62 -58t31.5 -80.5t9.5 -96.5v-12z
M269 585h-61l72 136h85z" />
    <glyph glyph-name="ecircumflex" unicode="&#xea;" horiz-adv-x="491" 
d="M117 294h274q-2 29 -8.5 53.5t-20 49.5t-38.5 39t-60 14q-66 0 -105 -48t-42 -108zM462 240h-345q0 -80 44 -136t132 -56q78 0 137 38l3 -65q-66 -32 -140 -32q-124 0 -188 72.5t-64 189.5q0 104 58.5 180.5t163.5 76.5q56 0 96 -21t62 -58t31.5 -80.5t9.5 -96.5v-12z
M178 585h-65l103 136h74l103 -136h-65l-75 96z" />
    <glyph glyph-name="edieresis" unicode="&#xeb;" horiz-adv-x="491" 
d="M117 294h274q-2 29 -8.5 53.5t-20 49.5t-38.5 39t-60 14q-66 0 -105 -48t-42 -108zM462 240h-345q0 -80 44 -136t132 -56q78 0 137 38l3 -65q-66 -32 -140 -32q-124 0 -188 72.5t-64 189.5q0 104 58.5 180.5t163.5 76.5q56 0 96 -21t62 -58t31.5 -80.5t9.5 -96.5v-12z
M364 609h-66v87h66v-87zM209 609h-66v87h66v-87z" />
    <glyph glyph-name="igrave" unicode="&#xec;" horiz-adv-x="218" 
d="M146 0h-73v498h73v-498zM154 585h-59l-97 136h85z" />
    <glyph glyph-name="iacute" unicode="&#xed;" horiz-adv-x="218" 
d="M146 0h-73v498h73v-498zM123 585h-61l72 136h85z" />
    <glyph glyph-name="icircumflex" unicode="&#xee;" horiz-adv-x="218" 
d="M146 0h-73v498h73v-498zM34 585h-65l103 136h74l103 -136h-65l-75 96z" />
    <glyph glyph-name="idieresis" unicode="&#xef;" horiz-adv-x="218" 
d="M146 0h-73v498h73v-498zM220 609h-66v87h66v-87zM65 609h-66v87h66v-87z" />
    <glyph glyph-name="eth" unicode="&#xf0;" horiz-adv-x="551" 
d="M313 604l-108 -64l-32 41l93 55q-50 33 -129 50l34 45q78 -11 152 -60l101 60l32 -41l-85 -51q138 -125 138 -357q0 -129 -59 -211t-175 -82q-111 0 -171.5 71t-60.5 184q0 110 60 181t168 71q94 0 155 -76q-28 117 -113 184zM158 110q42 -60 118 -60q77 0 116 56.5
t39 137.5q0 82 -38 136.5t-117 54.5q-77 0 -116 -55.5t-39 -135.5q0 -81 37 -134z" />
    <glyph glyph-name="ntilde" unicode="&#xf1;" horiz-adv-x="539" 
d="M146 0h-73v381q0 68 -5 117h67l3 -86q52 96 161 96q167 0 167 -199v-309h-72v295q0 70 -23 110.5t-89 40.5q-72 0 -104 -51t-32 -127v-268zM174 599h-48q0 38 24.5 69t64.5 31q26 0 64.5 -20.5t52.5 -20.5q17 0 28 14.5t11 30.5h47q0 -35 -24 -67t-61 -32q-27 0 -63 20
t-53 20t-30 -14.5t-13 -30.5z" />
    <glyph glyph-name="ograve" unicode="&#xf2;" horiz-adv-x="551" 
d="M174 9q-64 31 -97.5 94.5t-33.5 147.5q0 111 62.5 184t170.5 73q113 0 173 -71t60 -186q0 -113 -61 -187.5t-172 -74.5q-57 0 -102 20zM157 114q43 -64 119 -64t115.5 60t39.5 141q0 83 -38.5 139.5t-116.5 56.5q-77 0 -116 -58t-39 -138q0 -81 36 -137zM319 585h-59
l-97 136h85z" />
    <glyph glyph-name="oacute" unicode="&#xf3;" horiz-adv-x="551" 
d="M174 9q-64 31 -97.5 94.5t-33.5 147.5q0 111 62.5 184t170.5 73q113 0 173 -71t60 -186q0 -113 -61 -187.5t-172 -74.5q-57 0 -102 20zM157 114q43 -64 119 -64t115.5 60t39.5 141q0 83 -38.5 139.5t-116.5 56.5q-77 0 -116 -58t-39 -138q0 -81 36 -137zM291 585h-61
l72 136h85z" />
    <glyph glyph-name="ocircumflex" unicode="&#xf4;" horiz-adv-x="551" 
d="M174 9q-64 31 -97.5 94.5t-33.5 147.5q0 111 62.5 184t170.5 73q113 0 173 -71t60 -186q0 -113 -61 -187.5t-172 -74.5q-57 0 -102 20zM157 114q43 -64 119 -64t115.5 60t39.5 141q0 83 -38.5 139.5t-116.5 56.5q-77 0 -116 -58t-39 -138q0 -81 36 -137zM200 585h-65
l103 136h74l103 -136h-65l-75 96z" />
    <glyph glyph-name="otilde" unicode="&#xf5;" horiz-adv-x="551" 
d="M174 9q-64 31 -97.5 94.5t-33.5 147.5q0 111 62.5 184t170.5 73q113 0 173 -71t60 -186q0 -113 -61 -187.5t-172 -74.5q-57 0 -102 20zM157 114q43 -64 119 -64t115.5 60t39.5 141q0 83 -38.5 139.5t-116.5 56.5q-77 0 -116 -58t-39 -138q0 -81 36 -137zM177 599h-48
q0 38 24.5 69t64.5 31q26 0 64.5 -20.5t52.5 -20.5q17 0 28 14.5t11 30.5h47q0 -35 -24 -67t-61 -32q-26 0 -62 20t-54 20q-17 0 -30 -14.5t-13 -30.5z" />
    <glyph glyph-name="odieresis" unicode="&#xf6;" horiz-adv-x="551" 
d="M174 9q-64 31 -97.5 94.5t-33.5 147.5q0 111 62.5 184t170.5 73q113 0 173 -71t60 -186q0 -113 -61 -187.5t-172 -74.5q-57 0 -102 20zM157 114q43 -64 119 -64t115.5 60t39.5 141q0 83 -38.5 139.5t-116.5 56.5q-77 0 -116 -58t-39 -138q0 -81 36 -137zM386 609h-66v87
h66v-87zM231 609h-66v87h66v-87z" />
    <glyph glyph-name="divide" unicode="&#xf7;" 
d="M271 372q-21 0 -36 15t-15 37t14.5 37.5t36.5 15.5t37 -15.5t15 -37.5t-15 -37t-37 -15zM523 214h-503v60h503v-60zM271 11q-22 0 -36.5 15.5t-14.5 37.5t15 37t36 15q22 0 37 -15t15 -37t-15 -37.5t-37 -15.5z" />
    <glyph glyph-name="oslash" unicode="&#xf8;" horiz-adv-x="551" 
d="M407 368l-235 -271q39 -47 105 -47q76 0 115.5 59.5t39.5 141.5q0 74 -25 117zM149 133l233 272q-37 42 -105 42q-77 0 -116 -58t-39 -138q0 -76 27 -118zM64 -28l-37 27l67 77q-50 67 -50 175q0 112 61.5 184.5t171.5 72.5q92 0 152 -51l59 68l37 -27l-64 -74
q49 -67 49 -173q0 -113 -61 -187.5t-172 -74.5q-91 0 -152 54z" />
    <glyph glyph-name="ugrave" unicode="&#xf9;" horiz-adv-x="535" 
d="M144 498v-295q0 -33 4 -57.5t15 -47t34 -34.5t57 -12q72 0 104 51t32 127v268h72v-381q0 -68 5 -117h-67l-2 86q-53 -97 -161 -97q-166 0 -166 201v308h73zM312 585h-59l-97 136h85z" />
    <glyph glyph-name="uacute" unicode="&#xfa;" horiz-adv-x="535" 
d="M144 498v-295q0 -33 4 -57.5t15 -47t34 -34.5t57 -12q72 0 104 51t32 127v268h72v-381q0 -68 5 -117h-67l-2 86q-53 -97 -161 -97q-166 0 -166 201v308h73zM284 585h-61l72 136h85z" />
    <glyph glyph-name="ucircumflex" unicode="&#xfb;" horiz-adv-x="535" 
d="M144 498v-295q0 -33 4 -57.5t15 -47t34 -34.5t57 -12q72 0 104 51t32 127v268h72v-381q0 -68 5 -117h-67l-2 86q-53 -97 -161 -97q-166 0 -166 201v308h73zM193 585h-65l103 136h74l103 -136h-65l-75 96z" />
    <glyph glyph-name="udieresis" unicode="&#xfc;" horiz-adv-x="535" 
d="M144 498v-295q0 -33 4 -57.5t15 -47t34 -34.5t57 -12q72 0 104 51t32 127v268h72v-381q0 -68 5 -117h-67l-2 86q-53 -97 -161 -97q-166 0 -166 201v308h73zM378 609h-66v87h66v-87zM223 609h-66v87h66v-87z" />
    <glyph glyph-name="yacute" unicode="&#xfd;" horiz-adv-x="444" 
d="M31 -219l6 63q27 -9 45 -9q57 0 93 115l10 33l-173 515h79l134 -429l133 429h76l-200 -585q-49 -140 -143 -140q-23 0 -60 8zM252 585h-61l72 136h85z" />
    <glyph glyph-name="thorn" unicode="&#xfe;" horiz-adv-x="543" 
d="M146 -216h-73v937h73v-307q18 43 61 68.5t92 25.5q55 0 95.5 -21t63 -58.5t33 -81.5t10.5 -96q0 -50 -11.5 -95t-34.5 -83.5t-63.5 -61t-93.5 -22.5q-50 0 -92 24.5t-60 67.5v-297zM173 118q40 -67 111 -67q40 0 68 18t42.5 48.5t21 63t6.5 70.5q0 195 -138 195
q-71 0 -106 -59t-35 -136q0 -76 30 -133z" />
    <glyph glyph-name="ydieresis" unicode="&#xff;" horiz-adv-x="444" 
d="M31 -219l6 63q27 -9 45 -9q57 0 93 115l10 33l-173 515h79l134 -429l133 429h76l-200 -585q-49 -140 -143 -140q-23 0 -60 8zM337 609h-66v87h66v-87zM182 609h-66v87h66v-87z" />
    <glyph glyph-name="Amacron" unicode="&#x100;" horiz-adv-x="634" 
d="M81 0h-77l266 667h93l267 -667h-82l-69 181h-327zM316 603l-141 -358h280zM440 767h-245v51h245v-51z" />
    <glyph glyph-name="amacron" unicode="&#x101;" horiz-adv-x="493" 
d="M365 628h-245v51h245v-51zM348 250h-37q-42 0 -72 -3.5t-62.5 -13.5t-50 -33.5t-17.5 -59.5q0 -47 27.5 -69.5t68.5 -22.5q74 0 108.5 48t34.5 124v30zM426 0h-71l-3 80q-21 -46 -62.5 -68.5t-92.5 -22.5q-71 0 -117 38t-46 110q0 166 258 166h56v24q0 123 -112 123
q-76 0 -141 -42l-6 65q72 35 150 35q93 0 137 -46t44 -140v-216q0 -64 6 -106z" />
    <glyph glyph-name="Abreve" unicode="&#x102;" horiz-adv-x="634" 
d="M81 0h-77l266 667h93l267 -667h-82l-69 181h-327zM316 603l-141 -358h280zM197 849h43q3 -31 23 -51t53 -20t53 20t24 51h43q0 -19 -8.5 -43.5t-37.5 -49t-74 -24.5q-44 0 -73 24.5t-37.5 49t-8.5 43.5z" />
    <glyph glyph-name="abreve" unicode="&#x103;" horiz-adv-x="493" 
d="M348 250h-37q-42 0 -72 -3.5t-62.5 -13.5t-50 -33.5t-17.5 -59.5q0 -47 27.5 -69.5t68.5 -22.5q74 0 108.5 48t34.5 124v30zM426 0h-71l-3 80q-21 -46 -62.5 -68.5t-92.5 -22.5q-71 0 -117 38t-46 110q0 166 258 166h56v24q0 123 -112 123q-76 0 -141 -42l-6 65
q72 35 150 35q93 0 137 -46t44 -140v-216q0 -64 6 -106zM123 710h43q3 -31 23 -51t53 -20t53 20t24 51h43q0 -19 -8.5 -43.5t-37.5 -49t-74 -24.5q-44 0 -73 24.5t-37.5 49t-8.5 43.5z" />
    <glyph glyph-name="Aogonek" unicode="&#x104;" horiz-adv-x="634" 
d="M316 603l-141 -358h280zM81 0h-77l266 667h93l267 -667h-26q-73 -42 -73 -93q0 -24 14.5 -35.5t34.5 -11.5q28 0 59 15l11 -35q-40 -20 -81 -20t-66.5 22t-25.5 54q0 70 79 104h-8l-69 181h-327z" />
    <glyph glyph-name="aogonek" unicode="&#x105;" horiz-adv-x="493" 
d="M348 250h-37q-42 0 -72 -3.5t-62.5 -13.5t-50 -33.5t-17.5 -59.5q0 -47 27.5 -69.5t68.5 -22.5q74 0 108.5 48t34.5 124v30zM448 -125l11 -35q-40 -20 -81 -20t-66.5 22t-25.5 54q0 68 82 104h-13l-3 80q-21 -46 -62.5 -68.5t-92.5 -22.5q-71 0 -117 38t-46 110
q0 166 258 166h56v24q0 123 -112 123q-76 0 -141 -42l-6 65q72 35 150 35q93 0 137 -46t44 -140v-216q0 -64 6 -106h-13q-73 -45 -73 -93q0 -24 14.5 -35.5t34.5 -11.5q28 0 59 15z" />
    <glyph glyph-name="Cacute" unicode="&#x106;" horiz-adv-x="589" 
d="M547 86l6 -67q-57 -30 -159 -30q-158 0 -250.5 93.5t-92.5 250.5q0 150 96 247t247 97q97 0 157 -26l-6 -71q-62 29 -147 29q-121 0 -192.5 -77.5t-71.5 -198.5q0 -125 69.5 -200.5t193.5 -75.5q91 0 150 29zM395 724h-61l72 136h85z" />
    <glyph glyph-name="cacute" unicode="&#x107;" horiz-adv-x="443" 
d="M405 73l5 -65q-54 -19 -129 -19q-111 0 -174.5 74.5t-63.5 187.5t66.5 185t178.5 72q59 0 122 -21l-6 -65q-53 25 -104 25q-87 0 -133 -54t-46 -142q0 -84 46 -142.5t128 -58.5q56 0 110 23zM288 585h-61l72 136h85z" />
    <glyph glyph-name="Ccircumflex" unicode="&#x108;" horiz-adv-x="589" 
d="M547 86l6 -67q-57 -30 -159 -30q-158 0 -250.5 93.5t-92.5 250.5q0 150 96 247t247 97q97 0 157 -26l-6 -71q-62 29 -147 29q-121 0 -192.5 -77.5t-71.5 -198.5q0 -125 69.5 -200.5t193.5 -75.5q91 0 150 29zM298 724h-65l103 136h74l103 -136h-65l-75 96z" />
    <glyph glyph-name="ccircumflex" unicode="&#x109;" horiz-adv-x="443" 
d="M405 73l5 -65q-54 -19 -129 -19q-111 0 -174.5 74.5t-63.5 187.5t66.5 185t178.5 72q59 0 122 -21l-6 -65q-53 25 -104 25q-87 0 -133 -54t-46 -142q0 -84 46 -142.5t128 -58.5q56 0 110 23zM199 585h-65l103 136h74l103 -136h-65l-75 96z" />
    <glyph glyph-name="Cdotaccent" unicode="&#x10a;" horiz-adv-x="589" 
d="M547 86l6 -67q-57 -30 -159 -30q-158 0 -250.5 93.5t-92.5 250.5q0 150 96 247t247 97q97 0 157 -26l-6 -71q-62 29 -147 29q-121 0 -192.5 -77.5t-71.5 -198.5q0 -125 69.5 -200.5t193.5 -75.5q91 0 150 29zM412 748h-73v87h73v-87z" />
    <glyph glyph-name="cdotaccent" unicode="&#x10b;" horiz-adv-x="443" 
d="M405 73l5 -65q-54 -19 -129 -19q-111 0 -174.5 74.5t-63.5 187.5t66.5 185t178.5 72q59 0 122 -21l-6 -65q-53 25 -104 25q-87 0 -133 -54t-46 -142q0 -84 46 -142.5t128 -58.5q56 0 110 23zM311 609h-73v87h73v-87z" />
    <glyph glyph-name="Ccaron" unicode="&#x10c;" horiz-adv-x="589" 
d="M547 86l6 -67q-57 -30 -159 -30q-158 0 -250.5 93.5t-92.5 250.5q0 150 96 247t247 97q97 0 157 -26l-6 -71q-62 29 -147 29q-121 0 -192.5 -77.5t-71.5 -198.5q0 -125 69.5 -200.5t193.5 -75.5q91 0 150 29zM415 724h-74l-103 136h65l75 -97l75 97h65z" />
    <glyph glyph-name="ccaron" unicode="&#x10d;" horiz-adv-x="443" 
d="M405 73l5 -65q-54 -19 -129 -19q-111 0 -174.5 74.5t-63.5 187.5t66.5 185t178.5 72q59 0 122 -21l-6 -65q-53 25 -104 25q-87 0 -133 -54t-46 -142q0 -84 46 -142.5t128 -58.5q56 0 110 23zM312 585h-74l-103 136h65l75 -97l75 97h65z" />
    <glyph glyph-name="Dcaron" unicode="&#x10e;" horiz-adv-x="651" 
d="M164 602v-537h56q301 0 301 278q0 125 -69 192t-196 67h-92zM222 0h-137v667h174q163 0 254 -82t91 -242q0 -170 -104 -256.5t-278 -86.5zM323 724h-74l-103 136h65l75 -97l75 97h65z" />
    <glyph glyph-name="dcaron" unicode="&#x10f;" horiz-adv-x="543" 
d="M476 0h-68l-6 83q-47 -94 -156 -94q-53 0 -93.5 22.5t-63.5 61t-34.5 83.5t-11.5 95q0 110 50.5 183.5t154.5 73.5q48 0 90 -25.5t60 -68.5v307h73v-563q0 -71 5 -158zM149 116q37 -65 111 -65q72 0 106 60.5t34 138.5q0 77 -35 136.5t-106 59.5q-138 0 -138 -196
q0 -82 28 -134zM579 557h-53l21 164h75z" />
    <glyph glyph-name="Dcroat" unicode="&#x110;" horiz-adv-x="651" 
d="M164 305v-240h56q301 0 301 278q0 125 -69 192t-196 67h-92v-237h176v-60h-176zM222 0h-137v305h-74v60h74v302h174q163 0 254 -82t91 -242q0 -170 -104 -256.5t-278 -86.5z" />
    <glyph glyph-name="dcroat" unicode="&#x111;" horiz-adv-x="543" 
d="M476 0h-68l-6 83q-47 -94 -156 -94q-53 0 -93.5 22.5t-63.5 61t-34.5 83.5t-11.5 95q0 110 50.5 183.5t154.5 73.5q49 0 90.5 -25t59.5 -69v176h-153v52h153v79h73v-79h85v-52h-85v-432q0 -71 5 -158zM149 116q37 -65 111 -65q72 0 106 60.5t34 138.5q0 77 -35 136.5
t-106 59.5q-138 0 -138 -196q0 -82 28 -134z" />
    <glyph glyph-name="Emacron" unicode="&#x112;" horiz-adv-x="486" 
d="M440 0h-355v667h344v-65h-265v-228h252v-63h-252v-246h276v-65zM380 767h-245v51h245v-51z" />
    <glyph glyph-name="emacron" unicode="&#x113;" horiz-adv-x="491" 
d="M117 294h274q-2 29 -8.5 53.5t-20 49.5t-38.5 39t-60 14q-66 0 -105 -48t-42 -108zM462 240h-345q0 -80 44 -136t132 -56q78 0 137 38l3 -65q-66 -32 -140 -32q-124 0 -188 72.5t-64 189.5q0 104 58.5 180.5t163.5 76.5q56 0 96 -21t62 -58t31.5 -80.5t9.5 -96.5v-12z
M375 628h-245v51h245v-51z" />
    <glyph glyph-name="Ebreve" unicode="&#x114;" horiz-adv-x="486" 
d="M440 0h-355v667h344v-65h-265v-228h252v-63h-252v-246h276v-65zM138 849h43q3 -31 23 -51t53 -20t53 20t24 51h43q0 -19 -8.5 -43.5t-37.5 -49t-74 -24.5q-44 0 -73 24.5t-37.5 49t-8.5 43.5z" />
    <glyph glyph-name="ebreve" unicode="&#x115;" horiz-adv-x="491" 
d="M117 294h274q-2 29 -8.5 53.5t-20 49.5t-38.5 39t-60 14q-66 0 -105 -48t-42 -108zM462 240h-345q0 -80 44 -136t132 -56q78 0 137 38l3 -65q-66 -32 -140 -32q-124 0 -188 72.5t-64 189.5q0 104 58.5 180.5t163.5 76.5q56 0 96 -21t62 -58t31.5 -80.5t9.5 -96.5v-12z
M135 710h43q3 -31 23 -51t53 -20t53 20t24 51h43q0 -19 -8.5 -43.5t-37.5 -49t-74 -24.5q-44 0 -73 24.5t-37.5 49t-8.5 43.5z" />
    <glyph glyph-name="Edotaccent" unicode="&#x116;" horiz-adv-x="486" 
d="M440 0h-355v667h344v-65h-265v-228h252v-63h-252v-246h276v-65zM294 748h-73v87h73v-87z" />
    <glyph glyph-name="edotaccent" unicode="&#x117;" horiz-adv-x="491" 
d="M117 294h274q-2 29 -8.5 53.5t-20 49.5t-38.5 39t-60 14q-66 0 -105 -48t-42 -108zM462 240h-345q0 -80 44 -136t132 -56q78 0 137 38l3 -65q-66 -32 -140 -32q-124 0 -188 72.5t-64 189.5q0 104 58.5 180.5t163.5 76.5q56 0 96 -21t62 -58t31.5 -80.5t9.5 -96.5v-12z
M291 609h-73v87h73v-87z" />
    <glyph glyph-name="Eogonek" unicode="&#x118;" horiz-adv-x="486" 
d="M347 0h-262v667h344v-65h-265v-228h252v-63h-252v-246h276v-65h-48q-73 -45 -73 -93q0 -24 14.5 -35.5t34.5 -11.5q28 0 59 15l11 -35q-40 -20 -81 -20t-66.5 22t-25.5 54q0 68 82 104z" />
    <glyph glyph-name="eogonek" unicode="&#x119;" horiz-adv-x="491" 
d="M117 294h274q-2 29 -8.5 53.5t-20 49.5t-38.5 39t-60 14q-66 0 -105 -48t-42 -108zM362 -125l11 -35q-40 -20 -81 -20t-66.5 22t-25.5 54q0 58 59 95q-108 9 -163 79.5t-55 180.5q0 104 58.5 180.5t163.5 76.5q56 0 96 -21t62 -58t31.5 -80.5t9.5 -96.5v-12h-345
q0 -80 44 -136t132 -56q78 0 137 38l3 -65q-60 -29 -126 -32q-53 -39 -53 -82q0 -24 14.5 -35.5t34.5 -11.5q28 0 59 15z" />
    <glyph glyph-name="Ecaron" unicode="&#x11a;" horiz-adv-x="486" 
d="M440 0h-355v667h344v-65h-265v-228h252v-63h-252v-246h276v-65zM293 724h-74l-103 136h65l75 -97l75 97h65z" />
    <glyph glyph-name="ecaron" unicode="&#x11b;" horiz-adv-x="491" 
d="M117 294h274q-2 29 -8.5 53.5t-20 49.5t-38.5 39t-60 14q-66 0 -105 -48t-42 -108zM462 240h-345q0 -80 44 -136t132 -56q78 0 137 38l3 -65q-66 -32 -140 -32q-124 0 -188 72.5t-64 189.5q0 104 58.5 180.5t163.5 76.5q56 0 96 -21t62 -58t31.5 -80.5t9.5 -96.5v-12z
M289 585h-74l-103 136h65l75 -97l75 97h65z" />
    <glyph glyph-name="Gcircumflex" unicode="&#x11c;" horiz-adv-x="669" 
d="M596 359v-337q-94 -33 -187 -33q-162 0 -260 91t-98 253q0 158 101 251t257 93q107 0 182 -33l-6 -72q-68 38 -171 38q-126 0 -203 -73t-77 -204q0 -129 74 -203t202 -74q60 0 110 14v226h-150v63h226zM307 724h-65l103 136h74l103 -136h-65l-75 96z" />
    <glyph glyph-name="gcircumflex" unicode="&#x11d;" horiz-adv-x="543" 
d="M83 -201l6 71q69 -36 144 -36q85 0 125 51.5t40 138.5v64q-23 -41 -64.5 -64.5t-89.5 -23.5q-53 0 -93.5 21.5t-63 58t-33.5 80t-11 91.5q0 110 50 183.5t153 73.5q109 0 156 -94v84h69v-473q0 -120 -57 -186t-176 -66q-72 0 -155 26zM148 124q36 -62 111 -62
q73 0 107 56.5t34 131.5q0 35 -7.5 68t-23.5 62.5t-44 47.5t-65 18q-40 0 -68.5 -17t-43 -47t-21 -62t-6.5 -70q0 -77 27 -126zM196 585h-65l103 136h74l103 -136h-65l-75 96z" />
    <glyph glyph-name="Gbreve" unicode="&#x11e;" horiz-adv-x="669" 
d="M596 359v-337q-94 -33 -187 -33q-162 0 -260 91t-98 253q0 158 101 251t257 93q107 0 182 -33l-6 -72q-68 38 -171 38q-126 0 -203 -73t-77 -204q0 -129 74 -203t202 -74q60 0 110 14v226h-150v63h226zM264 849h43q3 -31 23 -51t53 -20t53 20t24 51h43q0 -19 -8.5 -43.5
t-37.5 -49t-74 -24.5q-44 0 -73 24.5t-37.5 49t-8.5 43.5z" />
    <glyph glyph-name="gbreve" unicode="&#x11f;" horiz-adv-x="543" 
d="M83 -201l6 71q69 -36 144 -36q85 0 125 51.5t40 138.5v64q-23 -41 -64.5 -64.5t-89.5 -23.5q-53 0 -93.5 21.5t-63 58t-33.5 80t-11 91.5q0 110 50 183.5t153 73.5q109 0 156 -94v84h69v-473q0 -120 -57 -186t-176 -66q-72 0 -155 26zM148 124q36 -62 111 -62
q73 0 107 56.5t34 131.5q0 35 -7.5 68t-23.5 62.5t-44 47.5t-65 18q-40 0 -68.5 -17t-43 -47t-21 -62t-6.5 -70q0 -77 27 -126zM152 710h43q3 -31 23 -51t53 -20t53 20t24 51h43q0 -19 -8.5 -43.5t-37.5 -49t-74 -24.5q-44 0 -73 24.5t-37.5 49t-8.5 43.5z" />
    <glyph glyph-name="Gdotaccent" unicode="&#x120;" horiz-adv-x="669" 
d="M596 359v-337q-94 -33 -187 -33q-162 0 -260 91t-98 253q0 158 101 251t257 93q107 0 182 -33l-6 -72q-68 38 -171 38q-126 0 -203 -73t-77 -204q0 -129 74 -203t202 -74q60 0 110 14v226h-150v63h226zM420 748h-73v87h73v-87z" />
    <glyph glyph-name="gdotaccent" unicode="&#x121;" horiz-adv-x="543" 
d="M83 -201l6 71q69 -36 144 -36q85 0 125 51.5t40 138.5v64q-23 -41 -64.5 -64.5t-89.5 -23.5q-53 0 -93.5 21.5t-63 58t-33.5 80t-11 91.5q0 110 50 183.5t153 73.5q109 0 156 -94v84h69v-473q0 -120 -57 -186t-176 -66q-72 0 -155 26zM148 124q36 -62 111 -62
q73 0 107 56.5t34 131.5q0 35 -7.5 68t-23.5 62.5t-44 47.5t-65 18q-40 0 -68.5 -17t-43 -47t-21 -62t-6.5 -70q0 -77 27 -126zM308 609h-73v87h73v-87z" />
    <glyph glyph-name="Gcommaaccent" unicode="&#x122;" horiz-adv-x="669" 
d="M596 359v-337q-94 -33 -187 -33q-162 0 -260 91t-98 253q0 158 101 251t257 93q107 0 182 -33l-6 -72q-68 38 -171 38q-126 0 -203 -73t-77 -204q0 -129 74 -203t202 -74q60 0 110 14v226h-150v63h226zM366 -227h-50l47 159h67z" />
    <glyph glyph-name="gcommaaccent" unicode="&#x123;" horiz-adv-x="543" 
d="M83 -201l6 71q69 -36 144 -36q85 0 125 51.5t40 138.5v64q-23 -41 -64.5 -64.5t-89.5 -23.5q-53 0 -93.5 21.5t-63 58t-33.5 80t-11 91.5q0 110 50 183.5t153 73.5q109 0 156 -94v84h69v-473q0 -120 -57 -186t-176 -66q-72 0 -155 26zM148 124q36 -62 111 -62
q73 0 107 56.5t34 131.5q0 35 -7.5 68t-23.5 62.5t-44 47.5t-65 18q-40 0 -68.5 -17t-43 -47t-21 -62t-6.5 -70q0 -77 27 -126zM299 585h-63l50 136h46z" />
    <glyph glyph-name="Hcircumflex" unicode="&#x124;" horiz-adv-x="653" 
d="M164 0h-79v667h79v-289h325v289h80v-667h-80v309h-325v-309zM255 724h-65l103 136h74l103 -136h-65l-75 96z" />
    <glyph glyph-name="hcircumflex" unicode="&#x125;" horiz-adv-x="539" 
d="M146 0h-73v721h73v-307q48 94 154 94q166 0 166 -199v-309h-72v296q0 70 -23 110t-89 40q-71 0 -103.5 -51t-32.5 -126v-269zM182 769h-65l103 136h74l103 -136h-65l-75 96z" />
    <glyph glyph-name="Hbar" unicode="&#x126;" horiz-adv-x="653" 
d="M164 464v-117h325v117h-325zM164 0h-79v667h79v-145h325v145h80v-667h-80v280h-325v-280z" />
    <glyph glyph-name="hbar" unicode="&#x127;" horiz-adv-x="539" 
d="M146 0h-73v590h-85v52h85v79h73v-79h153v-52h-153v-176q48 94 154 94q166 0 166 -199v-309h-72v296q0 70 -23 110t-89 40q-71 0 -103.5 -51t-32.5 -126v-269z" />
    <glyph glyph-name="Itilde" unicode="&#x128;" horiz-adv-x="248" 
d="M164 0h-79v667h79v-667zM25 738h-48q0 38 24.5 69t64.5 31q26 0 64.5 -20.5t52.5 -20.5q17 0 28 14.5t11 30.5h47q0 -35 -24 -67t-61 -32q-26 0 -62 20t-54 20q-17 0 -30 -14.5t-13 -30.5z" />
    <glyph glyph-name="itilde" unicode="&#x129;" horiz-adv-x="218" 
d="M146 0h-73v498h73v-498zM11 599h-48q0 38 24.5 69t64.5 31q26 0 64.5 -20.5t52.5 -20.5q17 0 28 14.5t11 30.5h47q0 -35 -24 -67t-61 -32q-26 0 -62 20t-54 20q-17 0 -30 -14.5t-13 -30.5z" />
    <glyph glyph-name="Imacron" unicode="&#x12a;" horiz-adv-x="248" 
d="M164 0h-79v667h79v-667zM247 767h-245v51h245v-51z" />
    <glyph glyph-name="imacron" unicode="&#x12b;" horiz-adv-x="218" 
d="M146 0h-73v498h73v-498zM232 628h-245v51h245v-51z" />
    <glyph glyph-name="Iogonek" unicode="&#x12e;" horiz-adv-x="248" 
d="M181 -130l11 -35q-33 -15 -65 -15q-39 0 -63.5 20.5t-24.5 55.5q0 61 80 104h-34v667h79v-667q-71 -39 -71 -95q0 -22 12.5 -33.5t32.5 -11.5q19 0 43 10z" />
    <glyph glyph-name="iogonek" unicode="&#x12f;" horiz-adv-x="218" 
d="M146 609h-73v87h73v-87zM166 -130l11 -35q-33 -15 -65 -15q-39 0 -63.5 20.5t-24.5 55.5q0 63 77 104h-28v498h73v-498q-68 -37 -68 -95q0 -22 12.5 -33.5t32.5 -11.5q19 0 43 10z" />
    <glyph glyph-name="Idotaccent" unicode="&#x130;" horiz-adv-x="248" 
d="M164 0h-79v667h79v-667zM161 748h-73v87h73v-87z" />
    <glyph glyph-name="dotlessi" unicode="&#x131;" horiz-adv-x="218" 
d="M146 0h-73v498h73v-498z" />
    <glyph glyph-name="Jcircumflex" unicode="&#x134;" horiz-adv-x="319" 
d="M4 2l6 65q21 -9 57 -9q51 0 74 34t23 85v490h79v-492q0 -85 -40 -135.5t-122 -50.5q-42 0 -77 13zM124 724h-65l103 136h74l103 -136h-65l-75 96z" />
    <glyph glyph-name="jcircumflex" unicode="&#x135;" horiz-adv-x="224" 
d="M-26 -221l6 63q16 -6 34 -6q22 0 35.5 7t19.5 22t8 29t2 35v569h72v-580q0 -145 -115 -145q-38 0 -62 6zM34 585h-65l103 136h74l103 -136h-65l-75 96z" />
    <glyph glyph-name="Kcommaaccent" unicode="&#x136;" horiz-adv-x="586" 
d="M164 0h-79v667h79v-301l292 301h98l-315 -313l343 -354h-106l-312 333v-333zM296 -227h-50l47 159h67z" />
    <glyph glyph-name="kcommaaccent" unicode="&#x137;" horiz-adv-x="479" 
d="M146 0h-73v721h73v-429l211 206h91l-229 -220l256 -278h-96l-233 260v-260zM240 -227h-50l47 159h67z" />
    <glyph glyph-name="Lacute" unicode="&#x139;" horiz-adv-x="452" 
d="M434 0h-349v667h79v-599h270v-68zM157 724h-61l72 136h85z" />
    <glyph glyph-name="lacute" unicode="&#x13a;" horiz-adv-x="218" 
d="M146 0h-73v721h73v-721zM130 769h-61l72 136h85z" />
    <glyph glyph-name="Lcommaaccent" unicode="&#x13b;" horiz-adv-x="452" 
d="M434 0h-349v667h79v-599h270v-68zM239 -227h-50l47 159h67z" />
    <glyph glyph-name="lcommaaccent" unicode="&#x13c;" horiz-adv-x="218" 
d="M77 -227h-50l47 159h67zM146 0h-73v721h73v-721z" />
    <glyph glyph-name="Lcaron" unicode="&#x13d;" horiz-adv-x="452" 
d="M434 0h-349v667h79v-599h270v-68zM308 557h-53l21 164h75z" />
    <glyph glyph-name="lcaron" unicode="&#x13e;" horiz-adv-x="218" 
d="M254 557h-53l21 164h75zM146 0h-73v721h73v-721z" />
    <glyph glyph-name="Ldot" unicode="&#x13f;" horiz-adv-x="452" 
d="M434 0h-349v667h79v-599h270v-68zM386 304h-73v87h73v-87z" />
    <glyph glyph-name="ldot" unicode="&#x140;" horiz-adv-x="315" 
d="M146 0h-73v721h73v-721zM304 304h-73v87h73v-87z" />
    <glyph glyph-name="Lslash" unicode="&#x141;" horiz-adv-x="452" 
d="M434 0h-349v292l-75 -72v66l75 72v309h79v-246l136 131v-67l-136 -131v-286h270v-68z" />
    <glyph glyph-name="lslash" unicode="&#x142;" horiz-adv-x="218" 
d="M147 0h-74v327l-68 -68v66l68 67v329h74v-270l69 68v-66l-69 -68v-385z" />
    <glyph glyph-name="Nacute" unicode="&#x143;" horiz-adv-x="676" 
d="M159 0h-74v667h111l321 -585v585h74v-667h-111l-321 585v-585zM363 724h-61l72 136h85z" />
    <glyph glyph-name="nacute" unicode="&#x144;" horiz-adv-x="539" 
d="M146 0h-73v381q0 68 -5 117h67l3 -86q52 96 161 96q167 0 167 -199v-309h-72v295q0 70 -23 110.5t-89 40.5q-72 0 -104 -51t-32 -127v-268zM284 585h-61l72 136h85z" />
    <glyph glyph-name="Ncommaaccent" unicode="&#x145;" horiz-adv-x="676" 
d="M330 -227h-50l47 159h67zM159 0h-74v667h111l321 -585v585h74v-667h-111l-321 585v-585z" />
    <glyph glyph-name="ncommaaccent" unicode="&#x146;" horiz-adv-x="539" 
d="M146 0h-73v381q0 68 -5 117h67l3 -86q52 96 161 96q167 0 167 -199v-309h-72v295q0 70 -23 110.5t-89 40.5q-72 0 -104 -51t-32 -127v-268zM250 -227h-50l47 159h67z" />
    <glyph glyph-name="Ncaron" unicode="&#x147;" horiz-adv-x="676" 
d="M159 0h-74v667h111l321 -585v585h74v-667h-111l-321 585v-585zM382 724h-74l-103 136h65l75 -97l75 97h65z" />
    <glyph glyph-name="ncaron" unicode="&#x148;" horiz-adv-x="539" 
d="M305 585h-74l-103 136h65l75 -97l75 97h65zM146 0h-73v381q0 68 -5 117h67l3 -86q52 96 161 96q167 0 167 -199v-309h-72v295q0 70 -23 110.5t-89 40.5q-72 0 -104 -51t-32 -127v-268z" />
    <glyph glyph-name="Omacron" unicode="&#x14c;" horiz-adv-x="701" 
d="M217 16q-82 40 -124 123t-42 194q0 95 32 171t101.5 124.5t166.5 48.5q147 0 223.5 -97t76.5 -247q0 -147 -78 -245.5t-222 -98.5q-77 0 -134 27zM185 144q60 -89 166 -89q74 0 124.5 42.5t71 103t20.5 132.5t-20.5 132.5t-71 103t-124.5 42.5q-55 0 -98 -24.5t-68 -65
t-38 -88.5t-13 -100q0 -112 51 -189zM474 767h-245v51h245v-51z" />
    <glyph glyph-name="omacron" unicode="&#x14d;" horiz-adv-x="551" 
d="M174 9q-64 31 -97.5 94.5t-33.5 147.5q0 111 62.5 184t170.5 73q113 0 173 -71t60 -186q0 -113 -61 -187.5t-172 -74.5q-57 0 -102 20zM157 114q43 -64 119 -64t115.5 60t39.5 141q0 83 -38.5 139.5t-116.5 56.5q-77 0 -116 -58t-39 -138q0 -81 36 -137zM398 628h-245v51
h245v-51z" />
    <glyph glyph-name="Obreve" unicode="&#x14e;" horiz-adv-x="701" 
d="M217 16q-82 40 -124 123t-42 194q0 95 32 171t101.5 124.5t166.5 48.5q147 0 223.5 -97t76.5 -247q0 -147 -78 -245.5t-222 -98.5q-77 0 -134 27zM185 144q60 -89 166 -89q74 0 124.5 42.5t71 103t20.5 132.5t-20.5 132.5t-71 103t-124.5 42.5q-55 0 -98 -24.5t-68 -65
t-38 -88.5t-13 -100q0 -112 51 -189zM231 849h43q3 -31 23 -51t53 -20t53 20t24 51h43q0 -19 -8.5 -43.5t-37.5 -49t-74 -24.5q-44 0 -73 24.5t-37.5 49t-8.5 43.5z" />
    <glyph glyph-name="obreve" unicode="&#x14f;" horiz-adv-x="551" 
d="M174 9q-64 31 -97.5 94.5t-33.5 147.5q0 111 62.5 184t170.5 73q113 0 173 -71t60 -186q0 -113 -61 -187.5t-172 -74.5q-57 0 -102 20zM157 114q43 -64 119 -64t115.5 60t39.5 141q0 83 -38.5 139.5t-116.5 56.5q-77 0 -116 -58t-39 -138q0 -81 36 -137zM155 710h43
q3 -31 23 -51t53 -20t53 20t24 51h43q0 -19 -8.5 -43.5t-37.5 -49t-74 -24.5q-44 0 -73 24.5t-37.5 49t-8.5 43.5z" />
    <glyph glyph-name="Ohungarumlaut" unicode="&#x150;" horiz-adv-x="701" 
d="M217 16q-82 40 -124 123t-42 194q0 95 32 171t101.5 124.5t166.5 48.5q147 0 223.5 -97t76.5 -247q0 -147 -78 -245.5t-222 -98.5q-77 0 -134 27zM185 144q60 -89 166 -89q74 0 124.5 42.5t71 103t20.5 132.5t-20.5 132.5t-71 103t-124.5 42.5q-55 0 -98 -24.5t-68 -65
t-38 -88.5t-13 -100q0 -112 51 -189zM290 724h-60l72 136h85zM460 724h-60l72 136h85z" />
    <glyph glyph-name="ohungarumlaut" unicode="&#x151;" horiz-adv-x="551" 
d="M174 9q-64 31 -97.5 94.5t-33.5 147.5q0 111 62.5 184t170.5 73q113 0 173 -71t60 -186q0 -113 -61 -187.5t-172 -74.5q-57 0 -102 20zM157 114q43 -64 119 -64t115.5 60t39.5 141q0 83 -38.5 139.5t-116.5 56.5q-77 0 -116 -58t-39 -138q0 -81 36 -137zM382 585h-60
l72 136h85zM212 585h-60l72 136h85z" />
    <glyph glyph-name="OE" unicode="&#x152;" horiz-adv-x="873" 
d="M476 66v534q-38 11 -94 11q-117 0 -183.5 -84t-66.5 -194q0 -52 15 -100.5t44.5 -88.5t78.5 -64.5t112 -24.5q54 0 94 11zM827 0h-334q-50 -11 -111 -11q-160 0 -245.5 97t-85.5 247q0 143 90.5 243.5t240.5 100.5q61 0 107 -10h328v-65h-262v-228h248v-62h-248v-247h272
v-65z" />
    <glyph glyph-name="oe" unicode="&#x153;" horiz-adv-x="876" 
d="M499 294h270q-2 29 -8.5 53.5t-20 49.5t-38.5 39t-60 14q-66 0 -103 -48t-40 -108zM840 240h-341q0 -81 42 -136.5t130 -55.5q78 0 137 38l3 -65q-66 -32 -142 -32q-74 0 -128.5 29t-80.5 83q-62 -112 -187 -112q-110 0 -170 75t-60 187q0 109 62 183t168 74
q133 0 191 -109q60 109 176 109q74 0 120.5 -38t63 -92t16.5 -126v-12zM155 114q43 -64 119 -64q74 0 113 59t39 142t-37.5 139.5t-114.5 56.5t-115.5 -57.5t-38.5 -138.5q0 -80 35 -137z" />
    <glyph glyph-name="Racute" unicode="&#x154;" horiz-adv-x="548" 
d="M163 603v-231h68q67 0 115 29.5t48 94.5q0 33 -13.5 55.5t-39 33t-52 14.5t-62.5 4h-64zM164 0h-79v667h164q227 0 227 -164q0 -65 -43.5 -111t-107.5 -54q60 -12 91 -85l109 -253h-89l-92 220q-22 53 -47 70.5t-83 17.5h-50v-308zM277 724h-61l72 136h85z" />
    <glyph glyph-name="racute" unicode="&#x155;" horiz-adv-x="328" 
d="M146 0h-73v381q0 68 -5 117h67l4 -94q15 41 52 72.5t80 31.5q27 0 42 -4l-4 -73q-19 6 -40 6q-36 0 -61.5 -18t-38 -48.5t-18 -60.5t-5.5 -63v-247zM211 585h-61l72 136h85z" />
    <glyph glyph-name="Rcommaaccent" unicode="&#x156;" horiz-adv-x="548" 
d="M163 603v-231h68q67 0 115 29.5t48 94.5q0 33 -13.5 55.5t-39 33t-52 14.5t-62.5 4h-64zM164 0h-79v667h164q227 0 227 -164q0 -65 -43.5 -111t-107.5 -54q60 -12 91 -85l109 -253h-89l-92 220q-22 53 -47 70.5t-83 17.5h-50v-308zM266 -227h-50l47 159h67z" />
    <glyph glyph-name="rcommaaccent" unicode="&#x157;" horiz-adv-x="328" 
d="M146 0h-73v381q0 68 -5 117h67l4 -94q15 41 52 72.5t80 31.5q27 0 42 -4l-4 -73q-19 6 -40 6q-36 0 -61.5 -18t-38 -48.5t-18 -60.5t-5.5 -63v-247zM77 -227h-50l47 159h67z" />
    <glyph glyph-name="Rcaron" unicode="&#x158;" horiz-adv-x="548" 
d="M163 603v-231h68q67 0 115 29.5t48 94.5q0 33 -13.5 55.5t-39 33t-52 14.5t-62.5 4h-64zM164 0h-79v667h164q227 0 227 -164q0 -65 -43.5 -111t-107.5 -54q60 -12 91 -85l109 -253h-89l-92 220q-22 53 -47 70.5t-83 17.5h-50v-308zM296 724h-74l-103 136h65l75 -97l75 97
h65z" />
    <glyph glyph-name="rcaron" unicode="&#x159;" horiz-adv-x="328" 
d="M146 0h-73v381q0 68 -5 117h67l4 -94q15 41 52 72.5t80 31.5q27 0 42 -4l-4 -73q-19 6 -40 6q-36 0 -61.5 -18t-38 -48.5t-18 -60.5t-5.5 -63v-247zM233 585h-74l-103 136h65l75 -97l75 97h65z" />
    <glyph glyph-name="Sacute" unicode="&#x15a;" horiz-adv-x="484" 
d="M48 20l9 74q63 -39 154 -39q61 0 98.5 29.5t37.5 91.5q0 48 -29 77t-86 58l-54 29q-56 31 -85.5 67t-29.5 97q0 85 63 129t152 44q71 0 129 -24l-9 -71q-52 29 -119 29q-135 0 -135 -104q0 -38 24 -64t69 -50l54 -29q69 -37 103.5 -75.5t34.5 -107.5q0 -90 -63 -141
t-154 -51q-95 0 -164 31zM266 724h-61l72 136h85z" />
    <glyph glyph-name="sacute" unicode="&#x15b;" horiz-adv-x="389" 
d="M212 585h-61l72 136h85zM42 12l9 68q59 -31 122 -31q44 0 69.5 21t25.5 62q0 33 -22 56t-54 37t-63.5 29.5t-53.5 44.5t-22 71q0 70 47.5 104t113.5 34q56 0 113 -21l-10 -63q-52 25 -102 25q-36 0 -62.5 -17t-26.5 -58q0 -27 22.5 -46t54 -32.5t63.5 -30t54.5 -49
t22.5 -78.5q0 -69 -49.5 -109t-119.5 -40q-78 0 -132 23z" />
    <glyph glyph-name="Scircumflex" unicode="&#x15c;" horiz-adv-x="484" 
d="M48 20l9 74q63 -39 154 -39q61 0 98.5 29.5t37.5 91.5q0 48 -29 77t-86 58l-54 29q-56 31 -85.5 67t-29.5 97q0 85 63 129t152 44q71 0 129 -24l-9 -71q-52 29 -119 29q-135 0 -135 -104q0 -38 24 -64t69 -50l54 -29q69 -37 103.5 -75.5t34.5 -107.5q0 -90 -63 -141
t-154 -51q-95 0 -164 31zM172 724h-65l103 136h74l103 -136h-65l-75 96z" />
    <glyph glyph-name="scircumflex" unicode="&#x15d;" horiz-adv-x="389" 
d="M42 12l9 68q59 -31 122 -31q44 0 69.5 21t25.5 62q0 33 -22 56t-54 37t-63.5 29.5t-53.5 44.5t-22 71q0 70 47.5 104t113.5 34q56 0 113 -21l-10 -63q-52 25 -102 25q-36 0 -62.5 -17t-26.5 -58q0 -27 22.5 -46t54 -32.5t63.5 -30t54.5 -49t22.5 -78.5q0 -69 -49.5 -109
t-119.5 -40q-78 0 -132 23zM121 585h-65l103 136h74l103 -136h-65l-75 96z" />
    <glyph glyph-name="Scedilla" unicode="&#x15e;" horiz-adv-x="484" 
d="M132 -161l13 35q39 -17 74 -17q22 0 36 9t14 25q0 29 -39 29q-19 0 -39 -7l-15 18l40 58h-4q-95 0 -164 31l9 74q63 -39 154 -39q61 0 98.5 29.5t37.5 91.5q0 48 -29 77t-86 58l-54 29q-56 31 -85.5 67t-29.5 97q0 85 63 129t152 44q71 0 129 -24l-9 -71q-52 29 -119 29
q-135 0 -135 -104q0 -38 24 -64t69 -50l54 -29q69 -37 103.5 -75.5t34.5 -107.5q0 -79 -49 -127.5t-125 -61.5l-32 -45q20 4 32 4q30 0 48 -15t18 -42q0 -34 -27.5 -54t-73.5 -20t-88 19z" />
    <glyph glyph-name="scedilla" unicode="&#x15f;" horiz-adv-x="389" 
d="M85 -161l13 35q39 -17 74 -17q22 0 36 9t14 25q0 29 -39 29q-19 0 -39 -7l-15 18l41 58q-76 2 -128 23l9 68q59 -31 122 -31q44 0 69.5 21t25.5 62q0 33 -22 56t-54 37t-63.5 29.5t-53.5 44.5t-22 71q0 70 47.5 104t113.5 34q56 0 113 -21l-10 -63q-52 25 -102 25
q-36 0 -62.5 -17t-26.5 -58q0 -27 22.5 -46t54 -32.5t63.5 -30t54.5 -49t22.5 -78.5q0 -60 -38.5 -98.5t-97.5 -47.5l-31 -45q20 4 32 4q30 0 48 -15t18 -42q0 -34 -27.5 -54t-73.5 -20t-88 19z" />
    <glyph glyph-name="Scaron" unicode="&#x160;" horiz-adv-x="484" 
d="M48 20l9 74q63 -39 154 -39q61 0 98.5 29.5t37.5 91.5q0 48 -29 77t-86 58l-54 29q-56 31 -85.5 67t-29.5 97q0 85 63 129t152 44q71 0 129 -24l-9 -71q-52 29 -119 29q-135 0 -135 -104q0 -38 24 -64t69 -50l54 -29q69 -37 103.5 -75.5t34.5 -107.5q0 -90 -63 -141
t-154 -51q-95 0 -164 31zM279 724h-74l-103 136h65l75 -97l75 97h65z" />
    <glyph glyph-name="scaron" unicode="&#x161;" horiz-adv-x="389" 
d="M42 12l9 68q59 -31 122 -31q44 0 69.5 21t25.5 62q0 33 -22 56t-54 37t-63.5 29.5t-53.5 44.5t-22 71q0 70 47.5 104t113.5 34q56 0 113 -21l-10 -63q-52 25 -102 25q-36 0 -62.5 -17t-26.5 -58q0 -27 22.5 -46t54 -32.5t63.5 -30t54.5 -49t22.5 -78.5q0 -69 -49.5 -109
t-119.5 -40q-78 0 -132 23zM235 585h-74l-103 136h65l75 -97l75 97h65z" />
    <glyph glyph-name="Tcommaaccent" unicode="&#x162;" horiz-adv-x="496" 
d="M288 0h-80v599h-198v68h477v-68h-199v-599zM215 -227h-50l47 159h67z" />
    <glyph glyph-name="tcommaaccent" unicode="&#x163;" horiz-adv-x="328" 
d="M303 65l4 -61q-34 -15 -81 -15q-30 0 -51 9t-33.5 22.5t-19.5 36.5t-9 44.5t-2 52.5v287h-94v57h94v112l72 25v-137h113v-57h-113v-306q0 -83 64 -83q25 0 56 13zM165 -227h-50l47 159h67z" />
    <glyph glyph-name="Tcaron" unicode="&#x164;" horiz-adv-x="496" 
d="M288 0h-80v599h-198v68h477v-68h-199v-599zM285 724h-74l-103 136h65l75 -97l75 97h65z" />
    <glyph glyph-name="tcaron" unicode="&#x165;" horiz-adv-x="328" 
d="M303 65l4 -61q-34 -15 -81 -15q-30 0 -51 9t-33.5 22.5t-19.5 36.5t-9 44.5t-2 52.5v287h-94v57h94v112l72 25v-137h113v-57h-113v-306q0 -83 64 -83q25 0 56 13zM298 557h-53l21 164h75z" />
    <glyph glyph-name="Tbar" unicode="&#x166;" horiz-adv-x="496" 
d="M288 0h-80v387h-137v60h137v152h-198v68h477v-68h-199v-152h140v-60h-140v-387z" />
    <glyph glyph-name="tbar" unicode="&#x167;" horiz-adv-x="328" 
d="M303 65l4 -61q-34 -15 -81 -15q-30 0 -51 9t-33.5 22.5t-19.5 36.5t-9 44.5t-2 52.5v144h-82v51h82v92h-94v57h94v112l72 25v-137h113v-57h-113v-92h97v-51h-97v-163q0 -83 64 -83q25 0 56 13z" />
    <glyph glyph-name="Utilde" unicode="&#x168;" horiz-adv-x="650" 
d="M156 667v-431q0 -82 44 -130.5t125 -48.5q82 0 126 48.5t44 130.5v431h79v-431q0 -114 -67.5 -180.5t-181.5 -66.5q-115 0 -181.5 65.5t-66.5 180.5v432h79zM226 738h-48q0 38 24.5 69t64.5 31q26 0 64.5 -20.5t52.5 -20.5q17 0 28 14.5t11 30.5h47q0 -35 -24 -67
t-61 -32q-27 0 -63 20t-53 20t-30 -14.5t-13 -30.5z" />
    <glyph glyph-name="utilde" unicode="&#x169;" horiz-adv-x="535" 
d="M144 498v-295q0 -33 4 -57.5t15 -47t34 -34.5t57 -12q72 0 104 51t32 127v268h72v-381q0 -68 5 -117h-67l-2 86q-53 -97 -161 -97q-166 0 -166 201v308h73zM172 599h-48q0 38 24.5 69t64.5 31q26 0 64.5 -20.5t52.5 -20.5q17 0 28 14.5t11 30.5h47q0 -35 -24 -67t-61 -32
q-27 0 -63 20t-53 20t-30 -14.5t-13 -30.5z" />
    <glyph glyph-name="Umacron" unicode="&#x16a;" horiz-adv-x="650" 
d="M156 667v-431q0 -82 44 -130.5t125 -48.5q82 0 126 48.5t44 130.5v431h79v-431q0 -114 -67.5 -180.5t-181.5 -66.5q-115 0 -181.5 65.5t-66.5 180.5v432h79zM448 767h-245v51h245v-51z" />
    <glyph glyph-name="umacron" unicode="&#x16b;" horiz-adv-x="535" 
d="M144 498v-295q0 -33 4 -57.5t15 -47t34 -34.5t57 -12q72 0 104 51t32 127v268h72v-381q0 -68 5 -117h-67l-2 86q-53 -97 -161 -97q-166 0 -166 201v308h73zM391 628h-245v51h245v-51z" />
    <glyph glyph-name="Ubreve" unicode="&#x16c;" horiz-adv-x="650" 
d="M156 667v-431q0 -82 44 -130.5t125 -48.5q82 0 126 48.5t44 130.5v431h79v-431q0 -114 -67.5 -180.5t-181.5 -66.5q-115 0 -181.5 65.5t-66.5 180.5v432h79zM206 849h43q3 -31 23 -51t53 -20t53 20t24 51h43q0 -19 -8.5 -43.5t-37.5 -49t-74 -24.5q-44 0 -73 24.5
t-37.5 49t-8.5 43.5z" />
    <glyph glyph-name="ubreve" unicode="&#x16d;" horiz-adv-x="535" 
d="M144 498v-295q0 -33 4 -57.5t15 -47t34 -34.5t57 -12q72 0 104 51t32 127v268h72v-381q0 -68 5 -117h-67l-2 86q-53 -97 -161 -97q-166 0 -166 201v308h73zM148 710h43q3 -31 23 -51t53 -20t53 20t24 51h43q0 -19 -8.5 -43.5t-37.5 -49t-74 -24.5q-44 0 -73 24.5
t-37.5 49t-8.5 43.5z" />
    <glyph glyph-name="Uring" unicode="&#x16e;" horiz-adv-x="650" 
d="M156 667v-431q0 -82 44 -130.5t125 -48.5q82 0 126 48.5t44 130.5v431h79v-431q0 -114 -67.5 -180.5t-181.5 -66.5q-115 0 -181.5 65.5t-66.5 180.5v432h79zM266 792q0 -25 17.5 -42t41.5 -17q25 0 42.5 17t17.5 42q0 24 -17.5 41t-42.5 17t-42 -17t-17 -41zM288 706
q-26 11 -42 34t-16 52q0 39 28 65.5t67 26.5t67.5 -26.5t28.5 -65.5t-28.5 -66t-67.5 -27q-22 0 -37 7z" />
    <glyph glyph-name="uring" unicode="&#x16f;" horiz-adv-x="535" 
d="M144 498v-295q0 -33 4 -57.5t15 -47t34 -34.5t57 -12q72 0 104 51t32 127v268h72v-381q0 -68 5 -117h-67l-2 86q-53 -97 -161 -97q-166 0 -166 201v308h73zM230 567q-26 11 -42 34t-16 52q0 39 28 65.5t67 26.5t67.5 -26.5t28.5 -65.5t-28.5 -66t-67.5 -27q-22 0 -37 7z
M208 653q0 -25 17.5 -42t41.5 -17q25 0 42.5 17t17.5 42q0 24 -17.5 41t-42.5 17t-42 -17t-17 -41z" />
    <glyph glyph-name="Uhungarumlaut" unicode="&#x170;" horiz-adv-x="650" 
d="M156 667v-431q0 -82 44 -130.5t125 -48.5q82 0 126 48.5t44 130.5v431h79v-431q0 -114 -67.5 -180.5t-181.5 -66.5q-115 0 -181.5 65.5t-66.5 180.5v432h79zM258 724h-60l72 136h85zM428 724h-60l72 136h85z" />
    <glyph glyph-name="uhungarumlaut" unicode="&#x171;" horiz-adv-x="535" 
d="M144 498v-295q0 -33 4 -57.5t15 -47t34 -34.5t57 -12q72 0 104 51t32 127v268h72v-381q0 -68 5 -117h-67l-2 86q-53 -97 -161 -97q-166 0 -166 201v308h73zM376 585h-60l72 136h85zM206 585h-60l72 136h85z" />
    <glyph glyph-name="Uogonek" unicode="&#x172;" horiz-adv-x="650" 
d="M425 -125l11 -35q-40 -20 -81 -20t-66.5 22t-25.5 54q0 58 60 93q-114 1 -180 66.5t-66 179.5v432h79v-431q0 -82 44 -130.5t125 -48.5q82 0 126 48.5t44 130.5v431h79v-431q0 -99 -51.5 -162.5t-142.5 -79.5q-63 -42 -63 -87q0 -24 14.5 -35.5t34.5 -11.5q28 0 59 15z
" />
    <glyph glyph-name="uogonek" unicode="&#x173;" horiz-adv-x="535" 
d="M492 -125l11 -35q-40 -20 -81 -20t-66.5 22t-25.5 54q0 68 82 104h-11l-3 86q-53 -97 -161 -97q-166 0 -166 201v308h73v-295q0 -33 4 -57.5t15 -47t34 -34.5t57 -12q72 0 104 51t32 127v268h72v-381q0 -68 5 -117h-10q-73 -45 -73 -93q0 -24 14.5 -35.5t34.5 -11.5
q28 0 59 15z" />
    <glyph glyph-name="Wcircumflex" unicode="&#x174;" horiz-adv-x="922" 
d="M297 0h-95l-191 667h81l161 -588l166 588h92l165 -588l161 588h75l-190 -667h-94l-165 589zM392 724h-65l103 136h74l103 -136h-65l-75 96z" />
    <glyph glyph-name="wcircumflex" unicode="&#x175;" horiz-adv-x="771" 
d="M259 0h-88l-158 498h78l127 -430l129 430h87l129 -430l126 430h70l-155 -498h-89l-127 429zM314 585h-65l103 136h74l103 -136h-65l-75 96z" />
    <glyph glyph-name="Ycircumflex" unicode="&#x176;" horiz-adv-x="576" 
d="M327 0h-79v278l-246 389h88l200 -325l200 325h85l-248 -389v-278zM218 724h-65l103 136h74l103 -136h-65l-75 96z" />
    <glyph glyph-name="ycircumflex" unicode="&#x177;" horiz-adv-x="444" 
d="M31 -219l6 63q27 -9 45 -9q57 0 93 115l10 33l-173 515h79l134 -429l133 429h76l-200 -585q-49 -140 -143 -140q-23 0 -60 8zM150 585h-65l103 136h74l103 -136h-65l-75 96z" />
    <glyph glyph-name="Ydieresis" unicode="&#x178;" horiz-adv-x="576" 
d="M327 0h-79v278l-246 389h88l200 -325l200 325h85l-248 -389v-278zM245 748h-66v87h66v-87zM400 748h-66v87h66v-87z" />
    <glyph glyph-name="Zacute" unicode="&#x179;" horiz-adv-x="494" 
d="M468 0h-442v66l348 535h-336v66h422v-66l-345 -535h353v-66zM270 724h-61l72 136h85z" />
    <glyph glyph-name="zacute" unicode="&#x17a;" horiz-adv-x="424" 
d="M395 0h-365v59l281 381h-270v58h352v-59l-281 -381h283v-58zM232 585h-61l72 136h85z" />
    <glyph glyph-name="Zdotaccent" unicode="&#x17b;" horiz-adv-x="494" 
d="M468 0h-442v66l348 535h-336v66h422v-66l-345 -535h353v-66zM287 748h-73v87h73v-87z" />
    <glyph glyph-name="zdotaccent" unicode="&#x17c;" horiz-adv-x="424" 
d="M395 0h-365v59l281 381h-270v58h352v-59l-281 -381h283v-58zM256 609h-73v87h73v-87z" />
    <glyph glyph-name="Zcaron" unicode="&#x17d;" horiz-adv-x="494" 
d="M468 0h-442v66l348 535h-336v66h422v-66l-345 -535h353v-66zM284 724h-74l-103 136h65l75 -97l75 97h65z" />
    <glyph glyph-name="zcaron" unicode="&#x17e;" horiz-adv-x="424" 
d="M395 0h-365v59l281 381h-270v58h352v-59l-281 -381h283v-58zM253 585h-74l-103 136h65l75 -97l75 97h65z" />
    <glyph glyph-name="florin" unicode="&#x192;" 
d="M-7 -222l6 63q16 -4 45 -4q74 0 102 147l74 359h-108v57h120l25 108q17 79 51.5 124t105.5 45q33 0 60 -10l-6 -60q-28 7 -47 7q-40 0 -59.5 -31t-30.5 -81l-24 -102h109v-57h-121l-76 -364q-7 -32 -13.5 -55t-19.5 -53.5t-28.5 -50t-40.5 -33.5t-55 -14q-39 0 -69 5z
" />
    <glyph glyph-name="Scommaaccent" unicode="&#x218;" horiz-adv-x="484" 
d="M224 -227h-50l47 159h67zM48 20l9 74q63 -39 154 -39q61 0 98.5 29.5t37.5 91.5q0 48 -29 77t-86 58l-54 29q-56 31 -85.5 67t-29.5 97q0 85 63 129t152 44q71 0 129 -24l-9 -71q-52 29 -119 29q-135 0 -135 -104q0 -38 24 -64t69 -50l54 -29q69 -37 103.5 -75.5
t34.5 -107.5q0 -90 -63 -141t-154 -51q-95 0 -164 31z" />
    <glyph glyph-name="scommaaccent" unicode="&#x219;" horiz-adv-x="389" 
d="M42 12l9 68q59 -31 122 -31q44 0 69.5 21t25.5 62q0 33 -22 56t-54 37t-63.5 29.5t-53.5 44.5t-22 71q0 70 47.5 104t113.5 34q56 0 113 -21l-10 -63q-52 25 -102 25q-36 0 -62.5 -17t-26.5 -58q0 -27 22.5 -46t54 -32.5t63.5 -30t54.5 -49t22.5 -78.5q0 -69 -49.5 -109
t-119.5 -40q-78 0 -132 23zM177 -227h-50l47 159h67z" />
    <glyph glyph-name="uni021A" unicode="&#x21a;" horiz-adv-x="496" 
d="M288 0h-80v599h-198v68h477v-68h-199v-599zM215 -227h-50l47 159h67z" />
    <glyph glyph-name="uni021B" unicode="&#x21b;" horiz-adv-x="328" 
d="M303 65l4 -61q-34 -15 -81 -15q-30 0 -51 9t-33.5 22.5t-19.5 36.5t-9 44.5t-2 52.5v287h-94v57h94v112l72 25v-137h113v-57h-113v-306q0 -83 64 -83q25 0 56 13zM165 -227h-50l47 159h67z" />
    <glyph glyph-name="dotlessj" unicode="&#x237;" horiz-adv-x="224" 
d="M-26 -221l6 63q16 -6 34 -6q22 0 35.5 7t19.5 22t8 29t2 35v569h72v-580q0 -145 -115 -145q-38 0 -62 6z" />
    <glyph glyph-name="apostrophe" unicode="&#x2bc;" horiz-adv-x="271" 
d="M75 554h-46l45 167h65z" />
    <glyph glyph-name="circumflex" unicode="&#x2c6;" horiz-adv-x="218" 
d="M34 585h-65l103 136h74l103 -136h-65l-75 96z" />
    <glyph glyph-name="caron" unicode="&#x2c7;" horiz-adv-x="218" 
d="M146 585h-74l-103 136h65l75 -97l75 97h65z" />
    <glyph glyph-name="uni02C9" unicode="&#x2c9;" horiz-adv-x="218" 
d="M232 628h-245v51h245v-51z" />
    <glyph glyph-name="breve" unicode="&#x2d8;" horiz-adv-x="218" 
d="M-10 710h43q3 -31 23 -51t53 -20t53 20t24 51h43q0 -19 -8.5 -43.5t-37.5 -49t-74 -24.5q-44 0 -73 24.5t-37.5 49t-8.5 43.5z" />
    <glyph glyph-name="dotaccent" unicode="&#x2d9;" horiz-adv-x="218" 
d="M146 609h-73v87h73v-87z" />
    <glyph glyph-name="ring" unicode="&#x2da;" horiz-adv-x="218" 
d="M72 567q-26 11 -42 34t-16 52q0 39 28 65.5t67 26.5t67.5 -26.5t28.5 -65.5t-28.5 -66t-67.5 -27q-22 0 -37 7zM50 653q0 -25 17.5 -42t41.5 -17q25 0 42.5 17t17.5 42q0 24 -17.5 41t-42.5 17t-42 -17t-17 -41z" />
    <glyph glyph-name="ogonek" unicode="&#x2db;" horiz-adv-x="218" 
d="M189 -125l11 -35q-40 -20 -81 -20t-66.5 22t-25.5 54q0 68 82 104h45q-73 -45 -73 -93q0 -24 14.5 -35.5t34.5 -11.5q28 0 59 15z" />
    <glyph glyph-name="tilde" unicode="&#x2dc;" horiz-adv-x="218" 
d="M11 599h-48q0 38 24.5 69t64.5 31q26 0 64.5 -20.5t52.5 -20.5q17 0 28 14.5t11 30.5h47q0 -35 -24 -67t-61 -32q-26 0 -62 20t-54 20q-17 0 -30 -14.5t-13 -30.5z" />
    <glyph glyph-name="hungarumlaut" unicode="&#x2dd;" horiz-adv-x="218" 
d="M179 585h-60l72 136h85zM9 585h-60l72 136h85z" />
    <glyph glyph-name="uni0394" unicode="&#x394;" horiz-adv-x="750" 
d="M695 0h-640l280 672h78zM374 605l-227 -546h456z" />
    <glyph glyph-name="uni03A9" unicode="&#x3a9;" horiz-adv-x="750" 
d="M338 0h-263v62h201v73q-89 17 -145 94.5t-56 170.5q0 120 90 201t210 81q121 0 211 -81t90 -201q0 -94 -56 -170.5t-146 -94.5v-73h201v-62h-263v177q86 2 139.5 66.5t53.5 151.5q0 93 -68 159.5t-162 66.5q-93 0 -161 -66.5t-68 -159.5q0 -87 53.5 -151.5t138.5 -66.5
v-177z" />
    <glyph glyph-name="uni03BC" unicode="&#x3bc;" 
d="M145 -216h-73v714h73v-296q0 -33 4 -57.5t15 -47t34 -34.5t57 -12q72 0 104 51t32 127v269h72v-381q0 -68 5 -117h-66l-4 86q-55 -96 -153 -96q-61 0 -100 39v-245z" />
    <glyph glyph-name="pi" unicode="&#x3c0;" horiz-adv-x="650" 
d="M230 0h-65v417h-70v61h433v-61h-81v-321q0 -15 1 -23.5t8 -16.5t21 -8q15 0 51 17v-57q-36 -19 -68 -19q-78 0 -78 94v334h-152v-417z" />
    <glyph glyph-name="endash" unicode="&#x2013;" horiz-adv-x="500" 
d="M500 282h-500v56h500v-56z" />
    <glyph glyph-name="emdash" unicode="&#x2014;" horiz-adv-x="1000" 
d="M1000 282h-1000v56h1000v-56z" />
    <glyph glyph-name="quoteleft" unicode="&#x2018;" horiz-adv-x="271" 
d="M122 504h-84l83 217h59z" />
    <glyph glyph-name="quoteright" unicode="&#x2019;" horiz-adv-x="271" 
d="M97 504h-59l58 217h84z" />
    <glyph glyph-name="quotesinglbase" unicode="&#x201a;" horiz-adv-x="271" 
d="M97 -128h-59l58 217h84z" />
    <glyph glyph-name="quotedblleft" unicode="&#x201c;" horiz-adv-x="443" 
d="M294 504h-83l83 217h58zM122 504h-84l83 217h59z" />
    <glyph glyph-name="quotedblright" unicode="&#x201d;" horiz-adv-x="443" 
d="M269 504h-59l58 217h84zM97 504h-59l58 217h84z" />
    <glyph glyph-name="quotedblbase" unicode="&#x201e;" horiz-adv-x="443" 
d="M269 -128h-58l58 217h83zM97 -128h-59l58 217h84z" />
    <glyph glyph-name="dagger" unicode="&#x2020;" 
d="M310 -128h-77v556h-176v66h176v227h77v-227h176v-66h-176v-556z" />
    <glyph glyph-name="daggerdbl" unicode="&#x2021;" 
d="M310 -128h-77v227h-176v66h176v263h-176v66h176v227h77v-227h176v-66h-176v-263h176v-66h-176v-227z" />
    <glyph glyph-name="bullet" unicode="&#x2022;" 
d="M226 205q-31 14 -50 42t-19 63q0 47 33.5 80.5t80.5 33.5t81 -33.5t34 -80.5t-34 -80.5t-81 -33.5q-24 0 -45 9z" />
    <glyph glyph-name="ellipsis" unicode="&#x2026;" horiz-adv-x="1000" 
d="M877 0h-87v89h87v-89zM544 0h-87v89h87v-89zM210 0h-87v89h87v-89z" />
    <glyph glyph-name="perthousand" unicode="&#x2030;" horiz-adv-x="1250" 
d="M952 8q-74 48 -74 187q0 52 11.5 95t47 77t92.5 34q44 0 76.5 -19t49 -50.5t24 -65.5t7.5 -71q0 -38 -7.5 -72t-24 -65.5t-49 -50t-76.5 -18.5q-48 0 -77 19zM606 8q-77 49 -77 187q0 37 7.5 71t24 65.5t48 50.5t74.5 19q44 0 75.5 -19t48 -50.5t23.5 -65t7 -71.5t-7 -72
t-23.5 -65.5t-48 -50t-75.5 -18.5q-48 0 -77 19zM270 -24h-60l424 715h60zM142 284q-77 49 -77 187q0 37 7.5 71t24 65.5t48 50.5t74.5 19q58 0 94.5 -34t48.5 -77t12 -95q0 -53 -12 -96t-48.5 -76.5t-94.5 -33.5q-48 0 -77 19zM955 96q19 -54 74 -54q92 0 92 153t-92 153
q-29 0 -47.5 -14.5t-26 -40.5t-10 -47.5t-2.5 -50.5q0 -65 12 -99zM607 96q21 -54 76 -54q89 0 89 153q0 30 -2.5 51.5t-10.5 47.5t-27 40t-49 14q-89 0 -89 -153q0 -65 13 -99zM143 372q21 -54 76 -54q89 0 89 153q0 30 -2.5 51.5t-10.5 47.5t-27 40t-49 14q-89 0 -89 -153
q0 -65 13 -99z" />
    <glyph glyph-name="guilsinglleft" unicode="&#x2039;" horiz-adv-x="266" 
d="M227 55h-66l-131 200l131 198h66l-126 -198z" />
    <glyph glyph-name="guilsinglright" unicode="&#x203a;" horiz-adv-x="266" 
d="M106 55h-66l125 199l-125 199h66l131 -199z" />
    <glyph glyph-name="fraction" unicode="&#x2044;" horiz-adv-x="169" 
d="M-98 -24h-59l424 715h59z" />
    <glyph glyph-name="zero.superior" unicode="&#x2070;" horiz-adv-x="400" 
d="M126 469q21 -55 74 -55q88 0 88 158q0 30 -3 53.5t-11 49t-27 39.5t-47 14q-88 0 -88 -156q0 -66 14 -103zM124 381q-76 49 -76 191q0 39 7.5 73.5t24 66t47.5 50t73 18.5q43 0 74 -18.5t47.5 -50t24 -66t7.5 -73.5t-7.5 -74t-24 -67t-47.5 -50.5t-74 -18.5q-47 0 -76 19
z" />
    <glyph glyph-name="uni2071" unicode="&#x2071;" horiz-adv-x="160" 
d="M110 369h-59v305h59v-305zM110 731h-59v64h59v-64z" />
    <glyph glyph-name="four.superior" unicode="&#x2074;" horiz-adv-x="400" 
d="M241 712l-146 -203h146v203zM240 457h-199v59l189 258h71v-265h61v-52h-61v-88h-61v88z" />
    <glyph glyph-name="five.superior" unicode="&#x2075;" horiz-adv-x="400" 
d="M66 376l4 54q39 -15 87 -15q46 0 79 21.5t33 60.5t-29.5 58t-75.5 19q-35 0 -87 -13l4 213h233v-51h-176l-3 -111q24 8 57 8q62 0 102 -29.5t40 -89.5q0 -67 -49 -103t-119 -36q-61 0 -100 14z" />
    <glyph glyph-name="six.superior" unicode="&#x2076;" horiz-adv-x="400" 
d="M143 439q26 -28 63 -28q40 0 62.5 24t22.5 61q0 36 -20.5 59.5t-60.5 23.5q-37 0 -62.5 -22t-25.5 -56q0 -35 21 -62zM329 770l-4 -51q-36 11 -72 11q-66 0 -99.5 -43.5t-36.5 -107.5q39 48 105 48q60 0 95 -34t35 -94q0 -62 -41.5 -99.5t-103.5 -37.5q-56 0 -91.5 29.5
t-47.5 70t-12 93.5q0 99 49.5 162t146.5 63q41 0 77 -10z" />
    <glyph glyph-name="seven.superior" unicode="&#x2077;" horiz-adv-x="400" 
d="M173 369h-74l171 349h-212v56h276v-53z" />
    <glyph glyph-name="eight.superior" unicode="&#x2078;" horiz-adv-x="400" 
d="M266 529q-23 18 -65 31q-90 -22 -90 -81q0 -31 25.5 -49.5t63.5 -18.5t64 18.5t26 50.5q0 31 -24 49zM146 627q22 -15 56 -25q31 9 54 27.5t23 43.5q0 29 -23 44.5t-56 15.5q-32 0 -55 -16.5t-23 -44.5t24 -45zM73 542q23 23 62 37q-36 16 -55 37.5t-19 57.5
q0 51 43.5 78.5t95.5 27.5q56 0 98 -26t42 -79q0 -62 -76 -95q89 -27 89 -105q0 -55 -46.5 -84t-106.5 -29q-61 0 -106 28t-45 83q0 45 24 69z" />
    <glyph glyph-name="nine.superior" unicode="&#x2079;" horiz-adv-x="400" 
d="M129 588q19 -24 62 -24q37 0 62.5 22t25.5 55q0 36 -22.5 63.5t-62.5 27.5t-62 -24.5t-22 -61.5q0 -35 19 -58zM72 372l4 52q32 -12 72 -12q66 0 99.5 44t36.5 107q-39 -48 -105 -48q-60 0 -95 34t-35 94q0 62 41.5 99.5t103.5 37.5q42 0 72.5 -16t46.5 -44.5t23.5 -61
t7.5 -71.5q0 -99 -48.5 -162t-145.5 -63q-39 0 -78 10z" />
    <glyph glyph-name="plus.superior" unicode="&#x207a;" horiz-adv-x="400" 
d="M175 494h-136v49h136v126h51v-126h136v-49h-136v-125h-51v125z" />
    <glyph glyph-name="plus.superior" unicode="&#xe1e1;" horiz-adv-x="400" 
d="M175 494h-136v49h136v126h51v-126h136v-49h-136v-125h-51v125z" />
    <glyph glyph-name="minus.superior" unicode="&#x207b;" horiz-adv-x="400" 
d="M362 494h-323v49h323v-49z" />
    <glyph glyph-name="minus.superior" unicode="&#xe1e5;" horiz-adv-x="400" 
d="M362 494h-323v49h323v-49z" />
    <glyph glyph-name="uni207F" unicode="&#x207f;" horiz-adv-x="364" 
d="M110 369h-59v233q0 38 -3 72h54l2 -54q40 60 105 60q104 0 104 -119v-192h-59v179q0 79 -66 79q-78 0 -78 -93v-165z" />
    <glyph glyph-name="zero.inferior" unicode="&#x2080;" horiz-adv-x="400" 
d="M126 -66q21 -55 74 -55q88 0 88 158q0 30 -3 53.5t-11 49t-27 39.5t-47 14q-88 0 -88 -156q0 -66 14 -103zM124 -154q-76 49 -76 191q0 39 7.5 73.5t24 66t47.5 50t73 18.5q43 0 74 -18.5t47.5 -50t24 -66t7.5 -73.5t-7.5 -74t-24 -67t-47.5 -50.5t-74 -18.5
q-47 0 -76 19z" />
    <glyph glyph-name="one.inferior" unicode="&#x2081;" horiz-adv-x="400" 
d="M258 -166h-63v335l-85 -62l-29 45l123 87h54v-405z" />
    <glyph glyph-name="two.inferior" unicode="&#x2082;" horiz-adv-x="400" 
d="M328 -166h-273v52l73 67q69 62 98 101.5t29 74.5q0 29 -23 45.5t-57 16.5q-50 0 -102 -25l-3 54q58 25 112 25q59 0 98.5 -28.5t39.5 -85.5q0 -47 -30.5 -90t-87.5 -95l-66 -60h192v-52z" />
    <glyph glyph-name="three.inferior" unicode="&#x2083;" horiz-adv-x="400" 
d="M55 -158l3 53q42 -16 100 -16q46 0 77 19.5t31 56.5q0 35 -29.5 50.5t-73.5 15.5h-54v49h45q106 0 106 66q0 30 -28 44t-67 14q-54 0 -96 -18l-3 52q53 17 108 17q62 0 105.5 -24.5t43.5 -79.5q0 -73 -75 -93q36 -9 59.5 -33t23.5 -59q0 -64 -49.5 -96.5t-119.5 -32.5
q-59 0 -107 15z" />
    <glyph glyph-name="four.inferior" unicode="&#x2084;" horiz-adv-x="400" 
d="M241 177l-146 -203h146v203zM240 -78h-199v59l189 258h71v-265h61v-52h-61v-88h-61v88z" />
    <glyph glyph-name="five.inferior" unicode="&#x2085;" horiz-adv-x="400" 
d="M66 -159l4 54q39 -15 87 -15q46 0 79 21t33 61q0 39 -29.5 58t-75.5 19q-35 0 -87 -13l4 213h233v-51h-176l-3 -111q24 8 57 8q62 0 102 -29.5t40 -89.5q0 -67 -49 -103t-119 -36q-61 0 -100 14z" />
    <glyph glyph-name="six.inferior" unicode="&#x2086;" horiz-adv-x="400" 
d="M143 -96q26 -28 63 -28q40 0 62.5 24t22.5 61q0 36 -20.5 59.5t-60.5 23.5q-37 0 -62.5 -22t-25.5 -56q0 -35 21 -62zM329 235l-4 -51q-36 11 -72 11q-66 0 -99.5 -43.5t-36.5 -107.5q39 48 105 48q60 0 95 -34t35 -94q0 -62 -41.5 -99.5t-103.5 -37.5q-56 0 -91.5 29.5
t-47.5 70t-12 93.5q0 99 49.5 162t146.5 63q41 0 77 -10z" />
    <glyph glyph-name="seven.inferior" unicode="&#x2087;" horiz-adv-x="400" 
d="M173 -166h-74l171 349h-212v56h276v-53z" />
    <glyph glyph-name="eight.inferior" unicode="&#x2088;" horiz-adv-x="400" 
d="M266 -6q-23 18 -65 31q-90 -22 -90 -81q0 -31 25.5 -49.5t63.5 -18.5t64 18.5t26 50.5q0 31 -24 49zM146 92q22 -15 56 -25q31 9 54 27.5t23 43.5q0 29 -23 44.5t-56 15.5q-32 0 -55 -16.5t-23 -44.5q0 -29 24 -45zM73 7q23 23 62 37q-36 16 -55 37.5t-19 57.5
q0 51 43.5 78.5t95.5 27.5q56 0 98 -26t42 -79q0 -62 -76 -95q89 -27 89 -105q0 -55 -46.5 -84t-106.5 -29q-61 0 -106 28t-45 83q0 45 24 69z" />
    <glyph glyph-name="nine.inferior" unicode="&#x2089;" horiz-adv-x="400" 
d="M129 53q19 -24 62 -24q37 0 62.5 22t25.5 55q0 36 -22.5 63.5t-62.5 27.5t-62 -24.5t-22 -61.5q0 -35 19 -58zM72 -163l4 52q32 -12 72 -12q66 0 99.5 44t36.5 107q-39 -48 -105 -48q-60 0 -95 34t-35 94q0 62 41.5 99.5t103.5 37.5q42 0 72.5 -16t46.5 -44.5t23.5 -61
t7.5 -71.5q0 -99 -48.5 -162t-145.5 -63q-39 0 -78 10z" />
    <glyph glyph-name="plus.inferior" unicode="&#x208a;" horiz-adv-x="400" 
d="M175 -38h-136v49h136v126h51v-126h136v-49h-136v-125h-51v125z" />
    <glyph glyph-name="plus.inferior" unicode="&#xe194;" horiz-adv-x="400" 
d="M175 -38h-136v49h136v126h51v-126h136v-49h-136v-125h-51v125z" />
    <glyph glyph-name="minus.inferior" unicode="&#x208b;" horiz-adv-x="400" 
d="M362 -38h-323v49h323v-49z" />
    <glyph glyph-name="minus.inferior" unicode="&#xe198;" horiz-adv-x="400" 
d="M362 -38h-323v49h323v-49z" />
    <glyph glyph-name="a.inferior" unicode="&#x2090;" horiz-adv-x="337" 
d="M231 -19h-24q-121 0 -121 -58q0 -25 16.5 -37t41.5 -12q43 0 65 26.5t22 66.5v14zM292 -166h-57l-3 49q-32 -56 -102 -56q-45 0 -73.5 23t-28.5 69q0 105 161 105h42v9q0 65 -75 65q-47 0 -90 -22l-4 50q43 19 99 19q127 0 127 -116v-126q0 -42 4 -69z" />
    <glyph glyph-name="a.inferior" unicode="&#xe150;" horiz-adv-x="337" 
d="M231 -19h-24q-121 0 -121 -58q0 -25 16.5 -37t41.5 -12q43 0 65 26.5t22 66.5v14zM292 -166h-57l-3 49q-32 -56 -102 -56q-45 0 -73.5 23t-28.5 69q0 105 161 105h42v9q0 65 -75 65q-47 0 -90 -22l-4 50q43 19 99 19q127 0 127 -116v-126q0 -42 4 -69z" />
    <glyph glyph-name="e.inferior" unicode="&#x2091;" horiz-adv-x="333" 
d="M92 15h159q0 83 -74 83q-39 0 -60.5 -24.5t-24.5 -58.5zM306 -28h-214q0 -42 27 -69.5t81 -27.5q52 0 86 18l3 -49q-45 -17 -94 -17q-80 0 -121.5 43t-41.5 118q0 66 39 111.5t105 45.5q130 0 130 -154v-19z" />
    <glyph glyph-name="e.inferior" unicode="&#xe154;" horiz-adv-x="333" 
d="M92 15h159q0 83 -74 83q-39 0 -60.5 -24.5t-24.5 -58.5zM306 -28h-214q0 -42 27 -69.5t81 -27.5q52 0 86 18l3 -49q-45 -17 -94 -17q-80 0 -121.5 43t-41.5 118q0 66 39 111.5t105 45.5q130 0 130 -154v-19z" />
    <glyph glyph-name="o.inferior" unicode="&#x2092;" horiz-adv-x="370" 
d="M116 -88q25 -35 69 -35q46 0 68.5 31.5t22.5 77.5q0 44 -22.5 76.5t-66.5 32.5q-46 0 -68.5 -32t-22.5 -77q0 -42 20 -74zM185 -173q-73 0 -113 44t-40 115q0 70 41.5 114.5t113.5 44.5t112 -43.5t40 -115.5q0 -70 -41 -114.5t-113 -44.5z" />
    <glyph glyph-name="o.inferior" unicode="&#xe15e;" horiz-adv-x="370" 
d="M116 -88q25 -35 69 -35q46 0 68.5 31.5t22.5 77.5q0 44 -22.5 76.5t-66.5 32.5q-46 0 -68.5 -32t-22.5 -77q0 -42 20 -74zM185 -173q-73 0 -113 44t-40 115q0 70 41.5 114.5t113.5 44.5t112 -43.5t40 -115.5q0 -70 -41 -114.5t-113 -44.5z" />
    <glyph glyph-name="x.inferior" unicode="&#x2093;" horiz-adv-x="318" 
d="M77 -166h-66l110 160l-100 145h70l72 -115l69 115h66l-99 -145l109 -160h-70l-78 128z" />
    <glyph glyph-name="x.inferior" unicode="&#xe167;" horiz-adv-x="318" 
d="M77 -166h-66l110 160l-100 145h70l72 -115l69 115h66l-99 -145l109 -160h-70l-78 128z" />
    <glyph glyph-name="schwa.inferior" unicode="&#x2094;" horiz-adv-x="333" 
d="M246 -43h-159q0 -83 74 -83q39 0 60.5 24.5t24.5 58.5zM32 -19v19h214q0 42 -27 69.5t-81 27.5q-52 0 -86 -18l-3 49q45 17 94 17q80 0 121.5 -43t41.5 -118q0 -66 -39 -111.5t-105 -45.5q-130 0 -130 154z" />
    <glyph glyph-name="Euro" unicode="&#x20ac;" 
d="M118 241h-89l11 50h72q-2 30 -2 43q0 15 2 41h-82l11 50h78q22 109 92 180.5t177 71.5q73 0 126 -27l-14 -65q-46 25 -106 25q-79 0 -127.5 -51.5t-66.5 -133.5h269l-11 -50h-266q-2 -30 -2 -42t2 -42h250l-11 -50h-231q15 -81 64.5 -133t128.5 -52q67 0 108 25l6 -68
q-40 -24 -119 -24q-110 0 -180.5 70t-89.5 182z" />
    <glyph glyph-name="afii61289" unicode="&#x2113;" horiz-adv-x="500" 
d="M226 557v-222q114 132 114 253q0 38 -15 61.5t-38 23.5q-25 0 -43 -30t-18 -86zM100 166h-2l-26 37l86 84v259q0 82 36.5 128.5t92.5 46.5q49 0 79.5 -34.5t30.5 -93.5q0 -142 -171 -318v-150q0 -47 22 -67t53 -20q44 0 88 38h2l24 -35q-58 -55 -130 -55q-57 0 -92 32.5
t-35 95.5v114z" />
    <glyph glyph-name="trademark" unicode="&#x2122;" horiz-adv-x="916" 
d="M449 266h-59v401h98l141 -336l137 336h97v-401h-62v357l-145 -357h-59l-148 357v-357zM199 266h-63v353h-131v48h326v-48h-132v-353z" />
    <glyph glyph-name="Omega" unicode="&#x2126;" horiz-adv-x="750" 
d="M338 0h-263v62h201v73q-89 17 -145 94.5t-56 170.5q0 120 90 201t210 81q121 0 211 -81t90 -201q0 -94 -56 -170.5t-146 -94.5v-73h201v-62h-263v177q86 2 139.5 66.5t53.5 151.5q0 93 -68 159.5t-162 66.5q-93 0 -161 -66.5t-68 -159.5q0 -87 53.5 -151.5t138.5 -66.5
v-177z" />
    <glyph glyph-name="estimated" unicode="&#x212e;" horiz-adv-x="600" 
d="M157 440v-145h291v145q-63 60 -147 60t-144 -60zM157 259v-181q59 -59 145 -59q63 0 109 28.5t84 91.5l35 -21q-46 -73 -98 -104t-130 -31q-115 0 -186.5 79t-71.5 197q0 119 71 197.5t187 78.5q115 0 187 -77t72 -199h-404z" />
    <glyph glyph-name="partialdiff" unicode="&#x2202;" 
d="M155 87q41 -55 104 -55q130 0 154 270q-71 76 -148 76q-70 0 -107 -50.5t-37 -122.5q0 -69 34 -118zM130 620l-36 44q68 56 145 56q67 0 117 -33.5t76 -89t38 -114t12 -120.5q0 -47 -5.5 -94t-21.5 -99.5t-40 -91.5t-65.5 -65t-93.5 -26q-89 0 -143.5 68.5t-54.5 159.5
q0 89 53 149t141 60q89 0 163 -74v34q-11 289 -166 289q-72 0 -119 -53z" />
    <glyph glyph-name="Delta" unicode="&#x2206;" horiz-adv-x="750" 
d="M695 0h-640l280 672h78zM374 605l-227 -546h456z" />
    <glyph glyph-name="product" unicode="&#x220f;" horiz-adv-x="750" 
d="M172 -200h-66v1000h539v-1000h-65v937h-408v-937z" />
    <glyph glyph-name="summation" unicode="&#x2211;" horiz-adv-x="750" 
d="M685 -200h-605v60l274 448l-255 435v57h569v-58h-491l255 -434l-275 -445h528v-63z" />
    <glyph glyph-name="minus" unicode="&#x2212;" 
d="M523 215h-503v59h503v-59z" />
    <glyph glyph-name="uni2215" unicode="&#x2215;" horiz-adv-x="169" 
d="M-98 -24h-59l424 715h59z" />
    <glyph glyph-name="uni2219" unicode="&#x2219;" horiz-adv-x="271" 
d="M179 266h-86v88h86v-88z" />
    <glyph glyph-name="radical" unicode="&#x221a;" horiz-adv-x="600" 
d="M352 -200h-58l-158 345l-46 -22l-23 45l102 47l149 -331l160 916h56z" />
    <glyph glyph-name="infinity" unicode="&#x221e;" horiz-adv-x="777" 
d="M146 176q30 -30 72 -30q22 0 43.5 12t33.5 25t31.5 37t27.5 32q-23 31 -37.5 48t-42.5 35t-55 18q-42 0 -71.5 -31t-29.5 -73q0 -40 28 -73zM450 274q-17 -20 -26 -32q47 -60 70 -78q31 -23 65 -23q42 0 71 31t29 74q0 40 -28.5 71t-69.5 31q-49 0 -111 -74zM423 157
q-6 8 -18 24.5t-14 19.5q-29 -37 -47.5 -56t-50.5 -36t-70 -17q-66 0 -112 44.5t-46 110.5q0 67 44 113t111 46q90 0 167 -114q30 39 46.5 57t49 36t70.5 18q68 0 114 -44t46 -112q0 -67 -44 -113t-111 -46q-76 0 -135 69z" />
    <glyph glyph-name="integral" unicode="&#x222b;" 
d="M111 -217l6 61q20 -10 47 -10q72 0 72 106v676q0 25 2 45t10 44.5t22 41t40 27.5t61 11q42 0 61 -10l-6 -61q-20 10 -47 10q-72 0 -72 -106v-676q0 -26 -2 -45.5t-9.5 -44t-21.5 -41t-39.5 -27.5t-61.5 -11q-41 0 -62 10z" />
    <glyph glyph-name="approxequal" unicode="&#x2248;" horiz-adv-x="600" 
d="M82 256h-45q22 141 125 141q47 0 142 -36.5t137 -36.5q63 0 79 78h43q-4 -56 -36 -97t-86 -41q-47 0 -144 36t-136 36q-32 0 -52.5 -23t-26.5 -57zM82 86h-45q22 140 125 140q47 0 142 -36t137 -36q63 0 79 78h43q-4 -57 -36 -98t-86 -41q-47 0 -144 36.5t-136 36.5
q-32 0 -52.5 -23t-26.5 -57z" />
    <glyph glyph-name="notequal" unicode="&#x2260;" 
d="M159 -24l-52 28l62 115h-149v60h181l68 130h-249v60h281l77 147l53 -27l-64 -120h156v-60h-188l-69 -130h257v-60h-288z" />
    <glyph glyph-name="lessequal" unicode="&#x2264;" 
d="M523 74l-503 189v66l503 188v-66l-420 -155l420 -157v-65zM523 -28h-503v60h503v-60z" />
    <glyph glyph-name="greaterequal" unicode="&#x2265;" 
d="M523 263l-503 -189v65l419 157l-419 155v66l503 -188v-66zM523 -28h-503v60h503v-60z" />
    <glyph glyph-name="lozenge" unicode="&#x25ca;" horiz-adv-x="600" 
d="M331 0h-63l-170 400l170 400h63l172 -400zM163 400l137 -333l137 333l-137 333z" />
    <glyph glyph-name="exclam.sc" unicode="&#xe000;" horiz-adv-x="271" 
d="M176 0h-82v84h82v-84zM165 165h-58l-12 368h83z" />
    <glyph glyph-name="dollar.sc" unicode="&#xe001;" horiz-adv-x="455" 
d="M242 -86h-45v75q-73 2 -132 23l5 66q57 -29 130 -29q53 0 85 23.5t32 69.5q0 31 -23 51t-70 45l-60 31q-50 26 -76 56t-26 75q0 59 41 93.5t104 45.5v80h45v-76q57 0 113 -17l-5 -63q-64 20 -107 20q-50 0 -82.5 -19.5t-32.5 -61.5q0 -26 19.5 -44t59.5 -39l64 -33
q59 -31 86 -61.5t27 -79.5q0 -65 -42.5 -104.5t-109.5 -48.5v-78z" />
    <glyph glyph-name="percent.sc" unicode="&#xe002;" horiz-adv-x="748" 
d="M237 -19h-56l332 571h55zM508 70q18 -38 57 -38q70 0 70 121q0 120 -70 120q-37 0 -53.5 -34t-16.5 -86q0 -50 13 -83zM502 4q-64 40 -64 149q0 66 30.5 115t96.5 49t97 -49t31 -115t-31 -115t-97 -49q-37 0 -63 15zM126 296q18 -38 57 -38q70 0 70 121q0 120 -70 120
q-37 0 -53.5 -34t-16.5 -86q0 -50 13 -83zM120 230q-64 40 -64 149q0 66 30.5 115t96.5 49t97 -49t31 -115t-31 -115t-97 -49q-37 0 -63 15z" />
    <glyph glyph-name="ampersand.sc" unicode="&#xe003;" horiz-adv-x="532" 
d="M362 248h-105q-140 0 -140 -105q0 -97 140 -97q56 0 105 12v190zM430 248v-235q-97 -24 -173 -24q-94 0 -154.5 36t-60.5 117q0 54 33.5 90.5t87.5 41.5q-107 25 -107 122q0 69 58 108t141 39q74 0 129 -17l-3 -61q-57 21 -127 21q-52 0 -88.5 -23.5t-36.5 -66.5
q0 -53 35 -73t97 -20h101v60h68v-60h85v-55h-85z" />
    <glyph glyph-name="question.sc" unicode="&#xe004;" horiz-adv-x="353" 
d="M187 0h-82v84h82v-84zM179 165h-66q0 41 16 69t54 64q56 50 56 106q0 38 -26.5 58t-69.5 20q-46 0 -108 -19l-4 61q58 19 121 19q71 0 116 -35t45 -99q0 -66 -70 -132q-36 -34 -50 -57t-14 -55z" />
    <glyph glyph-name="a.sc" unicode="&#xe005;" horiz-adv-x="528" 
d="M262 467l-104 -268h207zM85 0h-74l212 533h81l213 -533h-78l-53 141h-247z" />
    <glyph glyph-name="b.sc" unicode="&#xe006;" horiz-adv-x="466" 
d="M148 479v-178h59q125 0 125 94q0 84 -113 84h-71zM148 250v-196h55q142 0 142 96q0 100 -150 100h-47zM201 0h-126v533h154q46 0 83.5 -10.5t66.5 -41.5t29 -80q0 -48 -26 -80t-73 -43q50 -12 82 -45.5t32 -82.5q0 -47 -19.5 -78.5t-54.5 -46t-69.5 -20t-78.5 -5.5z" />
    <glyph glyph-name="c.sc" unicode="&#xe007;" horiz-adv-x="482" 
d="M447 74l6 -63q-54 -22 -129 -22q-128 0 -204 75t-76 202q0 121 79 199t201 78q74 0 126 -21l-5 -64q-56 22 -115 22q-96 0 -152 -59.5t-56 -154.5q0 -97 55 -155.5t152 -58.5q65 0 118 22z" />
    <glyph glyph-name="d.sc" unicode="&#xe008;" horiz-adv-x="546" 
d="M148 475v-418h45q231 0 231 213q0 97 -52 151t-150 54h-74zM190 0h-115v533h143q130 0 207 -64t77 -199q0 -73 -24.5 -127t-68.5 -84.5t-98.5 -44.5t-120.5 -14z" />
    <glyph glyph-name="e.sc" unicode="&#xe009;" horiz-adv-x="417" 
d="M376 0h-301v533h293v-57h-220v-174h209v-57h-209v-187h228v-58z" />
    <glyph glyph-name="f.sc" unicode="&#xe00a;" horiz-adv-x="391" 
d="M148 0h-73v533h285v-57h-212v-177h203v-57h-203v-242z" />
    <glyph glyph-name="g.sc" unicode="&#xe00b;" horiz-adv-x="555" 
d="M500 284v-263q-88 -32 -175 -32q-127 0 -204 75.5t-77 201.5q0 122 80 199.5t207 77.5q82 0 144 -26l-5 -64q-65 27 -136 27q-97 0 -154.5 -59.5t-57.5 -154.5q0 -93 53.5 -155t150.5 -62q61 0 104 16v163h-103v56h173z" />
    <glyph glyph-name="h.sc" unicode="&#xe00c;" horiz-adv-x="554" 
d="M148 0h-73v533h73v-227h257v227h73v-533h-73v242h-257v-242z" />
    <glyph glyph-name="i.sc" unicode="&#xe00d;" horiz-adv-x="223" 
d="M148 0h-73v533h73v-533z" />
    <glyph glyph-name="j.sc" unicode="&#xe00e;" horiz-adv-x="279" 
d="M6 -1l5 61q27 -9 49 -9q75 0 75 95v387h73v-393q0 -70 -33 -110.5t-102 -40.5q-34 0 -67 10z" />
    <glyph glyph-name="k.sc" unicode="&#xe00f;" horiz-adv-x="495" 
d="M148 0h-73v533h73v-240l230 240h90l-251 -250l272 -283h-96l-245 265v-265z" />
    <glyph glyph-name="l.sc" unicode="&#xe010;" horiz-adv-x="385" 
d="M371 0h-296v533h73v-471h223v-62z" />
    <glyph glyph-name="m.sc" unicode="&#xe011;" horiz-adv-x="722" 
d="M144 0h-69v533h119l168 -447l169 447h116v-533h-72v474l-182 -474h-68l-181 474v-474z" />
    <glyph glyph-name="n.sc" unicode="&#xe012;" horiz-adv-x="571" 
d="M143 0h-68v533h99l254 -457v457h68v-533h-101l-252 456v-456z" />
    <glyph glyph-name="o.sc" unicode="&#xe013;" horiz-adv-x="580" 
d="M161 118q47 -67 129 -67q86 0 127 62.5t41 152.5t-41 152.5t-127 62.5q-83 0 -125.5 -63t-42.5 -152t39 -148zM181 10q-137 66 -137 256q0 119 64.5 198t181.5 79q120 0 183 -77.5t63 -199.5q0 -120 -64 -198.5t-182 -78.5q-62 0 -109 21z" />
    <glyph glyph-name="p.sc" unicode="&#xe014;" horiz-adv-x="444" 
d="M147 476v-201h41q26 0 45 1.5t39.5 7.5t33.5 16.5t21.5 29.5t8.5 46q0 49 -30.5 74.5t-80.5 25.5h-78zM147 0h-72v533h166q76 0 124.5 -40.5t48.5 -115.5q0 -77 -51 -118t-126 -41h-90v-218z" />
    <glyph glyph-name="q.sc" unicode="&#xe015;" horiz-adv-x="580" 
d="M161 118q47 -67 129 -67q86 0 127 62.5t41 152.5t-41 152.5t-127 62.5q-83 0 -125.5 -63t-42.5 -152t39 -148zM515 -104h-96l-92 96q-18 -3 -37 -3q-120 0 -183 77t-63 200q0 119 64.5 198t181.5 79q120 0 183 -77.5t63 -199.5q0 -86 -35 -153t-101 -99z" />
    <glyph glyph-name="r.sc" unicode="&#xe016;" horiz-adv-x="466" 
d="M147 476v-178h57q54 0 91.5 21t37.5 70q0 50 -33.5 68.5t-92.5 18.5h-60zM147 0h-72v533h158q74 0 125.5 -33.5t51.5 -106.5q0 -50 -33 -83t-86 -42q47 -14 71 -68l85 -200h-81l-69 170q-17 40 -37 55t-67 15h-46v-240z" />
    <glyph glyph-name="s.sc" unicode="&#xe017;" horiz-adv-x="408" 
d="M40 11l6 67q57 -29 120 -29q117 0 117 90q0 33 -23 56.5t-68 46.5l-47 24q-50 26 -73.5 55t-23.5 79q0 70 53 106.5t128 36.5q55 0 112 -17l-5 -63q-54 20 -104 20q-108 0 -108 -81q0 -30 17.5 -47.5t56.5 -38.5l51 -26q57 -30 84 -62t27 -83q0 -73 -52 -114.5
t-137 -41.5q-71 0 -131 22z" />
    <glyph glyph-name="t.sc" unicode="&#xe018;" horiz-adv-x="415" 
d="M244 0h-74v470h-162v63h399v-63h-163v-470z" />
    <glyph glyph-name="u.sc" unicode="&#xe019;" horiz-adv-x="555" 
d="M144 533v-342q0 -63 34 -101.5t98 -38.5q65 0 99.5 37.5t34.5 102.5v342h74v-342q0 -91 -57 -146.5t-151 -55.5q-96 0 -150.5 52.5t-54.5 147.5v344h73z" />
    <glyph glyph-name="v.sc" unicode="&#xe01a;" horiz-adv-x="496" 
d="M287 0h-81l-199 533h78l164 -459l167 459h72z" />
    <glyph glyph-name="w.sc" unicode="&#xe01b;" horiz-adv-x="757" 
d="M246 0h-83l-153 533h72l126 -458l134 458h79l132 -458l125 458h69l-152 -533h-83l-133 460z" />
    <glyph glyph-name="x.sc" unicode="&#xe01c;" horiz-adv-x="502" 
d="M90 0h-81l199 277l-181 256h86l142 -211l140 211h81l-180 -254l196 -279h-87l-154 234z" />
    <glyph glyph-name="y.sc" unicode="&#xe01d;" horiz-adv-x="476" 
d="M273 0h-73v217l-197 316h82l154 -257l155 257h78l-199 -316v-217z" />
    <glyph glyph-name="z.sc" unicode="&#xe01e;" horiz-adv-x="418" 
d="M392 0h-366v62l283 412h-274v59h350v-62l-279 -412h286v-59z" />
    <glyph glyph-name="agrave.sc" unicode="&#xe01f;" horiz-adv-x="528" 
d="M262 467l-104 -268h207zM85 0h-74l212 533h81l213 -533h-78l-53 141h-247zM297 610h-59l-97 136h85z" />
    <glyph glyph-name="aacute.sc" unicode="&#xe020;" horiz-adv-x="528" 
d="M262 467l-104 -268h207zM85 0h-74l212 533h81l213 -533h-78l-53 141h-247zM285 610h-61l72 136h85z" />
    <glyph glyph-name="acircumflex.sc" unicode="&#xe021;" horiz-adv-x="528" 
d="M262 467l-104 -268h207zM85 0h-74l212 533h81l213 -533h-78l-53 141h-247zM187 610h-65l103 136h74l103 -136h-65l-75 96z" />
    <glyph glyph-name="atilde.sc" unicode="&#xe022;" horiz-adv-x="528" 
d="M262 467l-104 -268h207zM85 0h-74l212 533h81l213 -533h-78l-53 141h-247zM164 624h-48q0 38 24.5 69t64.5 31q26 0 64.5 -20.5t52.5 -20.5q17 0 28 14.5t11 30.5h47q0 -35 -24 -67t-61 -32q-27 0 -63 20t-53 20t-30 -14.5t-13 -30.5z" />
    <glyph glyph-name="adieresis.sc" unicode="&#xe023;" horiz-adv-x="528" 
d="M262 467l-104 -268h207zM85 0h-74l212 533h81l213 -533h-78l-53 141h-247zM218 634h-66v87h66v-87zM373 634h-66v87h66v-87z" />
    <glyph glyph-name="aring.sc" unicode="&#xe024;" horiz-adv-x="528" 
d="M262 467l-104 -268h207zM85 0h-74l212 533h81l213 -533h-78l-53 141h-247zM202 678q0 -25 17.5 -42t41.5 -17q25 0 42.5 17t17.5 42q0 24 -17.5 41t-42.5 17t-42 -17t-17 -41zM224 592q-26 11 -42 34t-16 52q0 39 28 65.5t67 26.5t67.5 -26.5t28.5 -65.5t-28.5 -66
t-67.5 -27q-22 0 -37 7z" />
    <glyph glyph-name="amacron.sc" unicode="&#xe025;" horiz-adv-x="528" 
d="M262 467l-104 -268h207zM85 0h-74l212 533h81l213 -533h-78l-53 141h-247zM385 653h-245v51h245v-51z" />
    <glyph glyph-name="abreve.sc" unicode="&#xe026;" horiz-adv-x="528" 
d="M262 467l-104 -268h207zM85 0h-74l212 533h81l213 -533h-78l-53 141h-247zM143 735h43q3 -31 23 -51t53 -20t53 20t24 51h43q0 -19 -8.5 -43.5t-37.5 -49t-74 -24.5q-44 0 -73 24.5t-37.5 49t-8.5 43.5z" />
    <glyph glyph-name="aogonek.sc" unicode="&#xe027;" horiz-adv-x="528" 
d="M262 467l-104 -268h207zM85 0h-74l212 533h81l213 -533h-25q-73 -45 -73 -93q0 -24 14.5 -35.5t34.5 -11.5q28 0 59 15l11 -35q-40 -20 -81 -20t-66.5 22t-25.5 54q0 68 82 104h-8l-53 141h-247z" />
    <glyph glyph-name="ae.sc" unicode="&#xe028;" horiz-adv-x="711" 
d="M375 482l-179 -283h179v283zM78 0h-78l337 533h325v-57h-216v-174h205v-57h-205v-187h224v-58h-295v143h-208z" />
    <glyph glyph-name="cacute.sc" unicode="&#xe029;" horiz-adv-x="482" 
d="M447 74l6 -63q-54 -22 -129 -22q-128 0 -204 75t-76 202q0 121 79 199t201 78q74 0 126 -21l-5 -64q-56 22 -115 22q-96 0 -152 -59.5t-56 -154.5q0 -97 55 -155.5t152 -58.5q65 0 118 22zM317 610h-61l72 136h85z" />
    <glyph glyph-name="ccircumflex.sc" unicode="&#xe02a;" horiz-adv-x="482" 
d="M447 74l6 -63q-54 -22 -129 -22q-128 0 -204 75t-76 202q0 121 79 199t201 78q74 0 126 -21l-5 -64q-56 22 -115 22q-96 0 -152 -59.5t-56 -154.5q0 -97 55 -155.5t152 -58.5q65 0 118 22zM223 610h-65l103 136h74l103 -136h-65l-75 96z" />
    <glyph glyph-name="ccaron.sc" unicode="&#xe02b;" horiz-adv-x="482" 
d="M447 74l6 -63q-54 -22 -129 -22q-128 0 -204 75t-76 202q0 121 79 199t201 78q74 0 126 -21l-5 -64q-56 22 -115 22q-96 0 -152 -59.5t-56 -154.5q0 -97 55 -155.5t152 -58.5q65 0 118 22zM340 610h-74l-103 136h65l75 -97l75 97h65z" />
    <glyph glyph-name="cdotaccent.sc" unicode="&#xe02c;" horiz-adv-x="482" 
d="M447 74l6 -63q-54 -22 -129 -22q-128 0 -204 75t-76 202q0 121 79 199t201 78q74 0 126 -21l-5 -64q-56 22 -115 22q-96 0 -152 -59.5t-56 -154.5q0 -97 55 -155.5t152 -58.5q65 0 118 22zM340 634h-73v87h73v-87z" />
    <glyph glyph-name="ccedilla.sc" unicode="&#xe02d;" horiz-adv-x="482" 
d="M195 -161l13 35q39 -17 74 -17q22 0 36 9t14 25q0 29 -39 29q-19 0 -39 -7l-15 18l43 61q-111 12 -174.5 85t-63.5 189q0 121 79 199t201 78q74 0 126 -21l-5 -64q-56 22 -115 22q-96 0 -152 -59.5t-56 -154.5q0 -97 55 -155.5t152 -58.5q65 0 118 22l6 -63
q-54 -22 -129 -22h-7l-31 -42q20 4 32 4q30 0 48 -15t18 -42q0 -34 -27.5 -54t-73.5 -20t-88 19z" />
    <glyph glyph-name="dcaron.sc" unicode="&#xe02e;" horiz-adv-x="546" 
d="M147 475v-418h45q231 0 231 213q0 97 -52 151t-150 54h-74zM189 0h-115v533h143q130 0 207 -64t77 -199q0 -73 -24.5 -127t-68.5 -84.5t-98.5 -44.5t-120.5 -14zM287 610h-74l-103 136h65l75 -97l75 97h65z" />
    <glyph glyph-name="dcroat.sc" unicode="&#xe02f;" horiz-adv-x="546" 
d="M148 245v-188h45q231 0 231 213q0 97 -52 151t-150 54h-74v-178h137v-52h-137zM190 0h-114v245h-58v52h58v236h142q130 0 207 -64t77 -199q0 -73 -24.5 -127t-68.5 -84.5t-98.5 -44.5t-120.5 -14z" />
    <glyph glyph-name="eth.sc" unicode="&#xe030;" horiz-adv-x="546" 
d="M148 245v-188h45q231 0 231 213q0 97 -52 151t-150 54h-74v-178h137v-52h-137zM190 0h-114v245h-58v52h58v236h142q130 0 207 -64t77 -199q0 -73 -24.5 -127t-68.5 -84.5t-98.5 -44.5t-120.5 -14z" />
    <glyph glyph-name="egrave.sc" unicode="&#xe031;" horiz-adv-x="417" 
d="M376 0h-301v533h293v-57h-220v-174h209v-57h-209v-187h228v-58zM265 610h-59l-97 136h85z" />
    <glyph glyph-name="eacute.sc" unicode="&#xe032;" horiz-adv-x="417" 
d="M376 0h-301v533h293v-57h-220v-174h209v-57h-209v-187h228v-58zM238 610h-61l72 136h85z" />
    <glyph glyph-name="ecircumflex.sc" unicode="&#xe033;" horiz-adv-x="417" 
d="M376 0h-301v533h293v-57h-220v-174h209v-57h-209v-187h228v-58zM146 610h-65l103 136h74l103 -136h-65l-75 96z" />
    <glyph glyph-name="ecaron.sc" unicode="&#xe034;" horiz-adv-x="417" 
d="M376 0h-301v533h293v-57h-220v-174h209v-57h-209v-187h228v-58zM259 610h-74l-103 136h65l75 -97l75 97h65z" />
    <glyph glyph-name="edieresis.sc" unicode="&#xe035;" horiz-adv-x="417" 
d="M376 0h-301v533h293v-57h-220v-174h209v-57h-209v-187h228v-58zM177 634h-66v87h66v-87zM332 634h-66v87h66v-87z" />
    <glyph glyph-name="edotaccent.sc" unicode="&#xe036;" horiz-adv-x="417" 
d="M376 0h-301v533h293v-57h-220v-174h209v-57h-209v-187h228v-58zM259 634h-73v87h73v-87z" />
    <glyph glyph-name="emacron.sc" unicode="&#xe037;" horiz-adv-x="417" 
d="M376 0h-301v533h293v-57h-220v-174h209v-57h-209v-187h228v-58zM344 653h-245v51h245v-51z" />
    <glyph glyph-name="ebreve.sc" unicode="&#xe038;" horiz-adv-x="417" 
d="M376 0h-301v533h293v-57h-220v-174h209v-57h-209v-187h228v-58zM102 735h43q3 -31 23 -51t53 -20t53 20t24 51h43q0 -19 -8.5 -43.5t-37.5 -49t-74 -24.5q-44 0 -73 24.5t-37.5 49t-8.5 43.5z" />
    <glyph glyph-name="eogonek.sc" unicode="&#xe039;" horiz-adv-x="417" 
d="M289 0h-214v533h293v-57h-220v-174h209v-57h-209v-187h228v-58h-42q-73 -45 -73 -93q0 -24 14.5 -35.5t34.5 -11.5q28 0 59 15l11 -35q-40 -20 -81 -20t-66.5 22t-25.5 54q0 68 82 104z" />
    <glyph glyph-name="gcircumflex.sc" unicode="&#xe03a;" horiz-adv-x="555" 
d="M500 284v-263q-88 -32 -175 -32q-127 0 -204 75.5t-77 201.5q0 122 80 199.5t207 77.5q82 0 144 -26l-5 -64q-65 27 -136 27q-97 0 -154.5 -59.5t-57.5 -154.5q0 -93 53.5 -155t150.5 -62q61 0 104 16v163h-103v56h173zM234 610h-65l103 136h74l103 -136h-65l-75 96z" />
    <glyph glyph-name="gdotaccent.sc" unicode="&#xe03b;" horiz-adv-x="555" 
d="M500 284v-263q-88 -32 -175 -32q-127 0 -204 75.5t-77 201.5q0 122 80 199.5t207 77.5q82 0 144 -26l-5 -64q-65 27 -136 27q-97 0 -154.5 -59.5t-57.5 -154.5q0 -93 53.5 -155t150.5 -62q61 0 104 16v163h-103v56h173zM346 634h-73v87h73v-87z" />
    <glyph glyph-name="gbreve.sc" unicode="&#xe03c;" horiz-adv-x="555" 
d="M500 284v-263q-88 -32 -175 -32q-127 0 -204 75.5t-77 201.5q0 122 80 199.5t207 77.5q82 0 144 -26l-5 -64q-65 27 -136 27q-97 0 -154.5 -59.5t-57.5 -154.5q0 -93 53.5 -155t150.5 -62q61 0 104 16v163h-103v56h173zM190 735h43q3 -31 23 -51t53 -20t53 20t24 51h43
q0 -19 -8.5 -43.5t-37.5 -49t-74 -24.5q-44 0 -73 24.5t-37.5 49t-8.5 43.5z" />
    <glyph glyph-name="gcommaaccent.sc" unicode="&#xe03d;" horiz-adv-x="555" 
d="M500 284v-263q-88 -32 -175 -32q-127 0 -204 75.5t-77 201.5q0 122 80 199.5t207 77.5q82 0 144 -26l-5 -64q-65 27 -136 27q-97 0 -154.5 -59.5t-57.5 -154.5q0 -93 53.5 -155t150.5 -62q61 0 104 16v163h-103v56h173zM295 -227h-50l47 159h67z" />
    <glyph glyph-name="hcircumflex.sc" unicode="&#xe03e;" horiz-adv-x="554" 
d="M148 0h-73v533h73v-227h257v227h73v-533h-73v242h-257v-242zM202 610h-65l103 136h74l103 -136h-65l-75 96z" />
    <glyph glyph-name="hbar.sc" unicode="&#xe03f;" horiz-adv-x="554" 
d="M149 374v-97h254v97h-254zM149 0h-74v533h74v-106h254v106h76v-533h-76v216h-254v-216z" />
    <glyph glyph-name="igrave.sc" unicode="&#xe040;" horiz-adv-x="223" 
d="M156 610h-59l-97 136h85zM148 0h-73v533h73v-533z" />
    <glyph glyph-name="iacute.sc" unicode="&#xe041;" horiz-adv-x="223" 
d="M127 610h-61l72 136h85zM148 0h-73v533h73v-533z" />
    <glyph glyph-name="icircumflex.sc" unicode="&#xe042;" horiz-adv-x="223" 
d="M37 610h-65l103 136h74l103 -136h-65l-75 96zM148 0h-73v533h73v-533z" />
    <glyph glyph-name="itilde.sc" unicode="&#xe043;" horiz-adv-x="223" 
d="M15 624h-48q0 38 24.5 69t64.5 31q26 0 64.5 -20.5t52.5 -20.5q17 0 28 14.5t11 30.5h47q0 -35 -24 -67t-61 -32q-26 0 -62 20t-54 20q-17 0 -30 -14.5t-13 -30.5zM148 0h-73v533h73v-533z" />
    <glyph glyph-name="idieresis.sc" unicode="&#xe044;" horiz-adv-x="223" 
d="M68 634h-66v87h66v-87zM223 634h-66v87h66v-87zM148 0h-73v533h73v-533z" />
    <glyph glyph-name="imacron.sc" unicode="&#xe045;" horiz-adv-x="223" 
d="M235 653h-245v51h245v-51zM148 0h-73v533h73v-533z" />
    <glyph glyph-name="idotaccent.sc" unicode="&#xe046;" horiz-adv-x="223" 
d="M148 0h-73v533h73v-533zM148 634h-73v87h73v-87z" />
    <glyph glyph-name="iogonek.sc" unicode="&#xe047;" horiz-adv-x="223" 
d="M167 -130l11 -35q-33 -15 -65 -15q-39 0 -63.5 20.5t-24.5 55.5q0 63 78 104h-28v533h73v-533q-69 -38 -69 -95q0 -22 12.5 -33.5t32.5 -11.5q19 0 43 10z" />
    <glyph glyph-name="jcircumflex.sc" unicode="&#xe048;" horiz-adv-x="279" 
d="M90 610h-65l103 136h74l103 -136h-65l-75 96zM6 -1l5 61q27 -9 49 -9q75 0 75 95v387h73v-393q0 -70 -33 -110.5t-102 -40.5q-34 0 -67 10z" />
    <glyph glyph-name="kcommaaccent.sc" unicode="&#xe049;" horiz-adv-x="495" 
d="M148 0h-73v533h73v-240l230 240h90l-251 -250l272 -283h-96l-245 265v-265zM246 -227h-50l47 159h67z" />
    <glyph glyph-name="lacute.sc" unicode="&#xe04a;" horiz-adv-x="385" 
d="M371 0h-296v533h73v-471h223v-62zM143 610h-61l72 136h85z" />
    <glyph glyph-name="lcaron.sc" unicode="&#xe04b;" horiz-adv-x="385" 
d="M371 0h-296v533h73v-471h223v-62zM278 437h-53l21 164h75z" />
    <glyph glyph-name="lcommaaccent.sc" unicode="&#xe04c;" horiz-adv-x="385" 
d="M371 0h-296v533h73v-471h223v-62zM198 -227h-50l47 159h67z" />
    <glyph glyph-name="ldot.sc" unicode="&#xe04d;" horiz-adv-x="385" 
d="M371 0h-296v533h73v-471h223v-62zM336 263h-73v87h73v-87z" />
    <glyph glyph-name="lslash.sc" unicode="&#xe04e;" horiz-adv-x="385" 
d="M371 0h-296v232l-60 -54v55l60 54v246h73v-193l112 98v-58l-112 -97v-221h223v-62z" />
    <glyph glyph-name="nacute.sc" unicode="&#xe04f;" horiz-adv-x="571" 
d="M143 0h-68v533h99l254 -457v457h68v-533h-101l-252 456v-456zM309 610h-61l72 136h85z" />
    <glyph glyph-name="ncaron.sc" unicode="&#xe050;" horiz-adv-x="571" 
d="M143 0h-68v533h99l254 -457v457h68v-533h-101l-252 456v-456zM328 610h-74l-103 136h65l75 -97l75 97h65z" />
    <glyph glyph-name="ntilde.sc" unicode="&#xe051;" horiz-adv-x="571" 
d="M143 0h-68v533h99l254 -457v457h68v-533h-101l-252 456v-456zM189 624h-48q0 38 24.5 69t64.5 31q26 0 64.5 -20.5t52.5 -20.5q17 0 28 14.5t11 30.5h47q0 -35 -24 -67t-61 -32q-26 0 -62 20t-54 20q-17 0 -30 -14.5t-13 -30.5z" />
    <glyph glyph-name="ncommaaccent.sc" unicode="&#xe052;" horiz-adv-x="571" 
d="M143 0h-68v533h99l254 -457v457h68v-533h-101l-252 456v-456zM277 -227h-50l47 159h67z" />
    <glyph glyph-name="ograve.sc" unicode="&#xe054;" horiz-adv-x="580" 
d="M161 118q47 -67 129 -67q86 0 127 62.5t41 152.5t-41 152.5t-127 62.5q-83 0 -125.5 -63t-42.5 -152t39 -148zM181 10q-137 66 -137 256q0 119 64.5 198t181.5 79q120 0 183 -77.5t63 -199.5q0 -120 -64 -198.5t-182 -78.5q-62 0 -109 21zM332 610h-59l-97 136h85z" />
    <glyph glyph-name="oacute.sc" unicode="&#xe055;" horiz-adv-x="580" 
d="M161 118q47 -67 129 -67q86 0 127 62.5t41 152.5t-41 152.5t-127 62.5q-83 0 -125.5 -63t-42.5 -152t39 -148zM181 10q-137 66 -137 256q0 119 64.5 198t181.5 79q120 0 183 -77.5t63 -199.5q0 -120 -64 -198.5t-182 -78.5q-62 0 -109 21zM305 610h-61l72 136h85z" />
    <glyph glyph-name="ocircumflex.sc" unicode="&#xe056;" horiz-adv-x="580" 
d="M161 118q47 -67 129 -67q86 0 127 62.5t41 152.5t-41 152.5t-127 62.5q-83 0 -125.5 -63t-42.5 -152t39 -148zM181 10q-137 66 -137 256q0 119 64.5 198t181.5 79q120 0 183 -77.5t63 -199.5q0 -120 -64 -198.5t-182 -78.5q-62 0 -109 21zM215 610h-65l103 136h74
l103 -136h-65l-75 96z" />
    <glyph glyph-name="otilde.sc" unicode="&#xe057;" horiz-adv-x="580" 
d="M161 118q47 -67 129 -67q86 0 127 62.5t41 152.5t-41 152.5t-127 62.5q-83 0 -125.5 -63t-42.5 -152t39 -148zM181 10q-137 66 -137 256q0 119 64.5 198t181.5 79q120 0 183 -77.5t63 -199.5q0 -120 -64 -198.5t-182 -78.5q-62 0 -109 21zM192 624h-48q0 38 24.5 69
t64.5 31q26 0 64.5 -20.5t52.5 -20.5q17 0 28 14.5t11 30.5h47q0 -35 -24 -67t-61 -32q-27 0 -63 20t-53 20t-30 -14.5t-13 -30.5z" />
    <glyph glyph-name="odieresis.sc" unicode="&#xe058;" horiz-adv-x="580" 
d="M161 118q47 -67 129 -67q86 0 127 62.5t41 152.5t-41 152.5t-127 62.5q-83 0 -125.5 -63t-42.5 -152t39 -148zM181 10q-137 66 -137 256q0 119 64.5 198t181.5 79q120 0 183 -77.5t63 -199.5q0 -120 -64 -198.5t-182 -78.5q-62 0 -109 21zM247 634h-66v87h66v-87z
M402 634h-66v87h66v-87z" />
    <glyph glyph-name="omacron.sc" unicode="&#xe059;" horiz-adv-x="580" 
d="M161 118q47 -67 129 -67q86 0 127 62.5t41 152.5t-41 152.5t-127 62.5q-83 0 -125.5 -63t-42.5 -152t39 -148zM181 10q-137 66 -137 256q0 119 64.5 198t181.5 79q120 0 183 -77.5t63 -199.5q0 -120 -64 -198.5t-182 -78.5q-62 0 -109 21zM413 653h-245v51h245v-51z" />
    <glyph glyph-name="obreve.sc" unicode="&#xe05a;" horiz-adv-x="580" 
d="M161 118q47 -67 129 -67q86 0 127 62.5t41 152.5t-41 152.5t-127 62.5q-83 0 -125.5 -63t-42.5 -152t39 -148zM181 10q-137 66 -137 256q0 119 64.5 198t181.5 79q120 0 183 -77.5t63 -199.5q0 -120 -64 -198.5t-182 -78.5q-62 0 -109 21zM171 735h43q3 -31 23 -51
t53 -20t53 20t24 51h43q0 -19 -8.5 -43.5t-37.5 -49t-74 -24.5q-44 0 -73 24.5t-37.5 49t-8.5 43.5z" />
    <glyph glyph-name="ohungarumlaut.sc" unicode="&#xe05b;" horiz-adv-x="580" 
d="M161 118q47 -67 129 -67q86 0 127 62.5t41 152.5t-41 152.5t-127 62.5q-83 0 -125.5 -63t-42.5 -152t39 -148zM181 10q-137 66 -137 256q0 119 64.5 198t181.5 79q120 0 183 -77.5t63 -199.5q0 -120 -64 -198.5t-182 -78.5q-62 0 -109 21zM218 610h-60l72 136h85z
M388 610h-60l72 136h85z" />
    <glyph glyph-name="oslash.sc" unicode="&#xe05c;" horiz-adv-x="580" 
d="M147 143l258 289q-43 49 -115 49q-83 0 -125.5 -63t-42.5 -152q0 -70 25 -123zM432 391l-258 -289q43 -51 116 -51q86 0 127 62.5t41 152.5q0 74 -26 125zM67 -18l-35 31l62 70q-50 69 -50 183q0 119 64.5 198t181.5 79q100 0 163 -57l58 65l34 -33l-61 -68
q52 -71 52 -184q0 -120 -64 -198.5t-182 -78.5q-102 0 -165 58z" />
    <glyph glyph-name="oe.sc" unicode="&#xe05d;" horiz-adv-x="724" 
d="M389 61v410q-34 10 -76 10q-93 0 -142 -64.5t-49 -150.5t49 -150.5t142 -64.5q40 0 76 10zM683 0h-281q-52 -11 -89 -11q-130 0 -199.5 77t-69.5 200q0 119 71.5 198t197.5 79q51 0 90 -10h272v-57h-216v-174h205v-57h-205v-187h224v-58z" />
    <glyph glyph-name="racute.sc" unicode="&#xe05e;" horiz-adv-x="466" 
d="M147 476v-178h57q54 0 91.5 21t37.5 70q0 50 -33.5 68.5t-92.5 18.5h-60zM147 0h-72v533h158q74 0 125.5 -33.5t51.5 -106.5q0 -50 -33 -83t-86 -42q47 -14 71 -68l85 -200h-81l-69 170q-17 40 -37 55t-67 15h-46v-240zM247 610h-61l72 136h85z" />
    <glyph glyph-name="rcommaaccent.sc" unicode="&#xe05f;" horiz-adv-x="466" 
d="M147 476v-178h57q54 0 91.5 21t37.5 70q0 50 -33.5 68.5t-92.5 18.5h-60zM147 0h-72v533h158q74 0 125.5 -33.5t51.5 -106.5q0 -50 -33 -83t-86 -42q47 -14 71 -68l85 -200h-81l-69 170q-17 40 -37 55t-67 15h-46v-240zM233 -227h-50l47 159h67z" />
    <glyph glyph-name="rcaron.sc" unicode="&#xe060;" horiz-adv-x="466" 
d="M147 476v-178h57q54 0 91.5 21t37.5 70q0 50 -33.5 68.5t-92.5 18.5h-60zM147 0h-72v533h158q74 0 125.5 -33.5t51.5 -106.5q0 -50 -33 -83t-86 -42q47 -14 71 -68l85 -200h-81l-69 170q-17 40 -37 55t-67 15h-46v-240zM267 610h-74l-103 136h65l75 -97l75 97h65z" />
    <glyph glyph-name="sacute.sc" unicode="&#xe061;" horiz-adv-x="408" 
d="M40 11l6 67q57 -29 120 -29q117 0 117 90q0 33 -23 56.5t-68 46.5l-47 24q-50 26 -73.5 55t-23.5 79q0 70 53 106.5t128 36.5q55 0 112 -17l-5 -63q-54 20 -104 20q-108 0 -108 -81q0 -30 17.5 -47.5t56.5 -38.5l51 -26q57 -30 84 -62t27 -83q0 -73 -52 -114.5
t-137 -41.5q-71 0 -131 22zM222 610h-61l72 136h85z" />
    <glyph glyph-name="scircumflex.sc" unicode="&#xe062;" horiz-adv-x="408" 
d="M40 11l6 67q57 -29 120 -29q117 0 117 90q0 33 -23 56.5t-68 46.5l-47 24q-50 26 -73.5 55t-23.5 79q0 70 53 106.5t128 36.5q55 0 112 -17l-5 -63q-54 20 -104 20q-108 0 -108 -81q0 -30 17.5 -47.5t56.5 -38.5l51 -26q57 -30 84 -62t27 -83q0 -73 -52 -114.5
t-137 -41.5q-71 0 -131 22zM127 610h-65l103 136h74l103 -136h-65l-75 96z" />
    <glyph glyph-name="scaron.sc" unicode="&#xe063;" horiz-adv-x="408" 
d="M40 11l6 67q57 -29 120 -29q117 0 117 90q0 33 -23 56.5t-68 46.5l-47 24q-50 26 -73.5 55t-23.5 79q0 70 53 106.5t128 36.5q55 0 112 -17l-5 -63q-54 20 -104 20q-108 0 -108 -81q0 -30 17.5 -47.5t56.5 -38.5l51 -26q57 -30 84 -62t27 -83q0 -73 -52 -114.5
t-137 -41.5q-71 0 -131 22zM245 610h-74l-103 136h65l75 -97l75 97h65z" />
    <glyph glyph-name="scedilla.sc" unicode="&#xe064;" horiz-adv-x="408" 
d="M98 -161l13 35q39 -17 74 -17q22 0 36 9t14 25q0 29 -39 29q-19 0 -39 -7l-15 18l39 58h-10q-71 0 -131 22l6 67q57 -29 120 -29q117 0 117 90q0 33 -23 56.5t-68 46.5l-47 24q-50 26 -73.5 55t-23.5 79q0 70 53 106.5t128 36.5q55 0 112 -17l-5 -63q-54 20 -104 20
q-108 0 -108 -81q0 -30 17.5 -47.5t56.5 -38.5l51 -26q57 -30 84 -62t27 -83q0 -62 -37.5 -101t-101.5 -51l-32 -46q20 4 32 4q30 0 48 -15t18 -42q0 -34 -27.5 -54t-73.5 -20t-88 19z" />
    <glyph glyph-name="scommaaccent.sc" unicode="&#xe065;" horiz-adv-x="408" 
d="M40 11l6 67q57 -29 120 -29q117 0 117 90q0 33 -23 56.5t-68 46.5l-47 24q-50 26 -73.5 55t-23.5 79q0 70 53 106.5t128 36.5q55 0 112 -17l-5 -63q-54 20 -104 20q-108 0 -108 -81q0 -30 17.5 -47.5t56.5 -38.5l51 -26q57 -30 84 -62t27 -83q0 -73 -52 -114.5
t-137 -41.5q-71 0 -131 22zM184 -227h-50l47 159h67z" />
    <glyph glyph-name="germandbls.sc" unicode="&#xe066;" horiz-adv-x="808" 
d="M440 11l6 67q57 -29 120 -29q117 0 117 90q0 33 -23 56.5t-68 46.5l-47 24q-50 26 -73.5 55t-23.5 79q0 70 53 106.5t128 36.5q55 0 112 -17l-5 -63q-54 20 -104 20q-108 0 -108 -81q0 -30 17.5 -47.5t56.5 -38.5l51 -26q57 -30 84 -62t27 -83q0 -73 -52 -114.5
t-137 -41.5q-71 0 -131 22zM40 11l6 67q57 -29 120 -29q117 0 117 90q0 33 -23 56.5t-68 46.5l-47 24q-50 26 -73.5 55t-23.5 79q0 70 53 106.5t128 36.5q55 0 112 -17l-5 -63q-54 20 -104 20q-108 0 -108 -81q0 -30 17.5 -47.5t56.5 -38.5l51 -26q57 -30 84 -62t27 -83
q0 -73 -52 -114.5t-137 -41.5q-71 0 -131 22z" />
    <glyph glyph-name="tcaron.sc" unicode="&#xe067;" horiz-adv-x="415" 
d="M246 0h-74v470h-162v63h399v-63h-163v-470zM246 610h-74l-103 136h65l75 -97l75 97h65z" />
    <glyph glyph-name="tcommaaccent.sc" unicode="&#xe068;" horiz-adv-x="415" 
d="M246 0h-74v470h-162v63h399v-63h-163v-470zM179 -227h-50l47 159h67z" />
    <glyph glyph-name="tbar.sc" unicode="&#xe069;" horiz-adv-x="415" 
d="M246 0h-74v295h-112v52h112v123h-162v63h399v-63h-163v-123h114v-52h-114v-295z" />
    <glyph glyph-name="thorn.sc" unicode="&#xe06a;" horiz-adv-x="446" 
d="M148 370v-201h41q33 0 55.5 3.5t45.5 13t34.5 31.5t11.5 55q0 48 -31 73t-81 25h-76zM148 0h-73v533h73v-105h93q76 0 124.5 -41t48.5 -114q0 -78 -51 -119t-127 -41h-88v-113z" />
    <glyph glyph-name="ugrave.sc" unicode="&#xe06b;" horiz-adv-x="555" 
d="M144 533v-342q0 -63 34 -101.5t98 -38.5q65 0 99.5 37.5t34.5 102.5v342h74v-342q0 -91 -57 -146.5t-151 -55.5q-96 0 -150.5 52.5t-54.5 147.5v344h73zM321 610h-59l-97 136h85z" />
    <glyph glyph-name="uacute.sc" unicode="&#xe06c;" horiz-adv-x="555" 
d="M144 533v-342q0 -63 34 -101.5t98 -38.5q65 0 99.5 37.5t34.5 102.5v342h74v-342q0 -91 -57 -146.5t-151 -55.5q-96 0 -150.5 52.5t-54.5 147.5v344h73zM293 610h-61l72 136h85z" />
    <glyph glyph-name="ucircumflex.sc" unicode="&#xe06d;" horiz-adv-x="555" 
d="M144 533v-342q0 -63 34 -101.5t98 -38.5q65 0 99.5 37.5t34.5 102.5v342h74v-342q0 -91 -57 -146.5t-151 -55.5q-96 0 -150.5 52.5t-54.5 147.5v344h73zM202 610h-65l103 136h74l103 -136h-65l-75 96z" />
    <glyph glyph-name="utilde.sc" unicode="&#xe06e;" horiz-adv-x="555" 
d="M144 533v-342q0 -63 34 -101.5t98 -38.5q65 0 99.5 37.5t34.5 102.5v342h74v-342q0 -91 -57 -146.5t-151 -55.5q-96 0 -150.5 52.5t-54.5 147.5v344h73zM180 624h-48q0 38 24.5 69t64.5 31q26 0 64.5 -20.5t52.5 -20.5q17 0 28 14.5t11 30.5h47q0 -35 -24 -67t-61 -32
q-27 0 -63 20t-53 20t-30 -14.5t-13 -30.5z" />
    <glyph glyph-name="udieresis.sc" unicode="&#xe06f;" horiz-adv-x="555" 
d="M144 533v-342q0 -63 34 -101.5t98 -38.5q65 0 99.5 37.5t34.5 102.5v342h74v-342q0 -91 -57 -146.5t-151 -55.5q-96 0 -150.5 52.5t-54.5 147.5v344h73zM234 634h-66v87h66v-87zM389 634h-66v87h66v-87z" />
    <glyph glyph-name="umacron.sc" unicode="&#xe070;" horiz-adv-x="555" 
d="M144 533v-342q0 -63 34 -101.5t98 -38.5q65 0 99.5 37.5t34.5 102.5v342h74v-342q0 -91 -57 -146.5t-151 -55.5q-96 0 -150.5 52.5t-54.5 147.5v344h73zM401 653h-245v51h245v-51z" />
    <glyph glyph-name="ubreve.sc" unicode="&#xe071;" horiz-adv-x="555" 
d="M144 533v-342q0 -63 34 -101.5t98 -38.5q65 0 99.5 37.5t34.5 102.5v342h74v-342q0 -91 -57 -146.5t-151 -55.5q-96 0 -150.5 52.5t-54.5 147.5v344h73zM158 735h43q3 -31 23 -51t53 -20t53 20t24 51h43q0 -19 -8.5 -43.5t-37.5 -49t-74 -24.5q-44 0 -73 24.5t-37.5 49
t-8.5 43.5z" />
    <glyph glyph-name="uring.sc" unicode="&#xe072;" horiz-adv-x="555" 
d="M144 533v-342q0 -63 34 -101.5t98 -38.5q65 0 99.5 37.5t34.5 102.5v342h74v-342q0 -91 -57 -146.5t-151 -55.5q-96 0 -150.5 52.5t-54.5 147.5v344h73zM219 678q0 -25 17.5 -42t41.5 -17q25 0 42.5 17t17.5 42q0 24 -17.5 41t-42.5 17t-42 -17t-17 -41zM241 592
q-26 11 -42 34t-16 52q0 39 28 65.5t67 26.5t67.5 -26.5t28.5 -65.5t-28.5 -66t-67.5 -27q-22 0 -37 7z" />
    <glyph glyph-name="uhungarumlaut.sc" unicode="&#xe073;" horiz-adv-x="555" 
d="M144 533v-342q0 -63 34 -101.5t98 -38.5q65 0 99.5 37.5t34.5 102.5v342h74v-342q0 -91 -57 -146.5t-151 -55.5q-96 0 -150.5 52.5t-54.5 147.5v344h73zM211 610h-60l72 136h85zM381 610h-60l72 136h85z" />
    <glyph glyph-name="uogonek.sc" unicode="&#xe074;" horiz-adv-x="555" 
d="M374 -125l11 -35q-40 -20 -81 -20t-66.5 22t-25.5 54q0 58 60 93q-95 2 -148 54t-53 146v344h73v-342q0 -63 34 -101.5t98 -38.5q65 0 99.5 37.5t34.5 102.5v342h74v-342q0 -78 -41 -130t-113 -66q-64 -43 -64 -88q0 -24 14.5 -35.5t34.5 -11.5q28 0 59 15z" />
    <glyph glyph-name="wcircumflex.sc" unicode="&#xe075;" horiz-adv-x="757" 
d="M246 0h-83l-153 533h72l126 -458l134 458h79l132 -458l125 458h69l-152 -533h-83l-133 460zM307 610h-65l103 136h74l103 -136h-65l-75 96z" />
    <glyph glyph-name="yacute.sc" unicode="&#xe076;" horiz-adv-x="476" 
d="M273 0h-73v217l-197 316h82l154 -257l155 257h78l-199 -316v-217zM257 610h-61l72 136h85z" />
    <glyph glyph-name="ycircumflex.sc" unicode="&#xe077;" horiz-adv-x="476" 
d="M273 0h-73v217l-197 316h82l154 -257l155 257h78l-199 -316v-217zM164 610h-65l103 136h74l103 -136h-65l-75 96z" />
    <glyph glyph-name="ydieresis.sc" unicode="&#xe078;" horiz-adv-x="476" 
d="M273 0h-73v217l-197 316h82l154 -257l155 257h78l-199 -316v-217zM194 634h-66v87h66v-87zM349 634h-66v87h66v-87z" />
    <glyph glyph-name="zacute.sc" unicode="&#xe079;" horiz-adv-x="418" 
d="M392 0h-366v62l283 412h-274v59h350v-62l-279 -412h286v-59zM229 610h-61l72 136h85z" />
    <glyph glyph-name="zcaron.sc" unicode="&#xe07a;" horiz-adv-x="418" 
d="M392 0h-366v62l283 412h-274v59h350v-62l-279 -412h286v-59zM249 610h-74l-103 136h65l75 -97l75 97h65z" />
    <glyph glyph-name="zdotaccent.sc" unicode="&#xe07b;" horiz-adv-x="418" 
d="M392 0h-366v62l283 412h-274v59h350v-62l-279 -412h286v-59zM250 634h-73v87h73v-87z" />
    <glyph glyph-name="fi.sc" unicode="&#xe07c;" horiz-adv-x="606" 
d="M148 0h-73v533h285v-57h-212v-177h203v-57h-203v-242zM531 0h-73v533h73v-533z" />
    <glyph glyph-name="fl.sc" unicode="&#xe07d;" horiz-adv-x="768" 
d="M148 0h-73v533h285v-57h-212v-177h203v-57h-203v-242zM754 0h-296v533h73v-471h223v-62z" />
    <glyph glyph-name="ij.sc" unicode="&#xe07e;" horiz-adv-x="494" 
d="M148 0h-73v533h73v-533zM221 -1l5 61q27 -9 49 -9q75 0 75 95v387h73v-393q0 -70 -33 -110.5t-102 -40.5q-34 0 -67 10z" />
    <glyph glyph-name="exclamdown.sc" unicode="&#xe07f;" horiz-adv-x="271" 
d="M178 449h-82v84h82v-84zM177 0h-83l13 368h58z" />
    <glyph glyph-name="questiondown.sc" unicode="&#xe080;" horiz-adv-x="353" 
d="M239 449h-82v84h82v-84zM309 70l4 -61q-58 -19 -121 -19q-71 0 -116 35t-45 99q0 69 70 132q37 37 50.5 58.5t13.5 53.5h66q0 -42 -16.5 -70.5t-53.5 -62.5q-56 -50 -56 -106q0 -38 26.5 -58t69.5 -20q46 0 108 19z" />
    <glyph glyph-name="Euro.sc" unicode="&#xe081;" horiz-adv-x="455" 
d="M88 187h-75l9 44h61q-1 23 -1 36q0 14 1 33h-69l8 44h67q19 87 83 143t159 56q75 0 115 -17l-16 -60q-36 16 -91 16q-71 0 -117 -38.5t-59 -99.5h236l-10 -44h-234q-2 -13 -2 -34q0 -18 1 -35h222l-10 -44h-204q15 -62 61 -100t119 -38q59 0 91 14l6 -61
q-47 -13 -104 -13q-100 0 -164 54t-83 144z" />
    <glyph glyph-name="cent.sc" unicode="&#xe082;" horiz-adv-x="455" 
d="M276 0h-42v74q-80 8 -126.5 62.5t-46.5 131.5q0 76 47 129t126 63v73h42v-72q55 0 97 -15l-5 -56q-47 18 -89 18q-70 0 -108.5 -39t-38.5 -101q0 -64 38.5 -103t108.5 -39q51 0 90 16l7 -54q-47 -16 -100 -16v-72z" />
    <glyph glyph-name="sterling.sc" unicode="&#xe083;" horiz-adv-x="455" 
d="M411 0h-366v55h69v203h-65v55h65v46q0 85 44.5 134.5t134.5 49.5q62 0 113 -17l-6 -59q-47 19 -99 19q-36 0 -59.5 -10.5t-35 -30t-16 -41t-4.5 -50.5v-41h157v-55h-157v-203h225v-55z" />
    <glyph glyph-name="florin.sc" unicode="&#xe084;" horiz-adv-x="455" 
d="M-19 -177l5 56q23 -4 49 -4q31 0 49 23t29 79l58 291h-92v51h102l21 85q16 65 45 102t86 37q30 0 61 -9l-4 -54q-26 8 -46 8q-58 0 -75 -89l-17 -80h104v-51h-114l-61 -296q-18 -82 -48 -118.5t-85 -36.5q-34 0 -67 6z" />
    <glyph glyph-name="yen.sc" unicode="&#xe085;" horiz-adv-x="455" 
d="M189 110h-126v43h126v70h-126v43h104l-158 267h75l144 -254l143 254h73l-162 -267h109v-43h-130v-70h130v-43h-130v-110h-72v110z" />
    <glyph glyph-name="ordfeminine.sc" unicode="&#xe086;" horiz-adv-x="308" 
d="M153 495l-42 -107h84zM80 300h-51l100 238h51l99 -238h-52l-20 51h-106z" />
    <glyph glyph-name="perthousand.sc" unicode="&#xe087;" horiz-adv-x="1043" 
d="M237 -19h-56l332 571h55zM508 70q18 -38 57 -38q70 0 70 121q0 120 -70 120q-37 0 -53.5 -34t-16.5 -86q0 -50 13 -83zM502 4q-64 40 -64 149q0 66 30.5 115t96.5 49t97 -49t31 -115t-31 -115t-97 -49q-37 0 -63 15zM126 296q18 -38 57 -38q70 0 70 121q0 120 -70 120
q-37 0 -53.5 -34t-16.5 -86q0 -50 13 -83zM120 230q-64 40 -64 149q0 66 30.5 115t96.5 49t97 -49t31 -115t-31 -115t-97 -49q-37 0 -63 15zM803 70q18 -38 57 -38q70 0 70 121q0 120 -70 120q-37 0 -53.5 -34t-16.5 -86q0 -50 13 -83zM797 4q-64 40 -64 149q0 66 30.5 115
t96.5 49t97 -49t31 -115t-31 -115t-97 -49q-38 0 -63 15z" />
    <glyph glyph-name="dotlessj.sc" unicode="&#xe090;" horiz-adv-x="279" 
d="M6 -1l5 61q27 -9 49 -9q75 0 75 95v387h73v-393q0 -70 -33 -110.5t-102 -40.5q-34 0 -67 10z" />
    <glyph glyph-name="zero.onum" unicode="&#xe100;" 
d="M153 117q40 -62 118 -62q77 0 117 61.5t40 155.5t-39.5 153t-117.5 59q-76 0 -116 -61.5t-40 -154.5q0 -92 38 -151zM165 10q-66 32 -99.5 99.5t-33.5 158.5q0 121 63.5 201.5t175.5 80.5q118 0 179 -77.5t61 -201.5q0 -122 -63.5 -202t-176.5 -80q-61 0 -106 21z" />
    <glyph glyph-name="one.onum" unicode="&#xe101;" 
d="M340 0h-79v474h-153v66h232v-540z" />
    <glyph glyph-name="two.onum" unicode="&#xe102;" 
d="M445 0h-378v61q149 119 217.5 193.5t68.5 138.5q0 46 -31.5 68.5t-78.5 22.5q-63 0 -145 -41l-9 70q77 37 157 37q83 0 135 -35t52 -113q0 -75 -65 -153.5t-190 -182.5h267v-66z" />
    <glyph glyph-name="three.onum" unicode="&#xe103;" 
d="M70 -158l-8 66q30 -3 57 -3q123 0 183 48.5t60 129.5q0 34 -16 58t-42.5 35.5t-53 16.5t-55.5 5h-54v65h52q66 0 112.5 30t46.5 96q0 50 -37.5 72.5t-87.5 22.5q-73 0 -143 -34l-6 69q80 31 159 31q36 0 68 -8t61.5 -25t47 -49t17.5 -76q0 -63 -38 -105t-107 -53
q75 -5 115.5 -44.5t40.5 -106.5q0 -113 -85.5 -178.5t-235.5 -65.5q-24 0 -51 3z" />
    <glyph glyph-name="four.onum" unicode="&#xe104;" 
d="M340 0h-295v74l261 466h84l-271 -475h221v302h76v-302h100v-65h-100v-160h-76v160z" />
    <glyph glyph-name="five.onum" unicode="&#xe105;" 
d="M102 -158l-8 66q30 -3 57 -3q126 0 184.5 48.5t58.5 134.5q0 125 -157 125q-59 0 -134 -19l6 346h335v-66h-260l-6 -202q40 6 87 6q100 0 154.5 -47t54.5 -143q0 -118 -84 -183.5t-237 -65.5q-24 0 -51 3z" />
    <glyph glyph-name="six.onum" unicode="&#xe106;" 
d="M446 697v-66q-30 3 -57 3q-80 0 -141 -44t-91 -109t-33 -138q22 38 69.5 62.5t100.5 24.5q98 0 152 -58.5t54 -156.5q0 -103 -61 -164.5t-163 -61.5q-67 0 -114.5 28t-71.5 77t-34 102t-10 116q0 104 39.5 191t120.5 142t189 55q24 0 51 -3zM170 107q41 -53 107 -53
q68 0 105 42.5t37 113.5q0 69 -36 111.5t-101 42.5q-68 0 -109.5 -38.5t-41.5 -101.5q0 -67 39 -117z" />
    <glyph glyph-name="seven.onum" unicode="&#xe107;" 
d="M165 -161l-77 15q49 120 139.5 302.5t164.5 315.5h-338v68h417v-64q-189 -359 -306 -637z" />
    <glyph glyph-name="eight.onum" unicode="&#xe108;" 
d="M322 301q-28 15 -49 24q-151 -48 -151 -149q0 -60 42 -91t106 -31t106.5 32.5t42.5 92.5q0 78 -97 122zM228 404q2 -1 47 -22q123 50 123 136q0 53 -37 81t-91 28q-52 0 -89 -30t-37 -82q0 -67 84 -111zM133 325q32 18 61 29q-131 56 -131 168q0 80 64.5 125t142.5 45
q86 0 147.5 -41.5t61.5 -125.5q0 -101 -136 -171q75 -27 117 -69.5t42 -114.5q0 -87 -69.5 -134t-162.5 -47q-60 0 -110 17t-85 59t-35 102q0 106 93 158z" />
    <glyph glyph-name="nine.onum" unicode="&#xe109;" 
d="M96 -158v66q30 -3 57 -3q120 0 190.5 85t74.5 205q-22 -38 -69.5 -62.5t-100.5 -24.5q-98 0 -152 58.5t-54 156.5q0 104 61 165.5t163 61.5q67 0 114.5 -28t71.5 -77.5t34 -102.5t10 -116q0 -168 -92.5 -277.5t-256.5 -109.5q-24 0 -51 3zM158 217q34 -43 102 -43
t109.5 38.5t41.5 101.5q0 67 -40.5 119t-105.5 52q-68 0 -105 -43t-37 -114q0 -67 35 -111z" />
    <glyph glyph-name="zero.sc" unicode="&#xe10a;" horiz-adv-x="455" 
d="M132 124q28 -76 96 -76q112 0 112 218t-112 218q-113 0 -113 -218q0 -92 17 -142zM133 14q-93 68 -93 252q0 51 9 96.5t29 88t58.5 67.5t91.5 25t91.5 -25.5t58.5 -68t29 -87.5t9 -96t-9 -96t-29 -87.5t-58.5 -68t-91.5 -25.5q-58 0 -95 25z" />
    <glyph glyph-name="one.sc" unicode="&#xe10b;" horiz-adv-x="455" 
d="M291 0h-72v455l-96 -78l-32 48l137 108h63v-533z" />
    <glyph glyph-name="two.sc" unicode="&#xe10c;" horiz-adv-x="455" 
d="M386 0h-339v59l125 131q69 73 99.5 117t30.5 86t-29.5 65t-72.5 23q-66 0 -130 -33l-5 63q70 32 142 32q73 0 121.5 -36.5t48.5 -107.5q0 -30 -9.5 -58t-36 -63t-40 -51t-55.5 -61l-103 -108h253v-58z" />
    <glyph glyph-name="three.sc" unicode="&#xe10d;" horiz-adv-x="455" 
d="M44 9l5 61q59 -22 131 -22q57 0 96.5 26.5t39.5 79.5q0 48 -38.5 70t-93.5 22h-69v58h59q59 0 96 23.5t37 74.5q0 40 -35 61t-88 21q-58 0 -120 -25l-5 59q69 25 136 25q75 0 130 -34t55 -103q0 -95 -108 -129q52 -7 85 -41t33 -82q0 -82 -59.5 -123.5t-149.5 -41.5
q-78 0 -137 20z" />
    <glyph glyph-name="four.sc" unicode="&#xe10e;" horiz-adv-x="455" 
d="M281 458l-193 -281h193v281zM281 120h-254v64l245 349h80v-356h78v-57h-78v-120h-71v120z" />
    <glyph glyph-name="five.sc" unicode="&#xe10f;" horiz-adv-x="455" 
d="M61 8l5 62q46 -21 113 -21q61 0 101 30.5t40 85.5t-37 80.5t-99 25.5q-56 0 -110 -19l4 281h291v-57h-226l-3 -161q31 10 75 10q79 0 129.5 -40t50.5 -116q0 -85 -60.5 -132.5t-147.5 -47.5q-64 0 -126 19z" />
    <glyph glyph-name="six.sc" unicode="&#xe110;" horiz-adv-x="455" 
d="M149 83q31 -37 81 -37q54 0 84 32t30 85t-27 85.5t-80 32.5q-51 0 -82.5 -31.5t-31.5 -81.5t26 -85zM390 531l-5 -61q-45 14 -92 14q-61 0 -101.5 -31.5t-57 -78t-16.5 -105.5q51 69 131 69q78 0 123 -46t45 -124q0 -80 -52 -129.5t-134 -49.5q-85 0 -134.5 60.5
t-49.5 178.5q0 141 61 228t187 87q49 0 95 -12z" />
    <glyph glyph-name="seven.sc" unicode="&#xe111;" horiz-adv-x="455" 
d="M188 0h-82l217 472h-275v61h346v-60z" />
    <glyph glyph-name="eight.sc" unicode="&#xe112;" horiz-adv-x="455" 
d="M152 349q30 -25 79 -46q53 20 76.5 44.5t23.5 59.5q0 36 -29 58t-74 22q-41 0 -71.5 -21t-30.5 -59q0 -35 26 -58zM317 201q-29 26 -91 50q-61 -18 -89 -44.5t-28 -65.5q0 -45 35 -70t84 -25t83.5 25.5t34.5 71.5q0 32 -29 58zM68 221q35 35 95 57q-55 28 -82 59t-27 76
q0 56 51.5 93t122.5 37q73 0 123.5 -36.5t50.5 -93.5q0 -47 -26.5 -78t-83.5 -56q63 -29 96 -61.5t33 -83.5q0 -66 -58 -105.5t-135 -39.5q-85 0 -139 39.5t-54 105.5q0 54 33 87z" />
    <glyph glyph-name="nine.sc" unicode="&#xe113;" horiz-adv-x="455" 
d="M135 282q27 -33 82 -33q52 0 82.5 31t30.5 83t-27.5 87t-78.5 35q-54 0 -84.5 -32t-30.5 -86q0 -50 26 -85zM62 2l5 60q47 -14 94 -14t81 16.5t53 47t28.5 65t12.5 80.5q-48 -64 -130 -64q-77 0 -123 46t-46 125t53.5 129t132.5 50q91 0 138 -62.5t47 -166.5
q0 -71 -13 -128.5t-41.5 -102.5t-77 -69.5t-115.5 -24.5q-51 0 -99 13z" />
    <glyph glyph-name="zero.prop" unicode="&#xe11e;" 
d="M155 21q-110 76 -110 312q0 62 10 117.5t33.5 109t70.5 85.5t112 32q66 0 113 -32t70.5 -86t33.5 -109t10 -117q0 -49 -5.5 -93t-21 -91.5t-40 -81.5t-65.5 -56t-95 -22q-70 0 -116 32zM147 153q35 -99 124 -99q146 0 146 279t-146 279q-145 0 -145 -279q0 -117 21 -180z
" />
    <glyph glyph-name="one.prop" unicode="&#xe11f;" horiz-adv-x="385" 
d="M266 0h-78v581l-111 -95l-38 52l158 129h69v-667z" />
    <glyph glyph-name="two.prop" unicode="&#xe120;" 
d="M463 0h-412v63l149 162q96 105 132 159t36 113q0 50 -36 81.5t-88 31.5q-80 0 -162 -45l-6 69q91 43 170 43q89 0 146 -45t57 -131q0 -32 -10 -64t-22 -55.5t-43 -62t-49.5 -59.5t-64.5 -72l-112 -123h315v-65z" />
    <glyph glyph-name="three.prop" unicode="&#xe121;" 
d="M48 15l6 69q64 -30 156 -30q72 0 123.5 34.5t51.5 105.5q0 63 -47 94.5t-112 31.5h-91v63h78q161 0 161 122q0 55 -43 81t-105 26q-79 0 -153 -33l-6 68q84 30 169 30q89 0 153.5 -41t64.5 -125q0 -61 -40.5 -102.5t-98.5 -54.5q66 -9 109 -50t43 -107
q0 -101 -72.5 -154.5t-181.5 -53.5q-93 0 -165 26z" />
    <glyph glyph-name="four.prop" unicode="&#xe122;" 
d="M345 151h-319v73l301 443h95v-451h96v-65h-96v-151h-77v151zM345 594l-254 -378h254v378z" />
    <glyph glyph-name="five.prop" unicode="&#xe123;" 
d="M69 13l6 73q59 -31 142 -31q73 0 124 39.5t51 111.5q0 71 -46 106t-120 35q-64 0 -141 -26l7 346h349v-64h-276l-6 -208q37 13 95 13q95 0 157 -52t62 -145q0 -104 -72 -163t-179 -59q-94 0 -153 24z" />
    <glyph glyph-name="six.prop" unicode="&#xe124;" 
d="M178 103q39 -50 106 -50q63 0 100 43.5t37 111.5q0 66 -34 107t-98 41q-62 0 -105 -39t-43 -101q0 -65 37 -113zM466 662l-6 -69q-45 19 -108 19q-74 0 -125.5 -42t-73 -102t-24.5 -134q26 38 70 62t98 24q93 0 148 -56.5t55 -150.5q0 -101 -60.5 -162.5t-156.5 -61.5
q-53 0 -94 18.5t-65.5 47.5t-40.5 71t-22 84t-6 90q0 78 17 144t52 119.5t95 83.5t139 30q57 0 108 -15z" />
    <glyph glyph-name="seven.prop" unicode="&#xe125;" horiz-adv-x="469" 
d="M176 0h-88l267 600h-341v67h419v-65z" />
    <glyph glyph-name="eight.prop" unicode="&#xe126;" 
d="M386 259q-38 33 -115 60q-151 -45 -151 -147q0 -59 43.5 -89t107.5 -30q63 0 107.5 31.5t44.5 90.5q0 53 -37 84zM224 396l48 -21q130 52 130 132q0 53 -38 80t-93 27q-54 0 -92 -27.5t-38 -79.5q0 -67 83 -111zM132 320q30 16 61 27q-65 30 -98 67t-33 94q0 80 65 124.5
t144 44.5q85 0 147.5 -42t62.5 -125q0 -99 -137 -161q78 -27 119 -67t41 -112q0 -88 -70.5 -134.5t-162.5 -46.5q-94 0 -163 44.5t-69 130.5q0 105 93 156z" />
    <glyph glyph-name="nine.prop" unicode="&#xe127;" 
d="M155 352q33 -42 100 -42q62 0 105 39t43 101q0 67 -38.5 115t-104.5 48q-63 0 -100 -43.5t-37 -111.5q0 -62 32 -106zM78 4l6 69q50 -19 108 -19q74 0 125.5 42t73 102t24.5 134q-23 -37 -68.5 -61.5t-99.5 -24.5q-93 0 -148 56.5t-55 150.5q0 101 60.5 162.5t156.5 61.5
q66 0 112.5 -27t70.5 -73.5t34.5 -98t10.5 -112.5q0 -78 -17 -144t-52 -119.5t-95 -83.5t-139 -30q-60 0 -108 15z" />
    <glyph glyph-name="zero.scprop" unicode="&#xe128;" horiz-adv-x="455" 
d="M132 124q28 -76 96 -76q112 0 112 218t-112 218q-113 0 -113 -218q0 -92 17 -142zM133 14q-93 68 -93 252q0 51 9 96.5t29 88t58.5 67.5t91.5 25t91.5 -25.5t58.5 -68t29 -87.5t9 -96t-9 -96t-29 -87.5t-58.5 -68t-91.5 -25.5q-58 0 -95 25z" />
    <glyph glyph-name="one.scprop" unicode="&#xe129;" horiz-adv-x="337" 
d="M232 0h-72v455l-96 -78l-32 48l137 108h63v-533z" />
    <glyph glyph-name="two.scprop" unicode="&#xe12a;" horiz-adv-x="455" 
d="M386 0h-339v59l125 131q69 73 99.5 117t30.5 86t-29.5 65t-72.5 23q-66 0 -130 -33l-5 63q70 32 142 32q73 0 121.5 -36.5t48.5 -107.5q0 -30 -9.5 -58t-36 -63t-40 -51t-55.5 -61l-103 -108h253v-58z" />
    <glyph glyph-name="three.scprop" unicode="&#xe12b;" horiz-adv-x="455" 
d="M44 9l5 61q59 -22 131 -22q57 0 96.5 26.5t39.5 79.5q0 48 -38.5 70t-93.5 22h-69v58h59q59 0 96 23.5t37 74.5q0 40 -35 61t-88 21q-58 0 -120 -25l-5 59q69 25 136 25q75 0 130 -34t55 -103q0 -95 -108 -129q52 -7 85 -41t33 -82q0 -82 -59.5 -123.5t-149.5 -41.5
q-78 0 -137 20z" />
    <glyph glyph-name="four.scprop" unicode="&#xe12c;" horiz-adv-x="455" 
d="M281 458l-193 -281h193v281zM281 120h-254v64l245 349h80v-356h78v-57h-78v-120h-71v120z" />
    <glyph glyph-name="five.scprop" unicode="&#xe12d;" horiz-adv-x="455" 
d="M61 8l5 62q46 -21 113 -21q61 0 101 30.5t40 85.5t-37 80.5t-99 25.5q-56 0 -110 -19l4 281h291v-57h-226l-3 -161q31 10 75 10q79 0 129.5 -40t50.5 -116q0 -85 -60.5 -132.5t-147.5 -47.5q-64 0 -126 19z" />
    <glyph glyph-name="six.scprop" unicode="&#xe12e;" horiz-adv-x="455" 
d="M149 83q31 -37 81 -37q54 0 84 32t30 85t-27 85.5t-80 32.5q-51 0 -82.5 -31.5t-31.5 -81.5t26 -85zM390 531l-5 -61q-45 14 -92 14q-61 0 -101.5 -31.5t-57 -78t-16.5 -105.5q51 69 131 69q78 0 123 -46t45 -124q0 -80 -52 -129.5t-134 -49.5q-85 0 -134.5 60.5
t-49.5 178.5q0 141 61 228t187 87q49 0 95 -12z" />
    <glyph glyph-name="seven.scprop" unicode="&#xe12f;" horiz-adv-x="401" 
d="M158 0h-82l217 472h-275v61h346v-60z" />
    <glyph glyph-name="eight.scprop" unicode="&#xe130;" horiz-adv-x="455" 
d="M152 349q30 -25 79 -46q53 20 76.5 44.5t23.5 59.5q0 36 -29 58t-74 22q-41 0 -71.5 -21t-30.5 -59q0 -35 26 -58zM317 201q-29 26 -91 50q-61 -18 -89 -44.5t-28 -65.5q0 -45 35 -70t84 -25t83.5 25.5t34.5 71.5q0 32 -29 58zM68 221q35 35 95 57q-55 28 -82 59t-27 76
q0 56 51.5 93t122.5 37q73 0 123.5 -36.5t50.5 -93.5q0 -47 -26.5 -78t-83.5 -56q63 -29 96 -61.5t33 -83.5q0 -66 -58 -105.5t-135 -39.5q-85 0 -139 39.5t-54 105.5q0 54 33 87z" />
    <glyph glyph-name="nine.scprop" unicode="&#xe131;" horiz-adv-x="455" 
d="M135 282q27 -33 82 -33q52 0 82.5 31t30.5 83t-27.5 87t-78.5 35q-54 0 -84.5 -32t-30.5 -86q0 -50 26 -85zM62 2l5 60q47 -14 94 -14t81 16.5t53 47t28.5 65t12.5 80.5q-48 -64 -130 -64q-77 0 -123 46t-46 125t53.5 129t132.5 50q91 0 138 -62.5t47 -166.5
q0 -71 -13 -128.5t-41.5 -102.5t-77 -69.5t-115.5 -24.5q-51 0 -99 13z" />
    <glyph glyph-name="zero.onumprop" unicode="&#xe132;" horiz-adv-x="622" 
d="M174 124q52 -69 138 -69t133.5 64.5t47.5 151.5q0 88 -46.5 150.5t-134.5 62.5q-87 0 -134.5 -63.5t-47.5 -149.5q0 -85 44 -147zM199 11q-73 34 -112.5 102.5t-39.5 157.5q0 118 74 198.5t191 80.5q123 0 193.5 -78t70.5 -201q0 -120 -72 -201t-192 -81q-65 0 -113 22z
" />
    <glyph glyph-name="one.onumprop" unicode="&#xe133;" horiz-adv-x="363" 
d="M256 0h-79v474h-153v66h232v-540z" />
    <glyph glyph-name="two.onumprop" unicode="&#xe134;" horiz-adv-x="456" 
d="M408 0h-378v61q149 119 217.5 193.5t68.5 138.5q0 46 -31.5 68.5t-78.5 22.5q-63 0 -145 -41l-9 70q77 37 157 37q83 0 135 -35t52 -113q0 -75 -65 -153.5t-190 -182.5h267v-66z" />
    <glyph glyph-name="three.onumprop" unicode="&#xe135;" horiz-adv-x="442" 
d="M20 -158l-8 66q30 -3 57 -3q123 0 183 48.5t60 129.5q0 34 -16 58t-42.5 35.5t-53 16.5t-55.5 5h-54v65h52q66 0 112.5 30t46.5 96q0 50 -37.5 72.5t-87.5 22.5q-73 0 -143 -34l-6 69q80 31 159 31q36 0 68 -8t61.5 -25t47 -49t17.5 -76q0 -63 -38 -105t-107 -53
q75 -5 115.5 -44.5t40.5 -106.5q0 -113 -85.5 -178.5t-235.5 -65.5q-24 0 -51 3z" />
    <glyph glyph-name="four.onumprop" unicode="&#xe136;" horiz-adv-x="527" 
d="M332 0h-295v74l261 466h84l-271 -475h221v302h76v-302h100v-65h-100v-160h-76v160z" />
    <glyph glyph-name="five.onumprop" unicode="&#xe137;" horiz-adv-x="500" 
d="M78 -158l-8 66q30 -3 57 -3q126 0 184.5 48.5t58.5 134.5q0 125 -157 125q-59 0 -134 -19l6 346h335v-66h-260l-6 -202q40 6 87 6q100 0 154.5 -47t54.5 -143q0 -118 -84 -183.5t-237 -65.5q-24 0 -51 3z" />
    <glyph glyph-name="six.onumprop" unicode="&#xe138;" horiz-adv-x="553" 
d="M451 697v-66q-30 3 -57 3q-80 0 -141 -44t-91 -109t-33 -138q22 38 69.5 62.5t100.5 24.5q97 0 151.5 -58.5t54.5 -156.5q0 -103 -61 -164.5t-163 -61.5q-67 0 -114.5 28t-71.5 77t-34 102t-10 116q0 104 39.5 191t120.5 142t189 55q24 0 51 -3zM175 107q41 -53 107 -53
q68 0 105 42.5t37 113.5q0 69 -36 111.5t-101 42.5q-68 0 -109.5 -38.5t-41.5 -101.5q0 -67 39 -117z" />
    <glyph glyph-name="seven.onumprop" unicode="&#xe139;" horiz-adv-x="500" 
d="M144 -161l-77 15q49 120 139.5 302.5t164.5 315.5h-338v68h417v-64q-189 -359 -306 -637z" />
    <glyph glyph-name="eight.onumprop" unicode="&#xe13a;" horiz-adv-x="557" 
d="M330 301q-28 15 -49 24q-151 -48 -151 -149q0 -60 42 -91t106 -31t106.5 32.5t42.5 92.5q0 78 -97 122zM236 404q2 -1 47 -22q123 50 123 136q0 53 -37 81t-91 28q-52 0 -89 -30t-37 -82q0 -67 84 -111zM141 325q32 18 61 29q-131 56 -131 168q0 80 64.5 125t142.5 45
q86 0 147.5 -41.5t61.5 -125.5q0 -101 -136 -171q75 -27 117 -69.5t42 -114.5q0 -87 -69.5 -134t-162.5 -47q-60 0 -110 17t-85 59t-35 102q0 106 93 158z" />
    <glyph glyph-name="nine.onumprop" unicode="&#xe13b;" horiz-adv-x="554" 
d="M103 -158v66q30 -3 57 -3q120 0 190.5 85t74.5 205q-22 -38 -69.5 -62.5t-100.5 -24.5q-97 0 -151.5 58.5t-54.5 156.5q0 104 61 165.5t163 61.5q67 0 114.5 -28t71.5 -77.5t34 -102.5t10 -116q0 -168 -92.5 -277.5t-256.5 -109.5q-24 0 -51 3zM165 217q34 -43 102 -43
t109.5 38.5t41.5 101.5q0 67 -40.5 119t-105.5 52q-68 0 -105 -43t-37 -114q0 -67 35 -111z" />
    <glyph glyph-name="one.numerator" unicode="&#xe13c;" horiz-adv-x="400" 
d="M258 265h-63v335l-85 -62l-29 45l123 87h54v-405z" />
    <glyph glyph-name="two.numerator" unicode="&#xe13d;" horiz-adv-x="400" 
d="M328 265h-273v52l73 67q69 62 98 101.5t29 74.5q0 29 -23 45.5t-57 16.5q-50 0 -102 -25l-3 54q58 25 112 25q59 0 98.5 -28.5t39.5 -85.5q0 -47 -30.5 -90t-87.5 -95l-66 -60h192v-52z" />
    <glyph glyph-name="three.numerator" unicode="&#xe13e;" horiz-adv-x="400" 
d="M55 273l3 53q42 -16 100 -16q46 0 77 19.5t31 56.5q0 35 -29.5 50.5t-73.5 15.5h-54v49h45q106 0 106 66q0 30 -28 44t-67 14q-54 0 -96 -18l-3 52q53 17 108 17q62 0 105.5 -24.5t43.5 -79.5q0 -73 -75 -93q36 -9 59.5 -33t23.5 -59q0 -64 -49.5 -96.5t-119.5 -32.5
q-59 0 -107 15z" />
    <glyph glyph-name="four.numerator" unicode="&#xe13f;" horiz-adv-x="400" 
d="M241 608l-146 -203h146v203zM240 353h-199v59l189 258h71v-265h61v-52h-61v-88h-61v88z" />
    <glyph glyph-name="five.numerator" unicode="&#xe140;" horiz-adv-x="400" 
d="M66 272l4 54q39 -15 87 -15q46 0 79 21.5t33 60.5t-29.5 58t-75.5 19q-35 0 -87 -13l4 213h233v-51h-176l-3 -111q24 8 57 8q62 0 102 -29.5t40 -89.5q0 -67 -49 -103t-119 -36q-61 0 -100 14z" />
    <glyph glyph-name="six.numerator" unicode="&#xe141;" horiz-adv-x="400" 
d="M143 335q26 -28 63 -28q40 0 62.5 24t22.5 61q0 36 -20.5 59.5t-60.5 23.5q-37 0 -62.5 -22t-25.5 -56q0 -35 21 -62zM329 666l-4 -51q-36 11 -72 11q-66 0 -99.5 -43.5t-36.5 -107.5q39 48 105 48q60 0 95 -34t35 -94q0 -62 -41.5 -99.5t-103.5 -37.5q-56 0 -91.5 29.5
t-47.5 70t-12 93.5q0 99 49.5 162t146.5 63q41 0 77 -10z" />
    <glyph glyph-name="seven.numerator" unicode="&#xe142;" horiz-adv-x="400" 
d="M173 265h-74l171 349h-212v56h276v-53z" />
    <glyph glyph-name="eight.numerator" unicode="&#xe143;" horiz-adv-x="400" 
d="M266 425q-23 18 -65 31q-90 -22 -90 -81q0 -31 25.5 -49.5t63.5 -18.5t64 18.5t26 50.5q0 31 -24 49zM146 523q22 -15 56 -25q31 9 54 27.5t23 43.5q0 29 -23 44.5t-56 15.5q-32 0 -55 -16.5t-23 -44.5t24 -45zM73 438q23 23 62 37q-36 16 -55 37.5t-19 57.5
q0 51 43.5 78.5t95.5 27.5q56 0 98 -26t42 -79q0 -62 -76 -95q89 -27 89 -105q0 -55 -46.5 -84t-106.5 -29q-61 0 -106 28t-45 83q0 45 24 69z" />
    <glyph glyph-name="nine.numerator" unicode="&#xe144;" horiz-adv-x="400" 
d="M129 484q19 -24 62 -24q37 0 62.5 22t25.5 55q0 36 -22.5 63.5t-62.5 27.5t-62 -24.5t-22 -61.5q0 -35 19 -58zM72 268l4 52q32 -12 72 -12q66 0 99.5 44t36.5 107q-39 -48 -105 -48q-60 0 -95 34t-35 94q0 62 41.5 99.5t103.5 37.5q42 0 72.5 -16t46.5 -44.5t23.5 -61
t7.5 -71.5q0 -99 -48.5 -162t-145.5 -63q-39 0 -78 10z" />
    <glyph glyph-name="zero.numerator" unicode="&#xe145;" horiz-adv-x="400" 
d="M126 365q21 -55 74 -55q88 0 88 158q0 30 -3 53.5t-11 49t-27 39.5t-47 14q-88 0 -88 -156q0 -66 14 -103zM124 277q-76 49 -76 191q0 39 7.5 73.5t24 66t47.5 50t73 18.5q43 0 74 -18.5t47.5 -50t24 -66t7.5 -73.5t-7.5 -74t-24 -67t-47.5 -50.5t-74 -18.5q-47 0 -76 19
z" />
    <glyph glyph-name="one.denominator" unicode="&#xe146;" horiz-adv-x="400" 
d="M258 0h-63v335l-85 -62l-29 45l123 87h54v-405z" />
    <glyph glyph-name="two.denominator" unicode="&#xe147;" horiz-adv-x="400" 
d="M328 0h-273v52l73 67q69 62 98 101.5t29 74.5q0 29 -23 45.5t-57 16.5q-50 0 -102 -25l-3 54q58 25 112 25q59 0 98.5 -28.5t39.5 -85.5q0 -47 -30.5 -90t-87.5 -95l-66 -60h192v-52z" />
    <glyph glyph-name="three.denominator" unicode="&#xe148;" horiz-adv-x="400" 
d="M55 8l3 53q42 -16 100 -16q46 0 77 19.5t31 56.5q0 35 -29.5 50.5t-73.5 15.5h-54v49h45q106 0 106 66q0 30 -28 44t-67 14q-54 0 -96 -18l-3 52q53 17 108 17q62 0 105.5 -24.5t43.5 -79.5q0 -73 -75 -93q36 -9 59.5 -33t23.5 -59q0 -64 -49.5 -96.5t-119.5 -32.5
q-59 0 -107 15z" />
    <glyph glyph-name="four.denominator" unicode="&#xe149;" horiz-adv-x="400" 
d="M241 343l-146 -203h146v203zM240 88h-199v59l189 258h71v-265h61v-52h-61v-88h-61v88z" />
    <glyph glyph-name="five.denominator" unicode="&#xe14a;" horiz-adv-x="400" 
d="M66 7l4 54q39 -15 87 -15q46 0 79 21t33 61q0 39 -29.5 58t-75.5 19q-35 0 -87 -13l4 213h233v-51h-176l-3 -111q24 8 57 8q62 0 102 -29.5t40 -89.5q0 -67 -49 -103t-119 -36q-61 0 -100 14z" />
    <glyph glyph-name="six.denominator" unicode="&#xe14b;" horiz-adv-x="400" 
d="M143 70q26 -28 63 -28q40 0 62.5 24t22.5 61q0 36 -20.5 59.5t-60.5 23.5q-37 0 -62.5 -22t-25.5 -56q0 -35 21 -62zM329 401l-4 -51q-36 11 -72 11q-66 0 -99.5 -43.5t-36.5 -107.5q39 48 105 48q60 0 95 -34t35 -94q0 -62 -41.5 -99.5t-103.5 -37.5q-56 0 -91.5 29.5
t-47.5 70t-12 93.5q0 99 49.5 162t146.5 63q41 0 77 -10z" />
    <glyph glyph-name="seven.denominator" unicode="&#xe14c;" horiz-adv-x="400" 
d="M173 0h-74l171 349h-212v56h276v-53z" />
    <glyph glyph-name="eight.denominator" unicode="&#xe14d;" horiz-adv-x="400" 
d="M266 160q-23 18 -65 31q-90 -22 -90 -81q0 -31 25.5 -49.5t63.5 -18.5t64 18.5t26 50.5q0 31 -24 49zM146 258q22 -15 56 -25q31 9 54 27.5t23 43.5q0 29 -23 44.5t-56 15.5q-32 0 -55 -16.5t-23 -44.5q0 -29 24 -45zM73 173q23 23 62 37q-36 16 -55 37.5t-19 57.5
q0 51 43.5 78.5t95.5 27.5q56 0 98 -26t42 -79q0 -62 -76 -95q89 -27 89 -105q0 -55 -46.5 -84t-106.5 -29q-61 0 -106 28t-45 83q0 45 24 69z" />
    <glyph glyph-name="nine.denominator" unicode="&#xe14e;" horiz-adv-x="400" 
d="M129 219q19 -24 62 -24q37 0 62.5 22t25.5 55q0 36 -22.5 63.5t-62.5 27.5t-62 -24.5t-22 -61.5q0 -35 19 -58zM72 3l4 52q32 -12 72 -12q66 0 99.5 44t36.5 107q-39 -48 -105 -48q-60 0 -95 34t-35 94q0 62 41.5 99.5t103.5 37.5q42 0 72.5 -16t46.5 -44.5t23.5 -61
t7.5 -71.5q0 -99 -48.5 -162t-145.5 -63q-39 0 -78 10z" />
    <glyph glyph-name="zero.denominator" unicode="&#xe14f;" horiz-adv-x="400" 
d="M126 100q21 -55 74 -55q88 0 88 158q0 30 -3 53.5t-11 49t-27 39.5t-47 14q-88 0 -88 -156q0 -66 14 -103zM124 12q-76 49 -76 191q0 39 7.5 73.5t24 66t47.5 50t73 18.5q43 0 74 -18.5t47.5 -50t24 -66t7.5 -73.5t-7.5 -74t-24 -67t-47.5 -50.5t-74 -18.5q-47 0 -76 19z
" />
    <glyph glyph-name="parenleft.inferior" unicode="&#xe192;" horiz-adv-x="190" 
d="M180 -240h-49q-95 144 -95 255q0 108 95 255h49q-85 -151 -85 -255q0 -110 85 -255z" />
    <glyph glyph-name="parenright.inferior" unicode="&#xe193;" horiz-adv-x="190" 
d="M59 -240h-49q84 149 84 255t-84 255h49q95 -147 95 -255q0 -109 -95 -255z" />
    <glyph glyph-name="equal.inferior" unicode="&#xe196;" horiz-adv-x="400" 
d="M362 -97h-323v48h323v-48zM362 21h-323v49h323v-49z" />
    <glyph glyph-name="a.superior" unicode="&#xe19f;" horiz-adv-x="337" 
d="M231 412h-24q-121 0 -121 -58q0 -25 16.5 -37t41.5 -12q43 0 65 26.5t22 66.5v14zM292 265h-57l-3 49q-32 -56 -102 -56q-45 0 -73.5 23t-28.5 69q0 105 161 105h42v9q0 65 -75 65q-47 0 -90 -22l-4 50q43 19 99 19q127 0 127 -116v-126q0 -42 4 -69z" />
    <glyph glyph-name="b.superior" unicode="&#xe1a0;" horiz-adv-x="368" 
d="M125 347q23 -37 65 -37q82 0 82 109q0 105 -81 105q-42 0 -62.5 -31.5t-20.5 -73.5t17 -72zM104 265h-53v438h59v-186q15 28 42.5 43.5t56.5 15.5q66 0 96.5 -44.5t30.5 -112.5q0 -67 -31.5 -114t-96.5 -47q-70 0 -102 60z" />
    <glyph glyph-name="d.superior" unicode="&#xe1a2;" horiz-adv-x="368" 
d="M112 346q21 -36 66 -36q43 0 62.5 32.5t19.5 75.5q0 42 -20 74t-63 32q-81 0 -81 -106q0 -44 16 -72zM321 265h-55l-4 53q-39 -60 -98 -60q-65 0 -98.5 47.5t-33.5 113.5t34 111.5t98 45.5q62 0 94 -54v181h60v-346q0 -51 3 -92z" />
    <glyph glyph-name="e.superior" unicode="&#xe1a3;" horiz-adv-x="333" 
d="M92 446h159q0 83 -74 83q-39 0 -60.5 -24.5t-24.5 -58.5zM306 403h-214q0 -43 27 -70t81 -27q52 0 86 18l3 -49q-45 -17 -94 -17q-80 0 -121.5 43t-41.5 118q0 66 39 111.5t105 45.5q130 0 130 -154v-19z" />
    <glyph glyph-name="h.superior" unicode="&#xe1a6;" horiz-adv-x="364" 
d="M313 265h-59v179q0 79 -66 79q-78 0 -78 -96v-162h-59v438h59v-186q38 59 101 59q102 0 102 -119v-192z" />
    <glyph glyph-name="l.superior" unicode="&#xe1a9;" horiz-adv-x="160" 
d="M110 265h-59v438h59v-438z" />
    <glyph glyph-name="m.superior" unicode="&#xe1aa;" horiz-adv-x="541" 
d="M110 265h-59v234q0 37 -3 71h55l2 -54q41 60 99 60q33 0 57 -18.5t33 -45.5q16 29 43 46.5t57 17.5q47 0 72 -29t25 -79v-203h-60v195q0 63 -59 63q-36 0 -54 -26.5t-18 -64.5v-167h-59v195q0 63 -58 63q-37 0 -55 -26.5t-18 -64.5v-167z" />
    <glyph glyph-name="o.superior" unicode="&#xe1ab;" horiz-adv-x="370" 
d="M116 343q25 -35 69 -35q46 0 68.5 31.5t22.5 77.5q0 44 -22.5 76.5t-66.5 32.5q-46 0 -68.5 -32t-22.5 -77q0 -42 20 -74zM185 258q-73 0 -113 44t-40 115q0 70 41.5 114.5t113.5 44.5t112 -43.5t40 -115.5q0 -70 -41 -114.5t-113 -44.5z" />
    <glyph glyph-name="r.superior" unicode="&#xe1ae;" horiz-adv-x="233" 
d="M110 265h-59v233q0 38 -3 71h54l2 -60q36 67 90 67q18 0 23 -2l-3 -62q-14 2 -23 2q-43 0 -62 -31.5t-19 -73.5v-144z" />
    <glyph glyph-name="s.superior" unicode="&#xe1af;" horiz-adv-x="272" 
d="M33 271l5 52q36 -17 79 -17q62 0 62 42q0 4 -1 8t-3.5 8t-5 7t-7 6t-8 5t-9.5 5.5t-9.5 5t-11 4.5t-10.5 5q-21 9 -29 13.5t-23 15t-21 24.5t-6 33q0 45 34 66.5t80 21.5q38 0 77 -12l-5 -49q-29 12 -69 12q-58 0 -58 -36q0 -13 12 -22.5t41 -21.5q47 -19 69.5 -38.5
t22.5 -56.5q0 -45 -35.5 -69.5t-83.5 -24.5t-87 13z" />
    <glyph glyph-name="t.superior" unicode="&#xe1b0;" horiz-adv-x="232" 
d="M208 316l4 -48q-29 -10 -58 -10q-79 0 -79 94v169h-58v49h58v65l59 19v-84h71v-49h-71v-165q0 -46 40 -46q18 0 34 6z" />
    <glyph glyph-name="n.superior" unicode="&#xe1da;" horiz-adv-x="364" 
d="M110 265h-59v233q0 38 -3 72h54l2 -54q40 60 105 60q104 0 104 -119v-192h-59v179q0 79 -66 79q-78 0 -78 -93v-165z" />
    <glyph glyph-name="period.superior" unicode="&#xe1dc;" horiz-adv-x="198" 
d="M132 265h-66v69h66v-69z" />
    <glyph glyph-name="parenleft.superior" unicode="&#xe1df;" horiz-adv-x="190" 
d="M180 292h-49q-95 144 -95 255q0 108 95 255h49q-85 -151 -85 -255q0 -110 85 -255z" />
    <glyph glyph-name="parenright.superior" unicode="&#xe1e0;" horiz-adv-x="190" 
d="M59 292h-49q84 149 84 255t-84 255h49q95 -147 95 -255q0 -109 -95 -255z" />
    <glyph glyph-name="equal.superior" unicode="&#xe1e3;" horiz-adv-x="400" 
d="M362 435h-323v48h323v-48zM362 553h-323v49h323v-49z" />
    <glyph glyph-name="grave.cap" unicode="&#xe300;" horiz-adv-x="218" 
d="M154 724h-59l-97 136h85z" />
    <glyph glyph-name="acute.cap" unicode="&#xe301;" horiz-adv-x="218" 
d="M123 724h-61l72 136h85z" />
    <glyph glyph-name="circumflex.cap" unicode="&#xe302;" horiz-adv-x="218" 
d="M34 724h-65l103 136h74l103 -136h-65l-75 96z" />
    <glyph glyph-name="caron.cap" unicode="&#xe303;" horiz-adv-x="218" 
d="M146 724h-74l-103 136h65l75 -97l75 97h65z" />
    <glyph glyph-name="tilde.cap" unicode="&#xe304;" horiz-adv-x="218" 
d="M11 738h-48q0 38 24.5 69t64.5 31q26 0 64.5 -20.5t52.5 -20.5q17 0 28 14.5t11 30.5h47q0 -35 -24 -67t-61 -32q-26 0 -62 20t-54 20q-17 0 -30 -14.5t-13 -30.5z" />
    <glyph glyph-name="dieresis.cap" unicode="&#xe305;" horiz-adv-x="218" 
d="M65 748h-66v87h66v-87zM220 748h-66v87h66v-87z" />
    <glyph glyph-name="macron.cap" unicode="&#xe306;" horiz-adv-x="218" 
d="M232 767h-245v51h245v-51z" />
    <glyph glyph-name="breve.cap" unicode="&#xe307;" horiz-adv-x="218" 
d="M-10 849h43q3 -31 23 -51t53 -20t53 20t24 51h43q0 -19 -8.5 -43.5t-37.5 -49t-74 -24.5q-44 0 -73 24.5t-37.5 49t-8.5 43.5z" />
    <glyph glyph-name="ring.cap" unicode="&#xe308;" horiz-adv-x="218" 
d="M50 792q0 -25 17.5 -42t41.5 -17q25 0 42.5 17t17.5 42q0 24 -17.5 41t-42.5 17t-42 -17t-17 -41zM72 706q-26 11 -42 34t-16 52q0 39 28 65.5t67 26.5t67.5 -26.5t28.5 -65.5t-28.5 -66t-67.5 -27q-22 0 -37 7z" />
    <glyph glyph-name="hungarumlaut.cap" unicode="&#xe309;" horiz-adv-x="218" 
d="M9 724h-60l72 136h85zM179 724h-60l72 136h85z" />
    <glyph glyph-name="dotaccent.cap" unicode="&#xe30a;" horiz-adv-x="218" 
d="M146 748h-73v87h73v-87z" />
    <glyph glyph-name="caron.alt" unicode="&#xe30b;" horiz-adv-x="218" 
d="M190 557h-53l21 164h75z" />
    <glyph glyph-name="commaaccent" unicode="&#xe30c;" horiz-adv-x="218" 
d="M79 -227h-50l47 159h67z" />
    <glyph glyph-name="commaaccent.alt" unicode="&#xe30d;" horiz-adv-x="218" 
d="M294 585h-63l50 136h46z" />
    <glyph glyph-name="grave.sc" unicode="&#xe320;" horiz-adv-x="219" 
d="M154 610h-59l-97 136h85z" />
    <glyph glyph-name="acute.sc" unicode="&#xe321;" horiz-adv-x="218" 
d="M123 610h-61l72 136h85z" />
    <glyph glyph-name="circumflex.sc" unicode="&#xe322;" horiz-adv-x="218" 
d="M34 610h-65l103 136h74l103 -136h-65l-75 96z" />
    <glyph glyph-name="caron.sc" unicode="&#xe323;" horiz-adv-x="218" 
d="M146 610h-74l-103 136h65l75 -97l75 97h65z" />
    <glyph glyph-name="tilde.sc" unicode="&#xe324;" horiz-adv-x="218" 
d="M11 624h-48q0 38 24.5 69t64.5 31q26 0 64.5 -20.5t52.5 -20.5q17 0 28 14.5t11 30.5h47q0 -35 -24 -67t-61 -32q-26 0 -62 20t-54 20q-17 0 -30 -14.5t-13 -30.5z" />
    <glyph glyph-name="dieresis.sc" unicode="&#xe325;" horiz-adv-x="218" 
d="M65 634h-66v87h66v-87zM220 634h-66v87h66v-87z" />
    <glyph glyph-name="macron.sc" unicode="&#xe326;" horiz-adv-x="218" 
d="M232 653h-245v51h245v-51z" />
    <glyph glyph-name="breve.sc" unicode="&#xe327;" horiz-adv-x="218" 
d="M-10 735h43q3 -31 23 -51t53 -20t53 20t24 51h43q0 -19 -8.5 -43.5t-37.5 -49t-74 -24.5q-44 0 -73 24.5t-37.5 49t-8.5 43.5z" />
    <glyph glyph-name="ring.sc" unicode="&#xe328;" horiz-adv-x="218" 
d="M50 678q0 -25 17.5 -42t41.5 -17q25 0 42.5 17t17.5 42q0 24 -17.5 41t-42.5 17t-42 -17t-17 -41zM72 592q-26 11 -42 34t-16 52q0 39 28 65.5t67 26.5t67.5 -26.5t28.5 -65.5t-28.5 -66t-67.5 -27q-22 0 -37 7z" />
    <glyph glyph-name="hungarumlaut.sc" unicode="&#xe329;" horiz-adv-x="218" 
d="M9 610h-60l72 136h85zM179 610h-60l72 136h85z" />
    <glyph glyph-name="dotaccent.sc" unicode="&#xe32a;" horiz-adv-x="218" 
d="M146 634h-73v87h73v-87z" />
    <glyph glyph-name="ntilde.superior" unicode="&#xf463;" horiz-adv-x="364" 
d="M122 646h-37q0 27 17 47t44 20q17 0 41.5 -12.5t34.5 -12.5q11 0 16.5 8.5t5.5 18.5h37q0 -25 -16.5 -45.5t-41.5 -20.5q-19 0 -42 12t-34 12t-18 -8.5t-7 -18.5zM110 265h-59v233q0 38 -3 72h54l2 -54q40 60 105 60q104 0 104 -119v-192h-59v179q0 79 -66 79
q-78 0 -78 -93v-165z" />
    <glyph glyph-name="i.superior" unicode="&#xf464;" horiz-adv-x="160" 
d="M110 265h-59v305h59v-305zM110 627h-59v64h59v-64z" />
    <glyph glyph-name="uniF8FF" unicode="&#xf8ff;" horiz-adv-x="512" 
d="M269 117h-59v64h59v-64zM263 241h-47v9q0 34 11.5 61t28 45.5t33 36t28 41t11.5 52.5q0 34 -22 55.5t-60 21.5q-46 0 -98 -21l-4 47q51 20 102 20q61 0 97.5 -32.5t36.5 -91.5q0 -38 -18.5 -70t-40 -50.5t-40 -48t-18.5 -64.5v-11zM512 0h-512v718h512v-718zM50 667v-617
h412v617h-412z" />
    <glyph glyph-name="napostrophe.sc" horiz-adv-x="601" 
d="M173 0h-68v533h99l254 -457v457h68v-533h-101l-252 456v-456zM55 554h-46l45 167h65z" />
    <glyph glyph-name="revcommaaccent" horiz-adv-x="218" 
d="M142 585h-67l64 159h50z" />
    <glyph glyph-name="ordmasculine.sc" horiz-adv-x="308" 
d="M97 361q20 -26 58 -26q36 0 54 25t18 60q0 84 -72 84q-37 0 -56.5 -24t-19.5 -60q0 -34 18 -59zM155 295q-61 0 -94 34.5t-33 90.5q0 55 34 89t93 34t92 -32.5t33 -90.5q0 -53 -34.5 -89t-90.5 -36z" />
    </font>
</defs>
</svg>
